/* XPM */
static char *_7c5ea2e5e014a27bcfa78541b2b598cgloIhP9ikK4x9UD9[] = {
/* columns rows colors chars-per-pixel */
"64 64 182 2 ",
"   c None",
".  c #000100",
"X  c #050B01",
"o  c #090C03",
"O  c #0B0D0A",
"+  c #061200",
"@  c #0C1303",
"#  c #0E1A02",
"$  c #0E130D",
"%  c #111506",
"&  c #121B05",
"*  c #11130B",
"=  c #161E09",
"-  c #121611",
";  c #151A12",
":  c #1A1E16",
">  c #141A1C",
",  c #112201",
"<  c #192607",
"1  c #162409",
"2  c #1A2609",
"3  c #16290A",
"4  c #1C2D0A",
"5  c #172907",
"6  c #1E330B",
"7  c #1E3C0D",
"8  c #1E251B",
"9  c #222B09",
"0  c #23360B",
"q  c #243C0D",
"w  c #27380A",
"e  c #21281E",
"r  c #20221A",
"t  c #233D11",
"y  c #1A1E21",
"u  c #171E20",
"i  c #1E2528",
"p  c #232C21",
"a  c #292E23",
"s  c #242928",
"d  c #2E3629",
"f  c #2B3226",
"g  c #323B2D",
"h  c #262D31",
"j  c #2D353C",
"k  c #2C363A",
"l  c #25420E",
"z  c #2D480D",
"x  c #2B440F",
"c  c #344C0E",
"v  c #33440D",
"b  c #2B510D",
"n  c #264211",
"m  c #2C4411",
"M  c #2C4B12",
"N  c #264811",
"B  c #344F11",
"V  c #2F5113",
"C  c #335315",
"Z  c #3C5612",
"A  c #365B16",
"S  c #3A5C13",
"D  c #33551A",
"F  c #365C1B",
"G  c #395F1B",
"H  c #346611",
"J  c #3B6414",
"K  c #356811",
"L  c #3D6917",
"P  c #37611A",
"I  c #3B641B",
"U  c #3E6B1C",
"Y  c #38432F",
"T  c #3B4233",
"R  c #3E4936",
"E  c #374033",
"W  c #415E13",
"Q  c #446415",
"!  c #446D15",
"~  c #496F16",
"^  c #416D1C",
"/  c #4A6E1A",
"(  c #4A7317",
")  c #43731E",
"_  c #4D741B",
"`  c #4E791B",
"'  c #537C1C",
"]  c #404E36",
"[  c #414E3B",
"{  c #455039",
"}  c #447722",
"|  c #4C7722",
" . c #4B7B22",
".. c #467922",
"X. c #537C22",
"o. c #353E42",
"O. c #3F4A52",
"+. c #495543",
"@. c #4E5A43",
"#. c #515548",
"$. c #47555C",
"%. c #55644B",
"&. c #59694C",
"*. c #5B6352",
"=. c #5E6C57",
"-. c #5C7153",
";. c #606F53",
":. c #627256",
">. c #667D5C",
",. c #576872",
"<. c #5E737C",
"1. c #6E7B63",
"2. c #56821D",
"3. c #59841C",
"4. c #57891E",
"5. c #5C8A1E",
"6. c #6C911A",
"7. c #729A1C",
"8. c #4E8022",
"9. c #538422",
"0. c #598621",
"q. c #5D8B22",
"w. c #5E9122",
"e. c #618D23",
"r. c #648C28",
"t. c #649522",
"y. c #669922",
"u. c #6A952B",
"i. c #769B2A",
"p. c #719D22",
"a. c #7BA224",
"s. c #6F805E",
"d. c #6C8360",
"f. c #758166",
"g. c #738A66",
"h. c #798A6A",
"j. c #79916C",
"k. c #7D8D72",
"l. c #81A52E",
"z. c #84AB28",
"x. c #8EB031",
"c. c #91B331",
"v. c #80886F",
"b. c #8B9976",
"n. c #849473",
"m. c #8AA77B",
"M. c #667A85",
"N. c #6F8895",
"B. c #738C99",
"V. c #79929D",
"C. c #77919D",
"Z. c #7B97A4",
"A. c #9CA889",
"S. c #A2B38C",
"D. c #AEBF99",
"F. c #A6B791",
"G. c #B3BF99",
"H. c #829CA9",
"J. c #8CA6B3",
"K. c #95B3BF",
"L. c #B0C197",
"P. c #BACAA3",
"I. c #C8D4AD",
"U. c #C8D9AC",
"Y. c #C4D2AA",
"T. c #D9E6BB",
"R. c #DCEDBE",
"E. c #D5E1B7",
"W. c #9CBAC8",
"Q. c #A2BFCE",
"!. c #A3C1CF",
"~. c #A5C5D4",
"^. c #ACCCDD",
"/. c #B2D3E4",
"(. c #BBDDEE",
"). c #BADCED",
"_. c #B9DBEC",
"`. c #B5D7E8",
"'. c #EEFFCC",
"]. c #ECFDCC",
"[. c #EDFECC",
"{. c #E1F2C4",
/* pixels */
"                                                                                                                                ",
"                                                                                                                                ",
"                                                      . . . . . . . . . .                                                       ",
"                                                . . . . . . . . . . . . . . . .                                                 ",
"                                              . . . . = l V I ^ } L A n < . . . .                                               ",
"                                            . . . 1 L } } } } } } } } } } L 1 X . . .                                           ",
"                                          . . X C ) 9.9. .U I I U ) } } } } ) A , . . .                                         ",
"                                        . . @ L t.z.7.W 4 @ o o o & 4 V I } } } } l . . .                                       ",
"                                      . . # L p.6.c % i $.B.J.J.H.,.o.> X 6 U } } } C @ . .                                     ",
"                                    . . & L ` c o k V.^.(.(.(.(.(.(._.W.<.y @ l } } } C . .                                     ",
"                                    . X D V @ u Z.^.(./.W.N.$.,.M.J.^.(.(.W.O.O 3 J } } 1 . .                                   ",
"                                  . . & 6 . O.~.(./.V.j $ @ 2 2 & X i M.!._./.H.h X C } V . .                                   ",
"                                  . . 0 o <.`.(.Q.$.o 5 ! 3.y.y.e.` z @ > ,.~.(.^.j @ ^ I # .                                   ",
"                                . . # M X <.K.C.y @ Q t.y.y.y.y.y.y.y.3.c @ h <.J.k @ ^ } q . .                                 ",
"                                . . q } 6 o $ o 0 _ y.y.y.y.y.y.y.y.y.y.y.2.w & X @ A } } C . .                                 ",
"                                . . G } ) P F _ t.y.y.y.y.y.y.y.y.y.y.y.y.y.t.q.' ) } } } ) . .                                 ",
"                                . . ) } } } } ' / ' t.y.y.y.y.y.y.y.y.y.t.~ ~ 2.t.| } } } } X . .                               ",
"                                . X } } } A & . $ . . # S y.y.y.y.y.5.0 . $ $ . . , G } } } 1 . .                               ",
"                              . . @ } } l . %.T.].].P.k.$ w y.y.y.3.% g L.].].].I.+.. M } } 6 . .                               ",
"                              . . 4 } A $ b.].].].].].].U.$ c y.2.@ +.].].].].].].].f.@ U } n . .                               ",
"                              . . n } 4 @.].].].].].].].].1.@ 5.Z X R.].].].].].].].R.a C } M . .                               ",
"                              . . m ) # A.].].].].].].].].F.X ' 0 @.].].].].].P.{.].].T M } D . .                               ",
"                              . . n I @ G.].].*.g Y.].].].S.X 2.0 &.].].].].*.. b.].].T M } D . .                               ",
"                              . . 0 ^ # A.].].X . A.].].].1.@ 5.w T ].].].].k.f D.].R.a V } D . .                               ",
"                              . . 2 } 4 +.].].U.T.].].].E.$ c y.Q . D.].].].].].].].1.@ U } F . .                               ",
"                              . . & } J @ =.{.].].].].I.s 4 3.y.t.0 ; P.].].].].].v.. M } } ^ . .                               ",
"                              . . o } } A @ - #.f.n.@.X 4 m & 5.4 S z . d *.h.n.E X b } } } } . .                               ",
"                                . . } } ) / v 1 & = 1 c 5.B & 3.= W t.W w 1 & = 1 C ) ) } } } X . .                             ",
"                              . . X G 6 # 1 _ t.' ( Q Z y.J X ! # _ y.y.y.t.5.3.t.A & @ 6 P } o . .                             ",
"                              . . o X @ l n 2.3.& # # 6 y.2.. 2 & 5.y.y.y.y.y.y.t.P t l @ X A o . .                             ",
"                              . . . 2 G C 6 0 B J _ 5.t.y.y.S @ C y.y.y.y.t.2.Q q 2 6 P I 2 X . . .                             ",
"                              . . @ U t O ] O : $ < Q q.y.y.t.3.t.y.y.t.( w * : ; e : @ P ^ X . . .                             ",
"                              . . M M X ; d.$ ;.j.p o & C 2.t.y.t.3.Q 1 o X -.m.d [ : . 1 } m . .                               ",
"                              . . } & X + X X r g.8 { @.. @ 1 0 < @ . R g.; g.m.X X X # X M ^ . .                               ",
"                            . . X } . + , , , @ o X p :.. g.@.$ %.g.O g.>.X g a o # , , . t } . .                               ",
"                            . . X } X + , , , , , & X X . %.R o :.%.. e O @ X @ , , , & X t } . . .                             ",
"                              . . ^ < . , , , , , , , , # X X @ X X # # # , , , , , , # @ A U . . .                             ",
"                              . . C M X # , , , , , , , , , , , , , , , , , , , , , , X 4 ) M . . .                             ",
"                              . . # } 7 . # + . X X X X , , , , , , , , , , @ @ # , X X J ) @ . . .                             ",
"                              . . . 0 ^ 4 . . s.; o [ O . . . @ X X @ X . . - Y . X X D U 4 . X . .                             ",
"                              . . 3 . 3 ) z o : 8 : m.f ; m.X X +.%.. g &.X Y ] . 9 4.r.1 . V X . .                             ",
"                              . . D V M } } ) Z = X . . O p X O d p . * O . @ 0 ~ y.e.i.Q V ^ . .                               ",
"                              . . D } ) U } | y.y.t.2./ W S S S B S S W _ 3.y.y.y.y.9.} } } P . .                               ",
"                              . . V ! H H K ` y.y.y.y.y.y.y.y.y.y.y.y.y.y.y.y.y.y.y.q.} } } D . .                               ",
"                              . . m J H H H _ y.y.y.y.y.y.y.y.y.y.y.y.y.y.y.y.y.y.y.w.} } } M . .                               ",
"                              . . n J H K a.u.t.y.y.y.y.y.y.y.y.y.y.y.y.y.y.y.y.y.y.q.} } } m . .                               ",
"                              . . t ! H ( c.0.t.y.y.y.y.y.y.y.y.y.y.y.y.y.y.y.y.y.y.9.} } } n . .                               ",
"                              . . 4 } 0.x.i.} w.y.y.y.y.y.y.y.y.y.y.y.y.y.y.y.y.y.t.| } } } t . .                               ",
"                              . . 1 } 8.q. .} q.y.y.y.y.y.y.y.y.y.y.y.y.y.y.y.y.y.e.} } } } t . .                               ",
"                              . . @ } } } } } 9.y.y.y.y.y.y.y.y.y.y.y.y.y.y.y.y.y.9.} } } } 6 . .                               ",
"                                . . } } } } }  .y.y.y.y.y.y.y.y.y.y.y.y.y.y.y.t.4.) } } } } , . .                               ",
"                                . . A } } } } } e.y.y.y.y.y.y.y.y.y.y.y.y.y.t.' K H ! } } } . . .                               ",
"                                . . 3 U } } } } | e.y.y.y.y.y.y.y.y.y.y.y.y.` H H H ! } } G . .                                 ",
"                                  . . n } } } } }  .0.t.y.y.y.y.y.y.y.y.y.t.` H H H ! } ) 0 . .                                 ",
"                                  . . o I } } } } } } X.0.t.t.y.y.t.t.q.X.e.l.' ' ! } } V X .                                   ",
"                                    . . 3 } } } } } } } }  . . .8. . .} }  .i.z.l.8.} P @ . .                                   ",
"                                    . . . 0 } } } } } } } } } } } } } } } } }  .} } P & . .                                     ",
"                                      . . . 6 I } } } } } } } } } } } } } } } } } n o . .                                       ",
"                                        . . . o x ) } } } } } } } } } } } } } } 6 . . .                                         ",
"                                          . . . . o t ^ } } } } } } } } } ^ q @ . . .                                           ",
"                                              . . . . . @ 6 n C D D N 6 # . . . . .                                             ",
"                                                    . . . . . . . . . . . . . .                                                 ",
"                                                          . . . . . . .                                                         ",
"                                                                                                                                "
};
