/* XPM */
static char *_909b9d5aee041bb8a03fcd4cbe13b2alozbg7AFzF931u7C[] = {
/* columns rows colors chars-per-pixel */
"64 64 177 2 ",
"   c None",
".  c #000101",
"X  c #0D0B06",
"o  c #0B0C0C",
"O  c #120F0B",
"+  c #1B160C",
"@  c #0C0F11",
"#  c #0E1112",
"$  c #131313",
"%  c #191514",
"&  c #1B1916",
"*  c #131718",
"=  c #151A1D",
"-  c #1D1D1C",
";  c #171817",
":  c #20190E",
">  c #221F1C",
",  c #231A15",
"<  c #25221F",
"1  c #3C301B",
"2  c #191F21",
"3  c #2A1F21",
"4  c #1C2123",
"5  c #1F2629",
"6  c #242525",
"7  c #292623",
"8  c #2D2925",
"9  c #20272B",
"0  c #21292C",
"q  c #2C2C2D",
"w  c #372B2B",
"e  c #38332E",
"r  c #252D31",
"t  c #2F2F31",
"y  c #2C3134",
"u  c #2A3439",
"i  c #2F3A3F",
"p  c #353535",
"a  c #3B3631",
"s  c #3C3E3D",
"d  c #3E3933",
"f  c #41341D",
"g  c #4D3E23",
"h  c #423C36",
"j  c #433D38",
"k  c #544225",
"l  c #5B4828",
"z  c #4A443E",
"x  c #624D2B",
"c  c #6E5731",
"v  c #6F5831",
"b  c #323D43",
"n  c #583D43",
"m  c #354147",
"M  c #3A484E",
"N  c #38444A",
"B  c #3D4B52",
"V  c #474644",
"C  c #524B44",
"Z  c #5E4148",
"A  c #5C544C",
"S  c #46565E",
"D  c #525454",
"F  c #565858",
"G  c #604249",
"H  c #645C53",
"J  c #6F5356",
"K  c #7A545C",
"L  c #6B4951",
"P  c #6E645B",
"I  c #696057",
"U  c #73695F",
"Y  c #4B5D64",
"T  c #4E5F68",
"R  c #4F616A",
"E  c #52656D",
"W  c #576B74",
"Q  c #5D737C",
"!  c #616564",
"~  c #696B6B",
"^  c #796E63",
"/  c #756B61",
"(  c #7A7065",
")  c #6D7171",
"_  c #737575",
"`  c #7A7D7D",
"'  c #747979",
"]  c #825962",
"[  c #846868",
"{  c #85796E",
"}  c #8A7E72",
"|  c #9D7179",
" . c #A4767E",
".. c #8D8175",
"X. c #978A7D",
"o. c #928679",
"O. c #5F7680",
"+. c #617781",
"@. c #637A84",
"#. c #667D88",
"$. c #6A828E",
"%. c #7C8180",
"&. c #6D8691",
"*. c #6F8994",
"=. c #708A96",
"-. c #748F9C",
";. c #77939F",
":. c #7994A1",
">. c #7C99A7",
",. c #828484",
"<. c #8D8D8D",
"1. c #9C8E81",
"2. c #9E9183",
"3. c #8B9190",
"4. c #949696",
"5. c #989A99",
"6. c #AD8487",
"7. c #B38C8D",
"8. c #A29486",
"9. c #A59789",
"0. c #A7988A",
"q. c #A99B8C",
"w. c #AE9F90",
"e. c #AFA091",
"r. c #B3A394",
"t. c #BCAC9C",
"y. c #B7A798",
"u. c #819EAC",
"i. c #82A0AE",
"p. c #9DA3A2",
"a. c #86A5B3",
"s. c #88A7B6",
"d. c #88A8B6",
"f. c #8CADBC",
"g. c #8EB0BF",
"h. c #ACACAB",
"j. c #A2A5A5",
"k. c #ABB2B1",
"l. c #B3BBBA",
"z. c #B9B9B9",
"x. c #C1AD9F",
"c. c #C0B09F",
"v. c #C5B4A3",
"b. c #C9B8A6",
"n. c #CCBBA9",
"m. c #CDB3A7",
"M. c #D3BCAD",
"N. c #D2C0AE",
"B. c #D6C3B1",
"V. c #D9C6B4",
"C. c #DCC9B6",
"Z. c #8FB0C0",
"A. c #92B3C3",
"S. c #96B9C9",
"D. c #99BCCD",
"F. c #9EC3D3",
"G. c #A0C5D6",
"H. c #A1C6D8",
"J. c #A5CBDC",
"K. c #BFC7C7",
"L. c #AAD2E4",
"P. c #AED6E9",
"I. c #B1DAED",
"U. c #C3CBCA",
"Y. c #CDCDCD",
"T. c #D6D5D3",
"R. c #D2DBDA",
"E. c #DFDFDF",
"W. c #CBD3D2",
"Q. c #D9E2E1",
"!. c #E3ECEB",
"~. c #E5E5E5",
"^. c #EAF4F3",
"/. c #EEF8F7",
"(. c #F0FAF9",
"). c #FFFFFF",
"_. c #F4F4F4",
/* pixels */
"                                                                                                                                ",
"                                                              . .                                                               ",
"                                                          . . . . .                                                             ",
"                                                        . . * 4 . .                                                             ",
"                                                    . . X S J.Y . .                                                             ",
"                                                  . . @ *.I.I.&.. .                                                             ",
"                                                . . m G.I.I.I.a.. .                                                             ",
"                                              . . m H.I.I.I.I.a.. .                                           . . .             ",
"                                          . . o -.P.I.I.I.I.I.f.o .                           . . . . . . . X o . . .           ",
"                                          . . @.I.I.I.I.I.I.I.F.= .                     . . . . # r S +.:.a.d.S . . .           ",
"                                        . . Q I.I.I.I.I.I.I.I.P.i . .           . . . . = i W S.P.I.I.I.I.P.#.X . .             ",
"                                      . . B P.I.I.I.I.I.I.I.I.I.S . .     . . . . o u @.S.P.I.I.I.I.I.I.I.&.# . .               ",
"                                    . . 9 J.I.I.I.I.I.I.I.I.I.I.@.. . . . . . 0 -.P.I.I.I.I.I.I.I.I.I.I.D.. . .                 ",
"                                    . . +.I.I.I.I.I.I.I.I.I.I.I.d.X . . = Q F.I.I.I.I.I.I.I.I.I.I.I.I.L.r . .                   ",
"                                  . . = D.I.I.I.I.I.I.I.I.I.I.I.A.o . $.I.I.I.I.I.I.I.I.I.I.I.I.I.I.L.E . .                     ",
"                                  . . b d.:.*.+.-.A.P.I.I.I.I.I.L.:.A.I.I.I.I.I.I.I.I.I.I.I.I.I.I.I.Q . .                       ",
"                                . . . . < j C A a o m J.I.I.I.I.I.I.I.I.I.I.I.I.I.I.I.I.I.I.I.I.I.i.o . .                       ",
"                              . . $ { v.C.C.C.C.C.v.h # >.I.I.I.I.I.I.I.I.I.I.I.I.I.I.I.I.I.I.I.S.4 . .                         ",
"                          . . X a N.C.C.C.C.C.C.C.C.B.H . s.I.I.I.I.I.I.I.I.I.I.I.I.I.I.I.I.I.G.i . .                           ",
"                        . . > 9.V.C.C.C.C.C.C.C.C.C.C.C./ o =.P.I.I.I.I.I.I.I.I.I.I.I.I.I.I.I.M . .                             ",
"                      . . - q.b.V.C.C.b.o.r.C.C.C.C.C.C.B.H o -.I.I.I.I.I.I.I.I.I.I.I.I.I.I.=.. . . .                           ",
"                      . . o % 7 } X.< * r o j C.C.C.C.C.C.C.U * f.I.I.I.I.I.I.I.I.I.I.I.I.I.= o . . . . . . . .                 ",
"                    . . A 1.y.r.A $ @.Z.J.b % C.C.C.C.C.C.C.N.z m L.I.I.I.I.I.I.I.I.I.I.I.I.S.g.a.u.:.&.W 0 X . . . .           ",
"                  . . o n.x.A $ u D.I.S.b O 2.C.C.C.C.C.C.C.C.r.; a.I.I.I.I.I.I.I.I.I.I.I.I.I.I.I.I.I.I.I.I.L.d.E 0 X . . .     ",
"                  . . & z > b u.J.L.Y 2 C w.C.C.C.C.C.C.C.C.C.B.a M I.I.I.I.I.I.I.I.I.I.I.I.I.I.I.I.I.I.I.I.I.I.I.J.a.Q 4 . .   ",
"              . . X # b =.D.I.H.$.@ a q.V.C.C.C.C.C.C.C.C.C.C.C.P . P.I.I.I.I.I.I.I.I.I.I.I.I.I.I.I.I.I.I.I.I.I.I.P.&.* . . .   ",
"              . = >.S.P.I.A.R 0 6 p 7 ^ B.C.C.C.C.C.C.C.C.C.C.C.{ . F.I.I.I.I.I.I.I.I.I.I.I.I.I.I.I.I.I.I.I.I.I.a.m X . .       ",
"              . @ =.g.Y $ 6 _ T.).).j.- ( C.C.C.C.C.C.C.C.C.C.C.8.. a.I.I.I.I.I.I.I.I.I.I.I.I.I.I.I.I.I.I.I.S.b . . .           ",
"              . . o 6 D k.~.).).).).).,.8 n.C.C.C.C.C.C.C.C.C.C.w.X -.I.I.I.I.I.I.I.I.I.I.I.I.I.I.I.I.I.L.E 4 . .               ",
"                . p E.5.Y.).).).).).).z.& c.C.C.C.C.C.C.C.C.C.C.r.o *.I.I.I.I.I.I.I.I.I.I.I.I.I.I.I.G.:.r . . .                 ",
"                . p ` . ~ _.).).).).).h.% t.C.C.C.C.C.C.C.C.C.C.y.$ Q I.I.I.I.I.I.I.I.I.I.I.I.I.H.Y 5 . . .                     ",
"                . ; 4.h.!.).).).).).~.V w m.C.C.C.C.C.C.C.C.C.e.C X 4 S $.H.I.I.I.I.I.I.I.I.I.I.L.E * . .                       ",
"              . . . $ 4.).).).).).T.p % [ m.C.C.C.C.C.C.C.C.C.r.} 8.8.} > B L.I.I.I.I.I.I.I.I.I.I.I.f.S . . .                   ",
"              . X ^ [ , 7 F ,.<._ $ w ] 7.V.C.C.C.C.C.C.C.C.C.C.C.C.C.C.o.= D.I.I.I.I.I.I.I.I.I.I.I.I.I.&.# . .                 ",
"            . . j N.B.| K L G n Z K | 6.x.n.C.C.C.C.C.C.C.C.C.C.C.C.C.C.^ 4 G.I.I.I.I.I.I.I.I.I.I.I.I.I.I.s.u . .               ",
"            . . P { A P 7.6. . . .J 3 7 & H C.C.C.C.C.C.C.C.C.C.C.C.V.1.X W I.I.I.I.I.I.I.I.I.I.I.I.I.I.I.I.D.r . .             ",
"            . . X . . z C.V.M.M.M.t.9.q.t.V.C.C.C.C.C.C.C.C.C.C.b.r.A o B J.I.I.I.I.I.I.I.I.I.I.I.I.I.I.I.I.I.Z.2 . .           ",
"              . . . . & V.C.C.C.C.C.C.C.C.C.C.C.C.C.C.C.C.C.C.B.H % # D.I.I.I.I.I.I.I.I.I.I.L.a.s.S.F.S.a.a.a.Z.A.u . .         ",
"                    . . y.C.C.C.C.C.C.C.C.C.b.B.C.C.C.C.C.C.C.C.C.H = I.I.I.I.I.I.I.I.I.I.I.s.. . * 2 * . . . o = 2 . . .       ",
"                    . . 8 C a e d H ( } 8.B.j 7 C.C.C.C.C.C.C.C.V.e u I.I.I.I.I.I.I.I.I.I.I.I.$.* . . . . . . . . . . .         ",
"                      . . C 1.9.X.H z w > y.U o C.C.C.C.C.C.C.C.t.% T I.I.I.I.I.I.I.I.I.I.I.I.I.R . .                           ",
"                      . . & r.C.C.C.C.C.C.C...q.C.C.C.C.C.C.C.V.H @ D.I.I.I.I.L.F.I.I.I.I.I.I.I.f.o .                           ",
"                        . . e v.C.C.C.C.C.C.C.C.C.C.C.C.C.C.C.9.$ &.I.I.I.I.I.=.4 O.J.I.I.I.I.I.H.4 . .                         ",
"                          . . $ H t.C.C.C.C.C.C.C.C.C.C.V.q.I - 4 5 S ;.G.I.F.m . . . 9 Y @.>.D.L.Y . .                         ",
"                            . . . & H 1.v.C.C.C.C.B.t.8.A o X 4.R.l.D . 4 R :.y . . . . . . . = i M . .                         ",
"                                . . . . . $ & & % X X q q . # U.(.(.R.. ` ! o . . .         . . . . . . .                       ",
"                                      . . . . o . V !.(.^.F $ U.(.(.(.y V ^.` . .                   .                           ",
"                                          . . $ o o U.(.^.p - R.(.(.(.%.; W.j.. .                                               ",
"                                          . . $ $ X D !.s X - R.(.(.(.l.. k.k.o .                                               ",
"                                          . . $ $ o . ) ,.) - R.(.(.(.!.. ' R.s .                                               ",
"                                          . . o o o o . _ _ 4 R.^.R.U.l.- ! /.3.. .                                             ",
"                                          . . . . . X + . X . . . . % 8 . 5.(.k.. .                                             ",
"                                              . . . , c x X % 9.v.B.C.X.. l.(.^.$ . .                                           ",
"                                                . . X x v + o j t.C.C.d 6 Q.(.(.D . .                                           ",
"                                                  . . 1 v l f X A ..w . 4 ! p.K.~ . .                                           ",
"                                                  . . : v v c g O . . . . . . o ; . .                                           ",
"                                                    . . g k k k + . .         . . . .                                           ",
"                                                    . . 6 p s 8 . . .                                                           ",
"                                                . . . . 4.T.T.h.o . .                                                           ",
"                                              . . . o . ; - - ; . . .                                                           ",
"                                              . X - t q q q q q ; . .                                                           ",
"                                            . . X o o o o X X o X . .                                                           ",
"                                              . . . . . . . . . . .                                                             ",
"                                                                                                                                "
};
