/* XPM */
static char *_967ff6106074ae5e5c8db8d77e7f033zjNik48fdqCr4oS9[] = {
/* columns rows colors chars-per-pixel */
"64 64 183 2 ",
"   c None",
".  c #010101",
"X  c #070909",
"o  c #0B0B0C",
"O  c #090806",
"+  c #110E0A",
"@  c #13110D",
"#  c #1C170D",
"$  c #0D0F11",
"%  c #0E1113",
"&  c #131313",
"*  c #1A1515",
"=  c #1A1816",
"-  c #131718",
";  c #151A1C",
":  c #1B1B1B",
">  c #191718",
",  c #251D10",
"<  c #211E1C",
"1  c #201618",
"2  c #211A0F",
"3  c #2D2314",
"4  c #22201D",
"5  c #3E311C",
"6  c #312716",
"7  c #191F21",
"8  c #2B1F21",
"9  c #1D2426",
"0  c #1E2629",
"q  c #222323",
"w  c #292622",
"e  c #20272B",
"r  c #232B2E",
"t  c #2B2B2C",
"y  c #2E2A26",
"u  c #312D29",
"i  c #362529",
"p  c #36322D",
"a  c #252D31",
"s  c #273135",
"d  c #2B3135",
"f  c #2C363B",
"g  c #2F393E",
"h  c #333434",
"j  c #3B3B3B",
"k  c #3A3835",
"l  c #42351D",
"z  c #4D3D22",
"x  c #443E38",
"c  c #543A3F",
"v  c #564426",
"b  c #4A433D",
"n  c #44403D",
"m  c #6A542F",
"M  c #67522E",
"N  c #6F5831",
"B  c #6C5530",
"V  c #634E2C",
"C  c #323D43",
"Z  c #5B3F45",
"A  c #354146",
"S  c #38464C",
"D  c #3D4B52",
"F  c #4D4D4D",
"G  c #4A4845",
"H  c #534C45",
"J  c #5B534B",
"K  c #404F55",
"L  c #415057",
"P  c #44545B",
"I  c #4F5252",
"U  c #525555",
"Y  c #5A5D5D",
"T  c #565A5A",
"R  c #645C53",
"E  c #6B4951",
"W  c #5C605F",
"Q  c #6C6259",
"!  c #72685E",
"~  c #4B5D65",
"^  c #4E5F68",
"/  c #4E6069",
"(  c #52656D",
")  c #566A74",
"_  c #576A74",
"`  c #5C727C",
"'  c #646767",
"]  c #766B61",
"[  c #796F64",
"{  c #7A7269",
"}  c #767878",
"|  c #6B706F",
" . c #855C65",
".. c #89656A",
"X. c #82776B",
"o. c #857A6E",
"O. c #986A74",
"+. c #8A7C71",
"@. c #967074",
"#. c #A5787F",
"$. c #8E8275",
"%. c #93867A",
"&. c #988B7E",
"*. c #978A7D",
"=. c #5F7680",
"-. c #607781",
";. c #637A84",
":. c #667E89",
">. c #A67880",
",. c #7E8382",
"<. c #6E8793",
"1. c #738E9A",
"2. c #708A96",
"3. c #76919D",
"4. c #68808B",
"5. c #7894A1",
"6. c #7D9AA8",
"7. c #858888",
"8. c #9D8E81",
"9. c #99928A",
"0. c #8E9393",
"q. c #9A9E9E",
"w. c #949A9A",
"e. c #A98585",
"r. c #A29486",
"t. c #A7988A",
"y. c #AA9B8C",
"u. c #A69689",
"i. c #AE9F90",
"p. c #B89A94",
"a. c #B48E8E",
"s. c #AFA091",
"d. c #B4A495",
"f. c #BCAC9C",
"g. c #819EAC",
"h. c #82A0AE",
"j. c #86A5B3",
"k. c #89A9B7",
"l. c #8AAAB9",
"z. c #88A7B5",
"x. c #9DA3A3",
"c. c #A1A6A5",
"v. c #A6ADAC",
"b. c #A8ABA9",
"n. c #ADB5B4",
"m. c #B0B8B7",
"M. c #B7B7B7",
"N. c #C1B09F",
"B. c #C4B3A3",
"V. c #CDBBAA",
"C. c #C9B8A6",
"Z. c #D1BEAD",
"A. c #D3C1AF",
"S. c #D7C4B2",
"D. c #D9C6B4",
"F. c #DCC9B6",
"G. c #8FB0C0",
"H. c #92B3C3",
"J. c #97BACA",
"K. c #9ABDCE",
"L. c #9CC0D1",
"P. c #A5CBDC",
"I. c #A1C6D7",
"U. c #BFC7C6",
"Y. c #A7CEE0",
"T. c #AAD1E4",
"R. c #AED7E9",
"E. c #B1DAED",
"W. c #C7C7C5",
"Q. c #CBCBCB",
"!. c #C8CCCA",
"~. c #D3D8D7",
"^. c #D1D0CD",
"/. c #DBE5E4",
"(. c #DFE8E7",
"). c #E5EEED",
"_. c #E9E9E9",
"`. c #EEF8F7",
"'. c #ECF6F5",
"]. c #F4F4F4",
"[. c #F0FAF9",
"{. c #FEFEFE",
"}. c #E7F0EF",
/* pixels */
"                                                                                                                                ",
"                                                            . . .                                                               ",
"                                                          . . . . .                                                             ",
"                                                            . X a . . .                                                         ",
"                                                            . 7 K.<.9 . .                                                       ",
"                                                          . . f R.E.L.K . .                                                     ",
"                                                          . . L E.E.E.R.( o . .                                                 ",
"          . . . . . . . . .                               . . L E.E.E.E.R.3.% . .                                               ",
"        . . . 7 g s r - X . . . .                         . . -.E.E.E.E.E.E.6.0 . .                                             ",
"          . . ; h.T.P.J.k.5.` s . . . . .                 . . g.E.E.E.E.E.E.E.J.; . .                                           ",
"            . . 9 J.E.E.E.E.E.E.K._ g - . . .             . ; K.E.E.E.E.E.E.E.E.z.X . .                                         ",
"              . . S I.E.E.E.E.E.E.E.R.J.2.L o . . .     . . r Y.E.E.E.E.E.E.E.E.E.-.. .                                         ",
"                . . D E.E.E.E.E.E.E.E.E.E.E.P.` f % . . . . P E.E.E.E.E.E.E.E.E.E.R.s . .                                       ",
"                  . . 2.E.E.E.E.E.E.E.E.E.E.E.E.T.G.( X . . j.E.E.E.E.E.E.E.E.E.E.E.h.X .                                       ",
"                  . . - K.E.E.E.E.E.E.E.E.E.E.E.E.E.E.H.C X K.E.E.E.E.E.E.E.E.E.E.E.T.f . .                                     ",
"                    . . C K.E.E.E.E.E.E.E.E.E.E.E.E.E.E.T.k.E.E.E.E.E.E.E.6.~ P / ) ;.K . .                                     ",
"                      . . D T.E.E.E.E.E.E.E.E.E.E.E.E.E.E.E.E.E.E.E.E.l.g 4 J R R H n w . . .                                   ",
"                        . . ` E.E.E.E.E.E.E.E.E.E.E.E.E.E.E.E.E.E.E.5.% J f.F.F.F.F.F.V.o.y . . .                               ",
"                        . . $ k.E.E.E.E.E.E.E.E.E.E.E.E.E.E.E.E.T.2.o { F.F.F.F.F.F.F.F.F.A.J X . .                             ",
"                          . . f H.E.E.E.E.E.E.E.E.E.E.E.E.E.E.R.( X X.D.F.F.F.F.F.F.F.F.F.F.D.&.p . .                           ",
"                    . . . . . . f E.E.E.E.E.E.E.E.E.E.E.E.E.E.:.= &.F.F.F.F.F.F.V.%.X.r.Z.F.V.t.8.4 . .                         ",
"          . . . . . . - f A L L ^ E.E.E.E.E.E.E.E.E.E.E.E.E.5.- $.F.F.F.F.F.F.F.H 0 ^ 9 p [ t.u < + . .                         ",
"    . . . . - g ~ 5.K.E.E.E.E.E.E.E.E.E.E.E.E.E.E.E.E.E.E.L.X J D.F.F.F.F.F.F.F.u P T.T.` 9 x f.A.d.x . .                       ",
". . . a ( 3.J.R.E.E.E.E.E.E.E.E.E.E.E.E.E.E.E.E.E.E.E.E.E._ @ d.F.F.F.F.F.F.F.F.d.& C h.E.L.L = H f.r.@ .                       ",
". . ; 3.I.E.E.E.E.E.E.E.E.E.E.E.E.E.E.E.E.E.E.E.E.E.E.E.E.; b D.F.F.F.F.F.F.F.F.F.N.H : ) H.E.6.D : G w . .                     ",
"  . . X r 2.E.E.E.E.E.E.E.E.E.E.E.E.E.E.E.E.E.E.E.E.E.E.T.. $.F.F.F.F.F.F.F.F.F.F.F.D.y.u - ` R.E.H.;.K X . . .                 ",
"      . . . P H.R.E.E.E.E.E.E.E.E.E.E.E.E.E.E.E.E.E.E.E.H.. f.F.F.F.F.F.F.F.F.F.F.F.V.R : F j 9 ( h.P.E.T.2.; .                 ",
"          . . % ( T.E.E.E.E.E.E.E.E.E.E.E.E.E.E.E.E.E.E.5.X F.F.F.F.F.F.F.F.F.F.F.F.H t Q.{.].M.7.t a / H.( $ .                 ",
"            . . . d 1.T.E.E.E.E.E.E.E.E.E.E.E.E.E.E.E.E.4.< F.F.F.F.F.F.F.F.F.F.F.s.. q.{.{.{.{.{.{.q.U t . . .                 ",
"                . . . g 2.P.E.E.E.E.E.E.E.E.E.E.E.E.E.E._ p F.F.F.F.F.F.F.F.F.F.F.%.X Q.{.{.{.{.{.{.7.} Q.. .                   ",
"                  . . . . s I.E.E.E.E.E.E.E.E.E.E.E.Y.H.~ u V.F.F.F.F.F.F.F.F.F.F.+.. n.{.{.{.{.{._.h . } . .                   ",
"                  . . - <.J.E.E.E.E.E.E.E.E.E.E.E.1.s : 4 & w r.F.F.F.F.F.F.F.F.F.e.1 F ].{.{.{.{.{.~.M.| . .                   ",
"              . . X C J.E.E.E.E.E.E.E.E.E.E.E.E.j.7 ! S.F.F.d.Z.F.F.F.F.F.F.F.F.F.p. .* ' W.{.{.{.].Q.7.o . .                   ",
"            . . % 2.T.E.E.E.E.E.E.E.E.E.E.E.E.E.;.& d.F.F.F.F.F.F.F.F.F.F.F.F.F.F.Z.#. .i & F T F j * i 8.p . .                 ",
"          . . ; 6.E.E.E.E.E.E.E.E.E.E.E.E.E.E.E.z.7 o.F.F.F.F.F.F.F.F.F.F.F.F.F.F.8.u.@.O...Z c E E O.e.F.d.w . .               ",
"        . . e G.E.E.E.E.E.E.E.E.E.E.E.E.E.E.E.E.E.-.= o.D.F.F.F.F.F.F.F.F.F.F.F.F.J < * 8 ..#.O.>.a.p.H b { H . .               ",
"      . . 0 J.E.E.E.E.E.E.E.E.E.E.E.E.E.E.E.E.E.E.R.-.e : Q i.F.F.F.F.F.F.F.F.F.F.F.F.A.B.D.F.F.F.F.i.& . . . . .               ",
"    . . . S P A f A S ~ / P S _ P.E.E.E.E.E.E.E.E.E.E.l.. ] d.F.F.F.F.F.F.F.F.F.F.F.F.F.F.F.F.F.F.F.+.. .   .                   ",
"    . . . . . . . . . . . . o =.R.E.E.E.E.E.E.E.E.E.E.J.. f.F.F.F.F.F.F.F.F.Z.8.i.F.F.F.F.D.V.V.A.S.x . .                       ",
"                        . . ( R.E.E.E.E.E.E.E.E.E.E.E.R.X %.F.F.F.F.F.F.F.F.X.X 8.u.R H x p w w y u O .                         ",
"                        . - J.E.E.E.E.E.E.E.E.E.E.E.E.E.S b F.F.F.F.F.F.F.F.$.@ *.! H R { *.f.B.t.w . .                         ",
"                      . . C R.E.E.E.E.E.E.j.` R.E.E.E.E.l.X %.F.F.F.F.F.F.F.S.d.B.F.F.F.F.F.F.F.[ X .                           ",
"                      . . ;.E.E.R.K.j.1.D . . l.E.E.E.T.H.r & 8.D.F.F.F.F.F.F.F.F.F.F.F.F.F.C.H X .                             ",
"                      . e 5.-.D f ; . . . . . 2.E.J.( s : h . o b y.F.F.F.F.F.F.F.F.F.F.V.+.w . .                               ",
"                    . . . . . . . . . .   . . C e q U q.).7.o q.T X k ] $.y.d.d.d.r.o.J + . . .                                 ",
"                      . . .               . . q m.~.`.[.).: Y /.Y & 0.7.Y q o o = o . . . .                                     ",
"                                        . . % U.[.[.[.[.0.- (.v.X c.[.[.(.d X X Y n.o . .                                       ",
"                                        . . v.[.[.[.[.(.: 7.[./.W : c.[.0.X o X Y [.w.o . .                                     ",
"                                      . . . ' m.`.[.).G : }.[.[.).} : m.o X & X U [.).I . .                                     ",
"                                      . X [ [ & U q.x.X q.[.[.[.[.[.n.q X & & X : ' j < = . .                                   ",
"                                      . * f.F.N.J w . t '.[.[.[.[.!.h . X X X X : J +.V.+.@ . .                                 ",
"                                      . X y.F.D.y.] q !.[.[.[.}.,.: 3 z z z 3 . [ F.F.F.G . .                                   ",
"                                      . . : +.H X . Y [.[.(.v.j + l N N N N v O . Q &.8.b . .                                   ",
"                                        . . q | n.v.c.,.Y t + # @ v N N N N N 5 . . . . . .                                     ",
"                                        . . G | h o + , 6 v N m 3 . z N N N N M O . . .                                         ",
"                                      . . . . h 0.t , m N N V l 2 . . 5 N m 5 # X . . . . .                                     ",
"                                    . . X q & q ^.W.w , z 3 . . . . . . 3 @ k | W.: . X X . . .                                 ",
"                                      . . & t & t c.n . . . .         . . q W.b.F o & t t : . . .                               ",
"                                        . . & t o . . . .             . . . & X & t w : X . . .                                 ",
"                                          . . : t : . .                 . . o t q o . . . .                                     ",
"                                            . . w q . .                   . . X . . .                                           ",
"                                            . . X X . .                     . . .                                               ",
"                                              . . . .                                                                           ",
"                                                                                                                                "
};
