/* XPM */
static char *_6763a270f7b4d7fbcb954a731e80ccbjwGN53IxGlH6BESE[] = {
/* columns rows colors chars-per-pixel */
"64 64 183 2 ",
"   c None",
".  c #010101",
"X  c #070909",
"o  c #0B0B0C",
"O  c #090806",
"+  c #110E0A",
"@  c #13110D",
"#  c #1C170D",
"$  c #0D0F11",
"%  c #0E1113",
"&  c #131313",
"*  c #1A1515",
"=  c #1A1816",
"-  c #131718",
";  c #151A1C",
":  c #1B1B1B",
">  c #191718",
",  c #251D10",
"<  c #211E1C",
"1  c #201618",
"2  c #211A0F",
"3  c #2D2314",
"4  c #22201D",
"5  c #3E311C",
"6  c #312716",
"7  c #191F21",
"8  c #2B1F21",
"9  c #1D2426",
"0  c #1E2629",
"q  c #222323",
"w  c #292622",
"e  c #20272B",
"r  c #232B2E",
"t  c #2B2B2C",
"y  c #2E2A26",
"u  c #312D29",
"i  c #362529",
"p  c #36322D",
"a  c #252D31",
"s  c #273135",
"d  c #2B3135",
"f  c #2C363B",
"g  c #2F393E",
"h  c #333434",
"j  c #3B3B3B",
"k  c #3A3835",
"l  c #42351D",
"z  c #4D3D22",
"x  c #443E38",
"c  c #543A3F",
"v  c #564426",
"b  c #4A433D",
"n  c #44403D",
"m  c #6A542F",
"M  c #67522E",
"N  c #6F5831",
"B  c #6C5530",
"V  c #634E2C",
"C  c #323D43",
"Z  c #5B3F45",
"A  c #354146",
"S  c #38464C",
"D  c #3D4B52",
"F  c #4D4D4D",
"G  c #4A4845",
"H  c #534C45",
"J  c #5B534B",
"K  c #404F55",
"L  c #415057",
"P  c #44545B",
"I  c #4F5252",
"U  c #525555",
"Y  c #5A5D5D",
"T  c #565A5A",
"R  c #645C53",
"E  c #6B4951",
"W  c #5C605F",
"Q  c #6C6259",
"!  c #72685E",
"~  c #4B5D65",
"^  c #4E5F68",
"/  c #4E6069",
"(  c #52656D",
")  c #566A74",
"_  c #576A74",
"`  c #5C727C",
"'  c #646767",
"]  c #766B61",
"[  c #796F64",
"{  c #7A7269",
"}  c #767878",
"|  c #6B706F",
" . c #855C65",
".. c #89656A",
"X. c #82776B",
"o. c #857A6E",
"O. c #986A74",
"+. c #8A7C71",
"@. c #967074",
"#. c #A5787F",
"$. c #8E8275",
"%. c #93867A",
"&. c #988B7E",
"*. c #978A7D",
"=. c #5F7680",
"-. c #607781",
";. c #637A84",
":. c #667E89",
">. c #A67880",
",. c #7E8382",
"<. c #6E8793",
"1. c #738E9A",
"2. c #708A96",
"3. c #76919D",
"4. c #68808B",
"5. c #7894A1",
"6. c #7D9AA8",
"7. c #858888",
"8. c #9D8E81",
"9. c #99928A",
"0. c #8E9393",
"q. c #9A9E9E",
"w. c #949A9A",
"e. c #A98585",
"r. c #A29486",
"t. c #A7988A",
"y. c #AA9B8C",
"u. c #A69689",
"i. c #AE9F90",
"p. c #B89A94",
"a. c #B48E8E",
"s. c #AFA091",
"d. c #B4A495",
"f. c #BCAC9C",
"g. c #819EAC",
"h. c #82A0AE",
"j. c #86A5B3",
"k. c #89A9B7",
"l. c #8AAAB9",
"z. c #88A7B5",
"x. c #9DA3A3",
"c. c #A1A6A5",
"v. c #A6ADAC",
"b. c #A8ABA9",
"n. c #ADB5B4",
"m. c #B0B8B7",
"M. c #B7B7B7",
"N. c #C1B09F",
"B. c #C4B3A3",
"V. c #CDBBAA",
"C. c #C9B8A6",
"Z. c #D1BEAD",
"A. c #D3C1AF",
"S. c #D7C4B2",
"D. c #D9C6B4",
"F. c #DCC9B6",
"G. c #8FB0C0",
"H. c #92B3C3",
"J. c #97BACA",
"K. c #9ABDCE",
"L. c #9CC0D1",
"P. c #A5CBDC",
"I. c #A1C6D7",
"U. c #BFC7C6",
"Y. c #A7CEE0",
"T. c #AAD1E4",
"R. c #AED7E9",
"E. c #B1DAED",
"W. c #C7C7C5",
"Q. c #CBCBCB",
"!. c #C8CCCA",
"~. c #D3D8D7",
"^. c #D1D0CD",
"/. c #DBE5E4",
"(. c #DFE8E7",
"). c #E5EEED",
"_. c #E9E9E9",
"`. c #EEF8F7",
"'. c #ECF6F5",
"]. c #F4F4F4",
"[. c #F0FAF9",
"{. c #FEFEFE",
"}. c #E7F0EF",
/* pixels */
"                                                                                                                                ",
"                                                              . . .                                                             ",
"                                                            . . . . .                                                           ",
"                                                        . . . a X .                                                             ",
"                                                      . . 9 <.K.7 .                                                             ",
"                                                    . . K L.E.R.f . .                                                           ",
"                                                . . o ( R.E.E.E.P . .                                                           ",
"                                              . . % 3.R.E.E.E.E.P . .                               . . . . . . . . .           ",
"                                            . . 0 6.E.E.E.E.E.E.-.. .                         . . . . O - r s g 7 . . .         ",
"                                          . . ; J.E.E.E.E.E.E.E.g.. .                 . . . . . d ` 5.k.K.P.T.h.; . .           ",
"                                        . . X z.E.E.E.E.E.E.E.E.K.; .             . . . - g _ K.E.E.E.E.E.E.K.9 . .             ",
"                                        . . -.E.E.E.E.E.E.E.E.E.Y.r . .     . . . o L 1.J.R.E.E.E.E.E.E.E.I.S . .               ",
"                                      . . s R.E.E.E.E.E.E.E.E.E.E.P . . . . % f ` P.E.E.E.E.E.E.E.E.E.E.E.D . .                 ",
"                                      . X h.E.E.E.E.E.E.E.E.E.E.E.j.. . X ( G.T.E.E.E.E.E.E.E.E.E.E.E.E.1.. .                   ",
"                                    . . f T.E.E.E.E.E.E.E.E.E.E.E.K.O C H.E.E.E.E.E.E.E.E.E.E.E.E.E.E.K.- . .                   ",
"                                    . . K ;.) / P ^ 6.E.E.E.E.E.E.E.k.T.E.E.E.E.E.E.E.E.E.E.E.E.E.E.K.C . .                     ",
"                                  . . . w n H R R J 4 g l.E.E.E.E.E.E.E.E.E.E.E.E.E.E.E.E.E.E.E.E.T.D . .                       ",
"                              . . . y o.V.F.F.F.F.F.f.J % 5.E.E.E.E.E.E.E.E.E.E.E.E.E.E.E.E.E.E.E.` . .                         ",
"                            . . O J A.F.F.F.F.F.F.F.F.F.{ o <.T.E.E.E.E.E.E.E.E.E.E.E.E.E.E.E.E.k.$ . .                         ",
"                          . . p &.D.F.F.F.F.F.F.F.F.F.F.D.X.X ( R.E.E.E.E.E.E.E.E.E.E.E.E.E.E.H.f . .                           ",
"                        . . 4 8.t.V.F.Z.r.X.%.V.F.F.F.F.F.F.&.= :.E.E.E.E.E.E.E.E.E.E.E.E.E.E.f . . . . . .                     ",
"                        . . + < u t.[ p 9 ^ 0 H F.F.F.F.F.F.F.$.- 5.E.E.E.E.E.E.E.E.E.E.E.E.E.^ P P A f - . . . . . .           ",
"                      . . x d.A.f.x 9 ` T.T.P u F.F.F.F.F.F.F.D.J X L.E.E.E.E.E.E.E.E.E.E.E.E.E.E.E.E.E.E.K.5.^ g - . . . .     ",
"                      . @ r.f.H = L L.E.h.C & d.F.F.F.F.F.F.F.F.d.@ _ E.E.E.E.E.E.E.E.E.E.E.E.E.E.E.E.E.E.E.E.E.R.J.3.( a . . . ",
"                    . . w G : D 6.E.H.) : H N.F.F.F.F.F.F.F.F.F.D.b ; E.E.E.E.E.E.E.E.E.E.E.E.E.E.E.E.E.E.E.E.E.E.E.E.P.3.; . . ",
"                . . . X K ;.H.E.R.` - u y.D.F.F.F.F.F.F.F.F.F.F.F.$.. T.E.E.E.E.E.E.E.E.E.E.E.E.E.E.E.E.E.E.E.E.E.E.1.r O . .   ",
"                . ; 1.T.E.P.h.( 9 j F : R V.F.F.F.F.F.F.F.F.F.F.F.f.. J.E.E.E.E.E.E.E.E.E.E.E.E.E.E.E.E.E.E.E.R.H.P . . .       ",
"                . $ ( H./ a t 7.M.].{.!.t H F.F.F.F.F.F.F.F.F.F.F.F.O 5.E.E.E.E.E.E.E.E.E.E.E.E.E.E.E.E.E.E.T.( % . .           ",
"                . . . t U q.{.{.{.{.{.{.q.. s.F.F.F.F.F.F.F.F.F.F.F.< 4.E.E.E.E.E.E.E.E.E.E.E.E.E.E.E.E.T.1.d . . .             ",
"                  . . ^.} 7.{.{.{.{.{.{.!.X %.F.F.F.F.F.F.F.F.F.F.F.p _ E.E.E.E.E.E.E.E.E.E.E.E.E.E.P.1.g . . .                 ",
"                  . . } . h _.{.{.{.{.{.n.. +.F.F.F.F.F.F.F.F.F.F.V.u ~ J.Y.E.E.E.E.E.E.E.E.E.E.E.P.s . . . .                   ",
"                  . . | M.~.{.{.{.{.{.].F 1 e.F.F.F.F.F.F.F.F.F.r.w & 4 : s 1.E.E.E.E.E.E.E.E.E.E.E.J.<.- . .                   ",
"                  . . o 7.!.].{.{.{.W.' *  .p.F.F.F.F.F.F.F.F.F.Z.d.F.F.S.! 7 j.E.E.E.E.E.E.E.E.E.E.E.E.K.C X . .               ",
"                . . k 8.i > j F T F - i  .#.Z.F.F.F.F.F.F.F.F.F.F.F.F.F.F.d.- ;.E.E.E.E.E.E.E.E.E.E.E.E.E.T.2.% . .             ",
"              . . w d.F.e.O.E E c Z ..O.@.u.8.F.F.F.F.F.F.F.F.F.F.F.F.F.F.o.7 z.E.E.E.E.E.E.E.E.E.E.E.E.E.E.E.6.; . .           ",
"              . . H { b H p.a.>.O.#...8 = < J F.F.F.F.F.F.F.F.F.F.F.F.D.o.= -.E.E.E.E.E.E.E.E.E.E.E.E.E.E.E.E.E.G.e . .         ",
"              . . . . . & i.F.F.F.F.D.B.A.F.F.F.F.F.F.F.F.F.F.F.F.i.Q : e -.R.E.E.E.E.E.E.E.E.E.E.E.E.E.E.E.E.E.E.K.0 . .       ",
"                  .   . . +.F.F.F.F.F.F.F.F.F.F.F.F.F.F.F.F.F.F.F.d.] . l.E.E.E.E.E.E.E.E.E.E.P._ S P / ^ S A f A P S . . .     ",
"                      . . x S.A.V.V.D.F.F.F.F.i.8.Z.F.F.F.F.F.F.F.F.f.. J.E.E.E.E.E.E.E.E.E.E.R.=.o . . . . . . . . . . . .     ",
"                        . O u y w w p x H R u.8.O X.F.F.F.F.F.F.F.F.%.X R.E.E.E.E.E.E.E.E.E.E.E.R.( . .                         ",
"                        . . w t.B.f.*.{ R H ! *.@ $.F.F.F.F.F.F.F.F.b S E.E.E.E.E.E.E.E.E.E.E.E.E.J.- .                         ",
"                          . O [ F.F.F.F.F.F.F.B.d.S.F.F.F.F.F.F.F.%.O l.E.E.E.E.R.` j.E.E.E.E.E.E.R.C . .                       ",
"                            . X H C.F.F.F.F.F.F.F.F.F.F.F.F.F.D.8.& r H.T.E.E.E.l.. . D 1.j.K.R.E.E.;.. .                       ",
"                              . . w +.C.F.F.F.F.F.F.F.F.F.F.t.b o . h : d ( J.E.<.. . . . . ; f D -.5.e .                       ",
"                                . . . + J o.r.d.d.d.t.$.] k O T q.o 7.).q.U q e C . .   . . . . . . . . . .                     ",
"                                    . . . . o = o o q Y 7.0.- Y /.Y : ).[.`.~.m.q . .               . . .                       ",
"                                      . . o n.Y O X d (.[.[.c.X v.(.- 0.[.[.[.[.U.% . .                                         ",
"                                    . . o w.[.Y O o X 0.[.c.: W /.[.7.: (.[.[.[.[.v.. .                                         ",
"                                    . . I ).[.U O & X o m.: } ).[.[.}.: G ).[.`.m.' . . .                                       ",
"                                  . . = < j ' : X & & O q n.`.[.[.[.[.q.X x.q.U & [ [ O .                                       ",
"                                . . @ +.V.+.J : O O O O . h !.`.[.[.[.'.t . w J N.F.f.* .                                       ",
"                                  . . G F.F.F.[ . 3 z z z 3 : ,.}.[.[.[.!.q ] t.D.F.y.X .                                       ",
"                                  . . b 8.&.Q . O v N N N N l + j v.(.[.[.Y . O H +.: . .                                       ",
"                                    . . . . . . 5 B N N N N v @ # + t Y ,.c.v.n.' q . .                                         ",
"                                        . . . O M N N N N z O 3 m N v 6 , + o h | G . .                                         ",
"                                    . . . . . O # 5 m N 5 O . 2 l V N N m , t 0.h . . . .                                       ",
"                                . . . O O . : Q.| k @ 3 . . . . . . 3 z , q W.^.q & q O . .                                     ",
"                              . . . : t t - o F b.Q.q . .         . . . . n c.t & t - . .                                       ",
"                                . . . X : q t - O & . . .             . . . . o t & . .                                         ",
"                                    . . . . o q t o . .                 . . : t : . .                                           ",
"                                          . . . X . .                   . . q q . .                                             ",
"                                              . . .                     . . O O . .                                             ",
"                                                                          . . . .                                               ",
"                                                                                                                                "
};
