/* XPM */
static char *_d283925d9854c4a83c9b2305ffd0993TC0u3Q3Mrmb0QRfR[] = {
/* columns rows colors chars-per-pixel */
"64 64 177 2 ",
"   c None",
".  c #000101",
"X  c #0D0B06",
"o  c #0B0C0C",
"O  c #120F0B",
"+  c #1B160C",
"@  c #0C0F11",
"#  c #0E1112",
"$  c #131313",
"%  c #191514",
"&  c #1B1916",
"*  c #131718",
"=  c #151A1D",
"-  c #1D1D1C",
";  c #171817",
":  c #20190E",
">  c #221F1C",
",  c #231A15",
"<  c #25221F",
"1  c #3C301B",
"2  c #191F21",
"3  c #2A1F21",
"4  c #1C2123",
"5  c #1F2629",
"6  c #242525",
"7  c #292623",
"8  c #2D2925",
"9  c #20272B",
"0  c #21292C",
"q  c #2C2C2D",
"w  c #372B2B",
"e  c #38332E",
"r  c #252D31",
"t  c #2F2F31",
"y  c #2C3134",
"u  c #2A3439",
"i  c #2F3A3F",
"p  c #353535",
"a  c #3B3631",
"s  c #3C3E3D",
"d  c #3E3933",
"f  c #41341D",
"g  c #4D3E23",
"h  c #423C36",
"j  c #433D38",
"k  c #544225",
"l  c #5B4828",
"z  c #4A443E",
"x  c #624D2B",
"c  c #6E5731",
"v  c #6F5831",
"b  c #323D43",
"n  c #583D43",
"m  c #354147",
"M  c #3A484E",
"N  c #38444A",
"B  c #3D4B52",
"V  c #474644",
"C  c #524B44",
"Z  c #5E4148",
"A  c #5C544C",
"S  c #46565E",
"D  c #525454",
"F  c #565858",
"G  c #604249",
"H  c #645C53",
"J  c #6F5356",
"K  c #7A545C",
"L  c #6B4951",
"P  c #6E645B",
"I  c #696057",
"U  c #73695F",
"Y  c #4B5D64",
"T  c #4E5F68",
"R  c #4F616A",
"E  c #52656D",
"W  c #576B74",
"Q  c #5D737C",
"!  c #616564",
"~  c #696B6B",
"^  c #796E63",
"/  c #756B61",
"(  c #7A7065",
")  c #6D7171",
"_  c #737575",
"`  c #7A7D7D",
"'  c #747979",
"]  c #825962",
"[  c #846868",
"{  c #85796E",
"}  c #8A7E72",
"|  c #9D7179",
" . c #A4767E",
".. c #8D8175",
"X. c #978A7D",
"o. c #928679",
"O. c #5F7680",
"+. c #617781",
"@. c #637A84",
"#. c #667D88",
"$. c #6A828E",
"%. c #7C8180",
"&. c #6D8691",
"*. c #6F8994",
"=. c #708A96",
"-. c #748F9C",
";. c #77939F",
":. c #7994A1",
">. c #7C99A7",
",. c #828484",
"<. c #8D8D8D",
"1. c #9C8E81",
"2. c #9E9183",
"3. c #8B9190",
"4. c #949696",
"5. c #989A99",
"6. c #AD8487",
"7. c #B38C8D",
"8. c #A29486",
"9. c #A59789",
"0. c #A7988A",
"q. c #A99B8C",
"w. c #AE9F90",
"e. c #AFA091",
"r. c #B3A394",
"t. c #BCAC9C",
"y. c #B7A798",
"u. c #819EAC",
"i. c #82A0AE",
"p. c #9DA3A2",
"a. c #86A5B3",
"s. c #88A7B6",
"d. c #88A8B6",
"f. c #8CADBC",
"g. c #8EB0BF",
"h. c #ACACAB",
"j. c #A2A5A5",
"k. c #ABB2B1",
"l. c #B3BBBA",
"z. c #B9B9B9",
"x. c #C1AD9F",
"c. c #C0B09F",
"v. c #C5B4A3",
"b. c #C9B8A6",
"n. c #CCBBA9",
"m. c #CDB3A7",
"M. c #D3BCAD",
"N. c #D2C0AE",
"B. c #D6C3B1",
"V. c #D9C6B4",
"C. c #DCC9B6",
"Z. c #8FB0C0",
"A. c #92B3C3",
"S. c #96B9C9",
"D. c #99BCCD",
"F. c #9EC3D3",
"G. c #A0C5D6",
"H. c #A1C6D8",
"J. c #A5CBDC",
"K. c #BFC7C7",
"L. c #AAD2E4",
"P. c #AED6E9",
"I. c #B1DAED",
"U. c #C3CBCA",
"Y. c #CDCDCD",
"T. c #D6D5D3",
"R. c #D2DBDA",
"E. c #DFDFDF",
"W. c #CBD3D2",
"Q. c #D9E2E1",
"!. c #E3ECEB",
"~. c #E5E5E5",
"^. c #EAF4F3",
"/. c #EEF8F7",
"(. c #F0FAF9",
"). c #FFFFFF",
"_. c #F4F4F4",
/* pixels */
"                                                                                                                                ",
"                                                              . .                                                               ",
"                                                            . . . . .                                                           ",
"                                                            . . 4 * . .                                                         ",
"                                                            . . Y J.S X . .                                                     ",
"                                                            . . &.I.I.*.@ . .                                                   ",
"                                                            . . a.I.I.I.G.m . .                                                 ",
"            . . .                                           . . a.I.I.I.I.H.m . .                                               ",
"          . . . o X . . . . . . .                           . o f.I.I.I.I.I.P.-.o . .                                           ",
"          . . . S d.a.:.+.S r # . . . .                     . = F.I.I.I.I.I.I.I.+.. .                                           ",
"            . . X #.P.I.I.I.I.P.S.W i = . . . .           . . i P.I.I.I.I.I.I.I.I.Q . .                                         ",
"              . . # &.I.I.I.I.I.I.I.P.S.+.u o . . . .     . . S I.I.I.I.I.I.I.I.I.P.B . .                                       ",
"                . . . D.I.I.I.I.I.I.I.I.I.I.P.-.0 . . . . . . @.I.I.I.I.I.I.I.I.I.I.J.9 . .                                     ",
"                  . . r L.I.I.I.I.I.I.I.I.I.I.I.I.F.Q = . . X d.I.I.I.I.I.I.I.I.I.I.I.+.. .                                     ",
"                    . . E L.I.I.I.I.I.I.I.I.I.I.I.I.I.I.$.. o A.I.I.I.I.I.I.I.I.I.I.I.D.= . .                                   ",
"                      . . Q I.I.I.I.I.I.I.I.I.I.I.I.I.I.I.A.:.L.I.I.I.I.I.P.A.-.+.*.:.d.b . .                                   ",
"                      . . o i.I.I.I.I.I.I.I.I.I.I.I.I.I.I.I.I.I.I.I.I.I.J.m o a A C j < . . . .                                 ",
"                        . . 4 S.I.I.I.I.I.I.I.I.I.I.I.I.I.I.I.I.I.I.I.>.# h v.C.C.C.C.C.v.{ $ . .                               ",
"                          . . i G.I.I.I.I.I.I.I.I.I.I.I.I.I.I.I.I.I.s.. H B.C.C.C.C.C.C.C.C.N.a X . .                           ",
"                            . . M I.I.I.I.I.I.I.I.I.I.I.I.I.I.I.P.=.o / C.C.C.C.C.C.C.C.C.C.C.V.0.> . .                         ",
"                          . . . . =.I.I.I.I.I.I.I.I.I.I.I.I.I.I.-.o H B.C.C.C.C.C.C.r.o.b.C.C.V.b.q.- . .                       ",
"                . . . . . . . . o = I.I.I.I.I.I.I.I.I.I.I.I.I.f.* U C.C.C.C.C.C.C.j o r $ < X.} 7 % o . .                       ",
"          . . . . X 0 W &.:.u.a.g.S.I.I.I.I.I.I.I.I.I.I.I.I.L.m z N.C.C.C.C.C.C.C.% b J.Z.@.$ A r.y.1.A . .                     ",
"    . . . X 0 E d.L.I.I.I.I.I.I.I.I.I.I.I.I.I.I.I.I.I.I.I.I.a.% r.C.C.C.C.C.C.C.C.2.O b S.I.D.u $ A x.n.o . .                   ",
"  . . 4 Q a.J.I.I.I.I.I.I.I.I.I.I.I.I.I.I.I.I.I.I.I.I.I.I.I.M a B.C.C.C.C.C.C.C.C.C.w.C 2 Y L.J.u.b > z & . .                   ",
"  . . . * &.P.I.I.I.I.I.I.I.I.I.I.I.I.I.I.I.I.I.I.I.I.I.I.P.. P C.C.C.C.C.C.C.C.C.C.C.V.q.a @ $.H.I.D.=.b # X . .               ",
"      . . X m a.I.I.I.I.I.I.I.I.I.I.I.I.I.I.I.I.I.I.I.I.I.F.. { C.C.C.C.C.C.C.C.C.C.C.B.^ 7 p 6 0 E A.I.P.S.>.= .               ",
"          . . . b S.I.I.I.I.I.I.I.I.I.I.I.I.I.I.I.I.I.I.I.a.. 8.C.C.C.C.C.C.C.C.C.C.C.^ - j.).).T._ 6 $ Y g.-.@ .               ",
"              . . 4 E L.I.I.I.I.I.I.I.I.I.I.I.I.I.I.I.I.I.-.X w.C.C.C.C.C.C.C.C.C.C.n.8 ,.).).).).).~.k.D 6 o . .               ",
"                . . . r :.G.I.I.I.I.I.I.I.I.I.I.I.I.I.I.I.*.o r.C.C.C.C.C.C.C.C.C.C.c.& z.).).).).).).Y.5.E.p .                 ",
"                    . . . 5 Y H.I.I.I.I.I.I.I.I.I.I.I.I.I.Q $ y.C.C.C.C.C.C.C.C.C.C.t.% h.).).).).)._.~ . ` p .                 ",
"                      . . $ E L.I.I.I.I.I.I.I.I.I.I.H.$.S 4 X C e.C.C.C.C.C.C.C.C.C.m.w V ~.).).).).).!.h.4.% .                 ",
"                  . . . S f.I.I.I.I.I.I.I.I.I.I.I.L.B > } 8.8.} r.C.C.C.C.C.C.C.C.C.m.[ % p T.).).).).).4.$ . . .               ",
"                . . # &.I.I.I.I.I.I.I.I.I.I.I.I.I.D.= o.C.C.C.C.C.C.C.C.C.C.C.C.C.C.V.7.] w $ _ <.,.F 7 , [ ^ X .               ",
"              . . u s.I.I.I.I.I.I.I.I.I.I.I.I.I.I.G.4 ^ C.C.C.C.C.C.C.C.C.C.C.C.C.C.n.x.6.| K Z n G L K | B.N.j . .             ",
"            . . r D.I.I.I.I.I.I.I.I.I.I.I.I.I.I.I.I.W X 1.V.C.C.C.C.C.C.C.C.C.C.C.C.H & 7 3 J  . . .6.7.P A { P . .             ",
"          . . 2 Z.I.I.I.I.I.I.I.I.I.I.I.I.I.I.I.I.I.J.B o A r.b.C.C.C.C.C.C.C.C.C.C.V.t.q.9.t.M.M.M.V.C.z . . X . .             ",
"        . . u A.Z.a.a.a.S.F.S.s.a.L.I.I.I.I.I.I.I.I.I.I.D.# % H B.C.C.C.C.C.C.C.C.C.C.C.C.C.C.C.C.C.C.V.& . . . .               ",
"      . . . 2 = o . . . $ 2 $ . . s.I.I.I.I.I.I.I.I.I.I.I.= H C.C.C.C.C.C.C.C.C.B.b.C.C.C.C.C.C.C.C.C.y.. .                     ",
"        . . . . . . . . . . . $ $.I.I.I.I.I.I.I.I.I.I.I.I.u e V.C.C.C.C.C.C.C.C.7 j B.8.} ( H d e a C 8 . .                     ",
"                          . . R I.I.I.I.I.I.I.I.I.I.I.I.I.T % t.C.C.C.C.C.C.C.C.o U y.> w z H X.9.1.C . .                       ",
"                          . o f.I.I.I.I.I.I.I.F.L.I.I.I.I.D.@ H V.C.C.C.C.C.C.C.q...C.C.C.C.C.C.C.r.& . .                       ",
"                        . . 4 H.I.I.I.I.I.J.O.4 =.I.I.I.I.I.&.$ 0.C.C.C.C.C.C.C.C.C.C.C.C.C.C.C.v.e . .                         ",
"                        . . Y L.D.>.@.Y 9 . . . m F.I.G.;.S 5 4 - I q.V.C.C.C.C.C.C.C.C.C.C.t.H $ . .                           ",
"                        . . N i = . . . . . . . y :.R 4 . D l.R.4.X o A 8.t.B.C.C.C.C.v.1.H & . . .                             ",
"                      . . . . . . .         . . . o ! ` . R.(.(.U.# . q q X X % & & $ . . . . .                                 ",
"                          .                   . . ` ^.V y (.(.(.U.$ F ^.(.!.V . o . . . .                                       ",
"                                              . . j.W.; %.(.(.(.R.- p ^.(.U.o o $ . .                                           ",
"                                              . o k.k.. l.(.(.(.R.- X s !.D X $ $ . .                                           ",
"                                              . s R.' . !.(.(.(.R.- ) ,.) . o $ $ . .                                           ",
"                                            . . 3./.! - l.U.R.^.R.4 _ _ . o o o o . .                                           ",
"                                            . . k.(.5.. 8 % . . . . X . + X . . . . .                                           ",
"                                          . . $ ^.(.l.. X.C.B.v.0.% X x c , . . .                                               ",
"                                          . . D (.(.Q.6 d C.C.t.j o + v x X . .                                                 ",
"                                          . . ~ K.p.! 4 . w ..A X f l v 1 . .                                                   ",
"                                          . . ; o . . . . . . O g c v v : . .                                                   ",
"                                          . . . .         . . + k k k g . .                                                     ",
"                                                          . . . 8 s p 6 . .                                                     ",
"                                                          . . o h.T.T.4.. . . .                                                 ",
"                                                          . . . ; - - % . o . . .                                               ",
"                                                          . . % q q q q q t - X .                                               ",
"                                                          . . X o X X o o o o X . .                                             ",
"                                                            . . . . . . . . . . .                                               ",
"                                                                                                                                "
};
