/* XPM */
static char *_914085252734b43cfb9179253d1becfFCAQvBgBFCXNGHxw[] = {
/* columns rows colors chars-per-pixel */
"64 64 256 2 ",
"   c #278B0C",
".  c #2B930E",
"X  c #2D8D1A",
"o  c #2A8B16",
"O  c #328E1B",
"+  c #2D9214",
"@  c #2E911A",
"#  c #2A9C16",
"$  c #35941B",
"%  c #39961C",
"&  c #36991B",
"*  c #399B1C",
"=  c #339816",
"-  c #37A31B",
";  c #3BA31C",
":  c #3CAB1C",
">  c #36A716",
",  c #3CB31C",
"<  c #3BB919",
"1  c #36B00D",
"2  c #3D9A22",
"3  c #3A9324",
"4  c #419C1E",
"5  c #43A41E",
"6  c #42AB1E",
"7  c #4AAB1F",
"8  c #43B41D",
"9  c #43BC1D",
"0  c #48BB1D",
"q  c #53B31F",
"w  c #449D25",
"e  c #489C32",
"r  c #4CAB22",
"t  c #45A523",
"y  c #56AC23",
"u  c #4ABB21",
"i  c #48B621",
"p  c #53B322",
"a  c #58B924",
"s  c #53AF37",
"d  c #67BA27",
"f  c #71B01E",
"g  c #3CC419",
"h  c #3DD318",
"j  c #35CF0D",
"k  c #3DE314",
"l  c #3CE30D",
"z  c #42C41D",
"x  c #43CC1D",
"c  c #48C51C",
"v  c #45D31E",
"b  c #44DC1C",
"n  c #4ADC1D",
"m  c #4BD31C",
"M  c #52D81A",
"N  c #43E415",
"B  c #45E41C",
"V  c #4AE51D",
"C  c #4BE91D",
"Z  c #48E818",
"A  c #52E61E",
"S  c #54EA1C",
"D  c #5BED1B",
"F  c #57EB16",
"G  c #5AF219",
"H  c #49ED13",
"J  c #6CED1B",
"K  c #63ED1B",
"L  c #77EE1C",
"P  c #69F21D",
"I  c #76F21B",
"U  c #4BC321",
"Y  c #4CCA23",
"T  c #51CD22",
"R  c #59C524",
"E  c #4DDA21",
"W  c #4CD320",
"Q  c #53D422",
"!  c #55DC22",
"~  c #5ADC23",
"^  c #5CD626",
"/  c #65C926",
"(  c #78C829",
")  c #68D726",
"_  c #7CDD2B",
"`  c #74DA2A",
"'  c #69DD39",
"]  c #64C13A",
"[  c #4CE521",
"{  c #4DE922",
"}  c #54E421",
"|  c #5BE423",
" . c #55EA21",
".. c #5CEB23",
"X. c #59E62B",
"o. c #5CF123",
"O. c #58E830",
"+. c #62ED24",
"@. c #6BED24",
"#. c #65ED2C",
"$. c #6CEC29",
"%. c #67E428",
"&. c #73ED25",
"*. c #7CE32B",
"=. c #74ED29",
"-. c #7BEE2A",
";. c #79E827",
":. c #64F324",
">. c #6CF225",
",. c #69F528",
"<. c #74F224",
"1. c #7BF325",
"2. c #74F229",
"3. c #7CF22A",
"4. c #79FA2B",
"5. c #6BED33",
"6. c #66E736",
"7. c #76ED38",
"8. c #78F534",
"9. c #6AD61E",
"0. c #5AA843",
"q. c #6CB554",
"w. c #7BB864",
"e. c #74D24E",
"r. c #6CE646",
"t. c #77E848",
"y. c #7AE656",
"u. c #7CF345",
"i. c #5FCC41",
"p. c #86F41D",
"a. c #95F61A",
"s. c #A8FD1C",
"d. c #86D52B",
"f. c #95DD2D",
"g. c #80D731",
"h. c #84EC2C",
"j. c #86E92B",
"k. c #99EA2C",
"l. c #84F324",
"z. c #8BF425",
"x. c #84F22C",
"c. c #8CF42C",
"v. c #89F82C",
"b. c #92F52C",
"n. c #9CF92C",
"m. c #98F728",
"M. c #87ED36",
"N. c #9AE736",
"B. c #8DF431",
"V. c #87F337",
"C. c #93F532",
"Z. c #9BF532",
"A. c #95F637",
"S. c #A4FA2C",
"D. c #ABFC2C",
"F. c #A5F728",
"G. c #B3FE2D",
"H. c #B3FF27",
"J. c #A8ED38",
"K. c #A3FA31",
"L. c #A8F736",
"P. c #B4FD32",
"I. c #BCFE33",
"U. c #B9FB3B",
"Y. c #A3EE2E",
"T. c #CAFD37",
"R. c #88BE74",
"E. c #88D952",
"W. c #9AEB47",
"Q. c #89F243",
"!. c #99F345",
"~. c #86EB5A",
"^. c #98EC56",
"/. c #99F254",
"(. c #86EF4F",
"). c #A5E949",
"_. c #A5F649",
"`. c #B7F84A",
"'. c #B6EB54",
"]. c #A6F556",
"[. c #BCF557",
"{. c #A9E756",
"}. c #86D665",
"|. c #8FCF77",
" X c #A9DA70",
".X c #89E866",
"XX c #98EB69",
"oX c #99F269",
"OX c #97E876",
"+X c #97F170",
"@X c #B6F567",
"#X c #B5E677",
"$X c #B8F676",
"%X c #A9EC70",
"&X c #AADA5E",
"*X c #CCFA4E",
"=X c #F2FE4C",
"-X c #C8F878",
";X c #CDF86F",
":X c #E2F961",
">X c #838283",
",X c #BBDE84",
"<X c #BAD99C",
"1X c #A9D290",
"2X c #A8ED87",
"3X c #BAF585",
"4X c #ACEB98",
"5X c #B0F18E",
"6X c #B5D7A9",
"7X c #B7D3AE",
"8X c #BCE9AB",
"9X c #9DD987",
"0X c #C2DD98",
"qX c #C9E895",
"wX c #CBF899",
"eX c #D1F78D",
"rX c #C7DEA4",
"tX c #C6D0B9",
"yX c #C8F5A8",
"uX c #D7F6A9",
"iX c #D7E8B9",
"pX c #DAF6B8",
"aX c #C9E8AE",
"sX c #E2FBAA",
"dX c #E4FBB6",
"fX c #F6FCB7",
"gX c #E4FF88",
"hX c #D3DBCA",
"jX c #D5D6D5",
"kX c #DCDCDC",
"lX c #D8D9D7",
"zX c #C9D3C2",
"xX c #DAE8CC",
"cX c #DDF5C7",
"vX c #D7E2D4",
"bX c #E5F9CA",
"nX c #E4E7DC",
"mX c #E6F3D9",
"MX c #F4FACD",
"NX c #DFDBE3",
"BX c #E3DCE8",
"VX c #E3E3E3",
"CX c #ECECEC",
"ZX c #E7E7E9",
"AX c #EDF2EA",
"SX c #F4F5ED",
"DX c #ECE9F3",
"FX c #F2EDF8",
"GX c #F4F4F4",
"HX c #F5F2FA",
"JX c #FBF4FE",
"KX c #FEFEFE",
"LX c #FDFCFD",
"PX c #FBFBF5",
"IX c #EFF0F0",
"UX c #E0E0DD",
/* pixels */
"KXVXCXKXkXKXCXVXKXkXGXGXkXKXVXCXKXkXKXCXVXKXkXGXGXVXKXBXVXmXhXAXlX,X-X#X-X%X%X@X7XHXJXkXKXVXCXKXkXJXCXVXKXkXGXGXkXKXVXCXLXkXKXCX",
"KXVXCXLXVXLXCXVXKXVXGXGXVXKXVXCXLXkXPXCXDXJXZXJXCXjXmX#XW.N.`.J.N.b.z.z.l.I I F.L.qXcXjXJXCXCXLXVXLXCXVXKXVXGXGXVXKXVXCXLXVXLXCX",
"kXGXGXVXKXVXCXLXkXKXCXCXKXkXLXCXVXKXBXDXiXqXuX0X{.N.F.z.z.A.eXn.n.Z.L.z./.3Xc.b.n.z.b.).<XCXHXnXKXkXGXLXkXKXVXCXKXkXLXCXVXKXVXGX",
"kXGXGXVXKXVXCXGXkXKXCXCXKXkXPXHXVXmX,X{.b.z.z.F.p.].uXz.Z.n.c.c.l.U.=XT.:XgXB.L.z.C.C.z.b.W.rXZXKXCXIXGXkXKXCXCXKXkXLXCXVXKXVXCX",
"KXVXCXLXkXLXCXVXKXkXGXGXnXKXZXrX@Xz.`.`.x.C.B.B.l.@XwXp._.-Xz.A.$XZ.I.=X=XT.S.sXeXp.C.C.c.z.j.#X1XzXIXVXKXkXGXGXVXKXVXCXLXkXLXCX",
"KXVXCXKXkXLXCXVXKXkXGXGXBXmX,Xb.z.z.!.!.z.B.c.b.m.B.z.A.V./.z.8.oXB.z.@X-Xm.J _.fX$Xl.v.L._.v.z.m.f >XCXKXkXGXGXkXKXVXCXLXkXKXCX",
"kXGXGXVXKXVXCXGXBXPXCXVXqXY.m.B.B.C.b.b.K.Z.b.b.x.@.@.!.F.l.=.&.F l.I.b.z.!.r.N J.MX-Xa.].].z.v.!.V.r NXZXLXCXCXLXVXGXCXVXKXVXCX",
"kXLXGXkXKXVXGXLXkXKXVX&Xz.z.B.b.K.-.&.S.z.x.%.$.c.C.3.Y.gX`.n.K.x.=.l.-.m.;X~.Z &.[.MX;Xz.x.A.C.A.x.P }.lXKXVXCXKXkXLXCXVXKXkXGX",
"LXCXCXLXVXGXCXZXJXrX).z.C.c.n.D.h.$.-.K.1.3.c.x.@.+.S U R.] @.x.C.3.@.%.h.b.z.z.+.&.$XMXV.D -.Z.x.3.#.@.}.NXGXGXVXLXVXCXGXVXLXCX",
"KXVXCXKXkXKXCXZXuXF.m.B.&.S.T.D.K.*Xc.1.3.+...C Z B C <   @ b V ..-.B.2.Z B $.K.G.-.I {.A.K S D D S ..M.I }.JXJXlXKXVXCXKXkXKXCX",
"VXGXGXVXLXVXHXiXJ $X_.S W.T.b.@.>.+.k B V A B v < W x z : z C z , , R ` ^ b C ..x.b.A.;.R =.c Q 2XbXu.<.C.+.}.vXJXVXGXCXVXLXVXCX",
"jXLXGXkXKXUXCX^.G !.+.%.MX!.D $.2.+.| S o.x = $ * ; ; B C C C V V V C E 8 : 9 W :.>.-.>.|  .> 3 9X<Xs -.C.B.I %.8XNXLXCXkXKXkXGX",
"GXCXCXGXVXJXaXD 3.x.k c.@Xx.c.c.b.C.C.;.a u ` ! C C { B v B x : z V +. .E $ O * 0 | :.:.,.:.*.r   . o / !.B.C.1.%.ZXFXCXGXVXGXCX",
"KXVXCXKXlXJXXXD C.| ..m.z.c.z.U.L.-.a * X r / 0 < n z $ $ - & O : 3.C.b.` 5 $ $ $ $ U ~ ~ ,.:.%.Q : $ t C.C.c.C.z.%XtXFXLXlXKXCX",
"CXGXCXCXGXnX=.1.C.&.z.Z.C.b.T.U./ * O X $ * p d.( $ * * ; ; 7 5 5 ) >.$.v.C.*.r $ % $ : * i : } 9 * $ $ / ) C.U.x.F.D.rXFXGXCXCX",
"jXLXGXlXKX<Xz.C.z.%X;XT.c.I.N.: O $ $ d f.P.T.( = z E E ! ! ;.$.=.=.+.B V ^ _ B./ $ $ * 6 O O 6 | * : t 0.+ *.v.+.v.D.F.0XKXkXIX",
"GXCXCXHXxXU.n.B.z.sX;XD.b._ % O ; : ( b.&.n.*.a _ >.>.<.R p u m } Z Z .. .b , ; ` ) ; ; 8 ; $ O T Q > Y q.& / / U.&.B.!.F.iXFXCX",
"KXVXCXGX).n.C.x.L.J.cX$XF - O * B x E V +.@.x.L.U.x.` R p / C.c.b.3Xy.N ....C z X ` ` U 9 U $ $ - ..* < > % ; w B.J ].SX_.J.GXCX",
"CXCXFX#Xz.B.b.F.J.&.pXr.j % * B v x @.x.@.:.>.$.T - X $ ; 8 +.m.b.].bX2XN { V , & $ ` ) ..| * $ $ ! i - v $ + e XXJ ].JXcXs.qXFX",
"jXJXpXz.B.c.L.eXh.B.S b * $ * x z  .>.-.b.) u * X w U } >.4.2.n.*XeX@XfX%X1 v x $ $ 5 ` ..,.: 7 % U Q $ C > 6X0.y z./.LXHX`.J.ZX",
"CXZXW.z.c.z.!.oXc.3.C : $ & $ : B S Z.*Xd @ O $ U $...+.>.-.j.h.Z.eXdX_.pXE.+ B : $ O R :.,.z ) / ; | $ c C e.e # F @XJXLX@Xs.aX",
"KX<XL C.A.wX=.K x...n & $ $ ; B ..+.N.w o ; U ..4.v.v.2.c * ; * - 8 M.1.t.uXf.h.z $ * - +.,.Q ) _ & ..* - S < O 4 ^.yXJXLX@Xs.#X",
"JXOXJ C.7.OX..2.+.o.z $ * $ x +.-.:.9 X U ..,.Q / j./ r , B B & * * = R G 5X$Xp.Q $ T 6 +.:.! / h.$ | i a ..< $ w ).yXJXLX].s.-X",
"lXt.<.A.t.N :... .U * % $ - B 2.@.:.~ ~ :.>._ $ $ $ $ g v z - * h.c.E & m Q.pX..| * | | +.:.| a B.% T ..) Y v $ ; L wXJXSXQ.a.-X",
"vX6.v.l.2Xu.D }  .: $ * $ ,  .%.o.+.:.:...b.y $ * $ ,  .^ * & z %.C.>.g * +.2X#.1.r } :.D :.| 7 v.4 8 8.e.< C * - J pXJXbX@.m.'.",
"8X+.b.@.} #.+.A V : $ * $ 0 ) R :.+.+.@.x.` X * * $ U ,.o.v x , g <.) < & Q :...1.( A 7.t.K ~ $ | 6 = u.|.< { ; - K $XAX^.H n.'.",
"OXK @X6.D :...} } - % $ % k./ | :.+.o.x.Z.p $ * * $ T ,.Y & & % 8 9 4 x * T ,.@.x.D.@XcX%XG ~ 3 OX8 O | m x H : , 5.yX@X3.2Xn.[.",
".XI !. .+.:...2.+.> $ % ) I.=.o.+.:.! _ C.w $ * * $ U ,.x $ $ : ) % , x O ~ :.@.x.J -XKX+XF Q * !.R X | T < i.t > | yXmXQ.XXS.[.",
".X<.3.} +.:.@.C.+.h t t b.G.>.+.+.,.i d.Y.$ * * & $ 6 ! v ; $ = h.) g $ 9 ,.:.>.3.F @XJX~.< Q : h.a O | u   |.hX= | D 7.x.l.D.[.",
"y.1.@.y.5XD 1.C.2.Y ( / g.D.,.| ! ,.- d.( X * * $ $ $ $ * : $ ( K.6 & 9 S +.! <.1.F -XAX%.; ..i h.t & | ; - Y w.2 6 } Z x.B.S.[.",
"t.1.3.X.7...Q.C...) / ` r f.%.! | :.- 5 5 $ $ $ $ $ $ & $ W ! c.C.*.} C o.u U x.3.J ;X5Xz 5 ..i h.$ 6 ~ O z g % w = ~ r...B.S.[.",
"6.3.B.=.D 5.3Xc.{ ^ r / $ ( ) ! h.+.- O $ * $ $ $ $ $ & $ 0  .V %.@.V o.T ; ..c.&.n.L.+.* i Q R ` o U Y O b > w 3 < oXmX[ 1.D.`.",
"#.1.C.2.D 5.@XJ C U % & * f.3.Q c.+.* ; * $ & & $ $ $ $ $ % U } .. .:.| * Q ,.| ;.P.b.8 O T c _ p $ %.; = O.1X$ * | :.5.V ..F.U.",
"5.1.C.@.XXQ.S.^.C T $ $ 4 J.c.0 &.o.* < , $ $ & $ $ $ $ $ X $ ; ^ :...+.+.,.V @.I.P.y $ % E ..h.* *.) $ > #.iX3 8 5.7.F +.B l.U.",
"5.x.A.I uX/.].pXZ ` % $ $ Y.k.O U ,.6 * : $ 5 $ * * % $ t d * o o ` S.@...B B D.P.p $ $ 8  .x.c.*.2.} u ; ..q.o m 2X4X.XD B l.U.",
"#.x.z.@XPX^.Z.7.S j.% & X d.P.% ; 3.R O $ * | 8 $ * % % * ( N.d.d k.1.+...1.P.f.5 @ * O z 2.C.C.v.} :.s T Q X s | 5.t.OXS V z.U.",
"#.x.z.bXJX+Xa.@...*.2 $ $ 5 P.y X p / % % $ ~ :.; $ * $ $ @ 4 d f.Y.;.+.| _ d $ $ * O 6 ..3.c.C.=.:.%.: +.- * AX+XF :.G +. .z.U.",
"5.1.].LXPXoXl.+.>.h.u $ * @ a ( = X ) t $ $ U :.$.p $ * * $ $ @ @ % 4 * * $ @ * $ $ 8 ..>.x.b.x.+.:.+.+.9 $ + e..XD :.:...{ z.'.",
"6.1._.bXeX3.1.D 3.>.=., $ * $ p ` 4 ) R X % * ..>.v.R p h.a $ $ $ $ $ $ $ * * $ ; | :.+.x.C.c.@.+.+.,.Q s % 1 ' AX7.:...V B n.#X",
"r.3.c.c.c.1.-.| x...$. .: $ , $ r % ; ^ $ & $ 8 C V  .Q u *.*./ p 5 * * * % $ * ~ ,.+.x.C.c.+.+.+.,.~ * w.2 r.(.4X+...Z O.2XF.iX",
"~.<.C.!.].l.=.b.x.+.} ..b 9 C : % % o r d $ * $ , B B C B n @.C.C.=.| | ! ! ! ..+.....+.x.>...+.D Q $ $ . e ZX5.H V B V [ V.J.AX",
"4XJ C.A.A.b.@.+.c.1. .V C C C v 4 w d.d.$ * * $ X * n C V C B | { V C C C C C V V C C x : U +.,.OXO R p @ i .XV V V [ V B p.&XDX",
"xX+.v.c.c.C.>.V A ..+.b R S } C , O / f.d.* 9 i d $ x C B [ V B V V V V V V V V n z : * O - ,.Q 0._ B.t * F N A V V 4X[ K m.pXFX",
"BXe.>.c.c.x.V ..V B A | 7 _ V V B z h + ;.j.p ` ( $ ; v { { C V B B B V V V V B & O $ $ 8 ..Q i ;.*.* % W._.-.=. .B 6.{ m.W.kXGX",
"BX6XK _.A.%.B ..V V B ..x y ! C V C C n b 4.j.k.j.u 9 U Q m b A z.x.=.V B V V B 9 ; * T ,.2.` ` i @ $ 1 5XwXp.2. .V N -.F.eXNXAX",
"GXDX' 3X$XJ l 6.OXN [ B +.9 u  ...B V C V C x * _ R c ~ i t ; ; y i U W { C C C B [ :...T i t $ $ & 2 h yXuXz.3...+.} -.S.iXHXCX",
"KXDX7X5.V.l.r.y.6.C Z B D $.> n ..V V V V V V v c _ / 6 ; i * * @ U | Q 9 < , : $ ; 8 & $ $ $ * $ $ + < %X3Xc.x.+.:. .D '.jXKXCX",
"CXAXFX|.F 3.6.X.l t.O.Z B C e.t.1.V B [ V V V C V x ` _ * $ $ $ % $ & $ $ $ $ $ $ $ $ * * * * $ * j |. Xp.z.c.L.1...V L qXFXCXCX",
"jXLXGXBXOXF ..V l 5XyXl { l 4X~.J | +.V B V V V V C b 9 % $ & $ $ % $ % & & & * & * $ . $ & $ & v N +X].z.C.c.Z.3. .V k.hXKXkXGX",
"CXCXCXIXZXOXD ..l 4XKX2Xk { [ B B A &.c.+.V B V V V C V x ; O $ $ % $ & $ $ & $ & = s |.$ $ & x z < r.!.z.B.B.C.2.B J [.CXCXCXCX",
"KXVXCXKXkXJX6X%.H 8XLX+XN V V V V A ..A $.h.@.V C B B B C B < ; % $ $ $ % * $ 2 2 . q.cX2 $ w w & M wX$Xl.C.x.>.} } F.iXKXjXKXCX",
"GXCXCXGXCXIXJX7X| 5.5.D ..V V V V x.B.@.@.A A ! b $.h...n n } i X * * $ $ = + R.q.  2 3 $ * e w h 3.C.B.B.C.$.V  .I -XFXIXCXGXCX",
"jXLXGXkXKXkXAXJX|.G +...:.+.V V ..S 3.x.&.3.! = |.pXl.@.V ! d.d.d + + $ e 0.+ e * : $ . n B v ) x.S.n.c.l.&.} S D }.GXGXkXKXkXGX",
"CXGXGXCXGXCXCXGXkX' ~.XXG :.+.A V  ...2.$.Z r.xXPXbX&.Z ..~ y j.I.&X0.+ e 0.6XVXY N s |.Z +.x.b.n.I.S.B.uXy.H e.7XZXGXCXCXGXCXCX",
"KXVXCXKXjXKXCXUXKX1X+.(.D :.:.:.Z V V V +.F OXKX1Xs n V  .1.z.K.L eXwX9.R R uXKXoXJ !.$X-.C.c.Z.*XP.<.7.cX5.~.VXZXKXkXCXKXjXKXCX",
"GXCXCXGXVXGXCXCXGXZX~.G #.+.+.#.(.c.-.V B Z y.OXj h B V K (.XXz.z.b.Z.S.D.dXeXdX].z.c.l.C.B.l.;XSXP.+.+.D t.CXGXVXGXCXCXGXVXGXCX",
"jXLXGXkXKXkXGXLXlXKXhX^ G #.F 2XMXl.C.x.A Z N l  .$.3.A.U.`.*XH.I.eXU.P.H.;XJXdXD.L.L.S.Z.C.m.eXsXm.+.:.%.ZXCXVXKXkXKXCXkXKXkXGX",
"VXGXGXVXLXVXCXGXVXGXDXzXy.D D ~.].z.c.C.c.@.+.=.v.C.z.bXmX@.F.P.P.;XP.G.P.H.sXwXs.;X*XH.I.I.H.sX-XI o.D 6XJXZXCXGXVXGXCXVXLXVXCX",
"KXVXCXKXkXKXCXVXKXkXGXJXlXOX..G c.z.$X3Xl.B.C.b.B.B.z.uXcX..=.P.G.H.P.P.P.G.G.G.G.K.S.G.S.K.F.@X/.F K XXJXkXGXGXkXKXVXCXKXkXKXCX",
"LXCXCXLXVXGXCXVXLXVXGXGXVXJX7X' >.I ].*Xb.L.c.c.c.B.c.A.A.x.x.K.P.P.G.G.D.P.Z.b.P.K.c.S.K.x.$.D G $. XVXLXVXGXGXVXLXZXCXGXVXLXCX",
"kXPXGXkXKXVXGXLXlXKXVXCXKXlXJXVX1X6.p.K.L.fX!.c.Z.B.3.b.b.C.C.b.P.I.H.;X3X<.Z.n.C.x.<.+.P m.p.;.#XhXHXLXkXKXVXCXKXkXLXCXVXKXkXGX",
"kXGXGXVXKXVXCXGXVXLXCXCXLXVXGXGXDXVX'.L D (.=.I 1.>.F 1.3.+.#.@.x.Z.1.Q.t.@.x.K D p.M.M.W.qXrXhXJXZXAXGXVXLXCXCXLXVXGXCXVXKXVXCX",
"KXVXCXKXkXLXCXVXKXkXGXGXkXKXVXCXPXVXAXiX1X^.{.^.;.Q..XM.m.m.z.@.D D D D L P &.). XqXnXUXLXDXFXKXkXLXCXVXKXkXGXGXkXKXVXCXLXkXLXCX",
"KXVXCXKXkXKXCXVXKXkXGXGXkXKXVXCXLXkXKXFXZXKXBXGXiXjXKXjXiXdX,X`._.A.{.<XpXaX7XGXBXHXLXkXKXVXCXLXkXJXCXVXKXkXGXGXkXKXVXCXLXkXKXCX"
};
