/* XPM */
static char *_394a2dea4af4e29fd5d81d3b3d5ccd4rqEUDJGzGpWxPBso[] = {
/* columns rows colors chars-per-pixel */
"64 64 256 2 ",
"   c #278B0C",
".  c #2B930E",
"X  c #2D8D1A",
"o  c #2A8B16",
"O  c #328E1B",
"+  c #2D9214",
"@  c #2E911A",
"#  c #2A9C16",
"$  c #35941B",
"%  c #39961C",
"&  c #36991B",
"*  c #399B1C",
"=  c #339816",
"-  c #37A31B",
";  c #3BA31C",
":  c #3CAB1C",
">  c #36A716",
",  c #3CB31C",
"<  c #3BB919",
"1  c #36B00D",
"2  c #3D9A22",
"3  c #3A9324",
"4  c #419C1E",
"5  c #43A41E",
"6  c #42AB1E",
"7  c #4AAB1F",
"8  c #43B41D",
"9  c #43BC1D",
"0  c #48BB1D",
"q  c #53B31F",
"w  c #449D25",
"e  c #489C32",
"r  c #4CAB22",
"t  c #45A523",
"y  c #56AC23",
"u  c #4ABB21",
"i  c #48B621",
"p  c #53B322",
"a  c #58B924",
"s  c #53AF37",
"d  c #67BA27",
"f  c #71B01E",
"g  c #3CC419",
"h  c #3DD318",
"j  c #35CF0D",
"k  c #3DE314",
"l  c #3CE30D",
"z  c #42C41D",
"x  c #43CC1D",
"c  c #48C51C",
"v  c #45D31E",
"b  c #44DC1C",
"n  c #4ADC1D",
"m  c #4BD31C",
"M  c #52D81A",
"N  c #43E415",
"B  c #45E41C",
"V  c #4AE51D",
"C  c #4BE91D",
"Z  c #48E818",
"A  c #52E61E",
"S  c #54EA1C",
"D  c #5BED1B",
"F  c #57EB16",
"G  c #5AF219",
"H  c #49ED13",
"J  c #6CED1B",
"K  c #63ED1B",
"L  c #77EE1C",
"P  c #69F21D",
"I  c #76F21B",
"U  c #4BC321",
"Y  c #4CCA23",
"T  c #51CD22",
"R  c #59C524",
"E  c #4DDA21",
"W  c #4CD320",
"Q  c #53D422",
"!  c #55DC22",
"~  c #5ADC23",
"^  c #5CD626",
"/  c #65C926",
"(  c #78C829",
")  c #68D726",
"_  c #7CDD2B",
"`  c #74DA2A",
"'  c #69DD39",
"]  c #64C13A",
"[  c #4CE521",
"{  c #4DE922",
"}  c #54E421",
"|  c #5BE423",
" . c #55EA21",
".. c #5CEB23",
"X. c #59E62B",
"o. c #5CF123",
"O. c #58E830",
"+. c #62ED24",
"@. c #6BED24",
"#. c #65ED2C",
"$. c #6CEC29",
"%. c #67E428",
"&. c #73ED25",
"*. c #7CE32B",
"=. c #74ED29",
"-. c #7BEE2A",
";. c #79E827",
":. c #64F324",
">. c #6CF225",
",. c #69F528",
"<. c #74F224",
"1. c #7BF325",
"2. c #74F229",
"3. c #7CF22A",
"4. c #79FA2B",
"5. c #6BED33",
"6. c #66E736",
"7. c #76ED38",
"8. c #78F534",
"9. c #6AD61E",
"0. c #5AA843",
"q. c #6CB554",
"w. c #7BB864",
"e. c #74D24E",
"r. c #6CE646",
"t. c #77E848",
"y. c #7AE656",
"u. c #7CF345",
"i. c #5FCC41",
"p. c #86F41D",
"a. c #95F61A",
"s. c #A8FD1C",
"d. c #86D52B",
"f. c #95DD2D",
"g. c #80D731",
"h. c #84EC2C",
"j. c #86E92B",
"k. c #99EA2C",
"l. c #84F324",
"z. c #8BF425",
"x. c #84F22C",
"c. c #8CF42C",
"v. c #89F82C",
"b. c #92F52C",
"n. c #9CF92C",
"m. c #98F728",
"M. c #87ED36",
"N. c #9AE736",
"B. c #8DF431",
"V. c #87F337",
"C. c #93F532",
"Z. c #9BF532",
"A. c #95F637",
"S. c #A4FA2C",
"D. c #ABFC2C",
"F. c #A5F728",
"G. c #B3FE2D",
"H. c #B3FF27",
"J. c #A8ED38",
"K. c #A3FA31",
"L. c #A8F736",
"P. c #B4FD32",
"I. c #BCFE33",
"U. c #B9FB3B",
"Y. c #A3EE2E",
"T. c #CAFD37",
"R. c #88BE74",
"E. c #88D952",
"W. c #9AEB47",
"Q. c #89F243",
"!. c #99F345",
"~. c #86EB5A",
"^. c #98EC56",
"/. c #99F254",
"(. c #86EF4F",
"). c #A5E949",
"_. c #A5F649",
"`. c #B7F84A",
"'. c #B6EB54",
"]. c #A6F556",
"[. c #BCF557",
"{. c #A9E756",
"}. c #86D665",
"|. c #8FCF77",
" X c #A9DA70",
".X c #89E866",
"XX c #98EB69",
"oX c #99F269",
"OX c #97E876",
"+X c #97F170",
"@X c #B6F567",
"#X c #B5E677",
"$X c #B8F676",
"%X c #A9EC70",
"&X c #AADA5E",
"*X c #CCFA4E",
"=X c #F2FE4C",
"-X c #C8F878",
";X c #CDF86F",
":X c #E2F961",
">X c #838283",
",X c #BBDE84",
"<X c #BAD99C",
"1X c #A9D290",
"2X c #A8ED87",
"3X c #BAF585",
"4X c #ACEB98",
"5X c #B5F396",
"6X c #AEF08A",
"7X c #B5D7A9",
"8X c #B7D3AE",
"9X c #BCE9AB",
"0X c #9DD987",
"qX c #C2DD98",
"wX c #C9E895",
"eX c #CBF899",
"rX c #D1F78D",
"tX c #C7DEA4",
"yX c #C6D0B9",
"uX c #C8F5A8",
"iX c #D7F6A9",
"pX c #D7E8B9",
"aX c #DAF6B8",
"sX c #C9E8AE",
"dX c #E2FBAA",
"fX c #E4FBB6",
"gX c #F6FCB7",
"hX c #E4FF88",
"jX c #D3DBCA",
"kX c #D5D6D5",
"lX c #DCDCDC",
"zX c #D8D9D7",
"xX c #C9D3C2",
"cX c #DAE8CC",
"vX c #DDF5C7",
"bX c #D7E2D4",
"nX c #E5F9CA",
"mX c #E4E7DC",
"MX c #E6F3D9",
"NX c #F4FACD",
"BX c #DFDBE3",
"VX c #E3DCE8",
"CX c #E3E3E3",
"ZX c #ECECEC",
"AX c #E7E7E9",
"SX c #EDF2EA",
"DX c #F4F5ED",
"FX c #ECE9F3",
"GX c #F2EDF8",
"HX c #F4F4F4",
"JX c #F5F2FA",
"KX c #FBF4FE",
"LX c #FDFCFD",
"PX c #FBFBF5",
"IX c #EFF0F0",
"UX c #E0E0DD",
/* pixels */
"ZXZXHXZXZXZXIXHXZXZXIXHXZXZXZXIXZXZXGXAXsX#X-X-X'.'.[.*X[.[.[.`.U.U.U.U.U.'.#XpXSXFXGXHXSXZXZXZXHXZXZXZXHXZXZXZXHXIXZXZXHXZXZXZX",
"LXPXCXCXLXLXCXlXPXLXCXlXHXLXAXlXJXHXwXJ.s.s.s.a.m.m.n.S.D.S.S.D.S.l.l.z.z.b.n.D.J.&XaXlXBXJXLXZXlXZXLXHXlXAXLXHXlXCXLXPXlXCXLXLX",
"zXCXLXLXlXlXLXLXCXzXPXLXCXzXHXLXpXJ.s.`.@X@X].Q.@.H 2XXXl.B.B.3...B B C  .[ B 2XV.p.m.W.rXpXkXGXLXSXkXAXLXHXkXCXLXPXzXCXLXLXlXzX",
"PXPXCXCXPXPXCXCXPXLXCXlXHXLXGXqXF._.vXPXLXKXPXDXnX/.3.Q.x.x...[ Z ..D C +...Z O.[ B K m.F.S.'.wXcXZXLXIXlXAXLXHXlXAXLXHXCXCXPXPX",
"ZXZXIXIXZXZXZXZXZXZXIXIXZXFXtXF.!.DXKXPXKXKXKXKXKXSX@XMX7.H r.MX5.F .X%XD +...Z Z V [ } -.-.D L k.[.pXFXHXZXZXZXIXZXZXZXSXHXZXZX",
"CXCXPXPXCXCXHXPXCXCXHXPXGXyXD.D.B.].]./.@XuXuXeXaX$XuXsXG } ~ oX:.7.4Xt.+.+.:...B [ 4X6.N }  .[ V J F.-XHXHXmXAXLXHXCXCXPXPXCXCX",
"LXLXlXlXLXLXCXzXPXLXCXBXAX%XF.c.=.J J z.F ^.).L J K 5.| | 6 = < | 5.2X5.F D 7.+.V V V B V +.:... .B } I }.AXLXHXzXCXLXLXlXCXLXLX",
"lXCXLXLXCXBXLXLXCXlXKX9X%.z.x.+.U.B.XXy # 2 w ; - - , - = 2 w 3 & 8 m | +X.XSX5XH V V  .S ..+.3.3.=.}  .D 8XAXCXLXHXlXCXLXLXlXlX",
"HXHXAXAXHXHXAXAXHXKXbX%.1.C.U.b./ w e 0.e O $ O & : : t jXw.% w $ 3 o s SXe.r.~.5.V V <.2.2.x.L.Z.C.@.V S e.CXHXCXAXHXHXAXAXHXHX",
"HXHXAXAXHXHXAXCXHXKX}.I C.c.C.*./ ; + 7Xe.< < v C { H i.|.Y g > 0XpXq.O & + 1 r.CX.XN -.p.z.c.c.c.B.x.@.} H ~.ZXZXAXHXHXCXAXHXHX",
"lXCXLXLXlXlXPXLXBX}.+.B.B.C./ + & % $ , C S } Y < < x <   - z n O.O...T ; $ % 2 e i S _.eXiX3Xz.C.B.C.C.&.y.5.t.CXKXlXCXLXPXlXlX",
"LXLXlXlXLXLXAXzX}.I C.C.!.C./ 0.q.> v C z - a ) e.|.m T u ; O O = > : T +.9 s w.. $ * W.6XuX%Xp.z.c.l.B.l.iXvXD %.7XKXLXlXCXLXLX",
"CXCXPXHXCXZXBX}.@.V.<.<./ 7 $ t Y < - $ $ * i ..8.u.| | | | ~ Y ; $ u s : +.Q & $ p t % 1 h <  X].!.$XB.x.B.7.+.:.D XXCXPXHXCXCX",
"ZXZXHXIXIX>Xr P #...u.s o $ % : > & i Q | ..| T 8 = O X O & 6 U %.) } :.%...:.~ $ / B.* $ 2 + |.+Xr.eXC.n.S.<.+.+.o.K  XJXSXZXZX",
"LXPXlXZXxXf V.x.3.S nX<X. : & & Q ..! U : & $ % 4 6 8 R a t % o $ *.2.} :.:.+.:.T O _ *.@ & $ j N < M 3.S.I.P.P.m.I F $.jXAXPXKX",
"zXCXLXLX1Xm.!.A.x.D 6X0X  Q z | T ; $ * / _ h.B.c.| OX!.h.h.h.` p & j.c.=.:...+.D OX0.;.p $ % * m z & h x.n.*XPXdX-X/.G #XKXlXzX",
"LXPXmXAX#Xz.c.C.Z.D Q 3 r %.} 6 O % % 7 ) ) / a 7 $ 3 & : i i R _ h.x.C.C.x.@.+.+.,.Q p ` $ & % & x w w ) c.K.;XrXdX@XD =.jXLXLX",
"AXZXJXtXj.c.z.A.-.S c > *.:.: O % $ & : c Q ! | | ~ ~ Q Q ....Q c ..x.C.c.b.x.+.+.+.:.Q ` t $ & % & t e v x.b.l.m.H.F.$.p.tXGXAX",
"CXAXZXW.z._.].x.D K =. .:.:.i O ; U | :.:.:.:.:.:.K G F , ; t i T E  .2.3.x.C.x.>.U ; ..2.i $ & & % $ - B +.C.B.C.I.K.x.m.wXFXCX",
"LXLX<Xb.c._.].z.V.A.R | :.~ * : 8 0 ..| :.+.+.+.D u.%X+X~.%.z * O % 8 z ..>.x.C.x.: O 8 ,.T $ & $ % 2 $ E Z <.C.Z.I.S.K.P W.PXLX",
"lXkX).c.B.c.a.;XNX{.;.>.:.~ : * ; U ) ` R ; 6 | :.7.vXLXKXSX5X+.8 $ % O 6 ..+.x.@.x & $ T ..& & . |.vX3 . |.$Xl.S.H.G.K.@.M.UXlX",
"KXvXb.C.C.l.-XNX$XI C.-.:.U $ $ : ` ` 5 O * T | } A @X-X@X-X;XP.b.y $ & O 8 :.+...C , $ * :.8 $ $ s q.2 $ s !.c.L.*XK.c.<.M.mXPX",
"KXwXz.C.p.$XNX[.&.-.C.<.| $ % $ ) ` $ $ $ $ $ * r ( D.J F F J n.P.P.p @ & % | :...C z O ; [ ; $ & = . . : N J z.L.;XK.K.M.p.wXJX",
"8XL.n.z.rXgXJ.&.+.P.x.:.0 $ $ / ` X & $ : 9 Q | 3.1.x.x.3.3.3.&.-.I.P.5 $ % ; ~ +.V n & 9 B $ % % % 2 q.* Y oX].D.s.G.P.C.D  XVX",
"@XF.b.L.dX_.N Z z.K...W & $ r B.; g , x B h.p...#...@.@.@.<.x.c.| @.D.k.$ & $ * ..V C V V C : $ % $ 2 R.e CXLXfXfXeXG.b.n.K ).HX",
"%XL c.B.S.J r.~.z.$.C 9 O $ *.` , C Z v + f.$XaX6X:.:.:.:.Q U ..:.V B P.d @ & % ! C V V V C , $ % % $ + + 7XiXrXKXdXH.Z.Z.x.&.8X",
"%XI 3XhXT.m.!.;Xb.B n : $ 5 C.^ b  .{ 1 E.dX6X(.+.Q T ~ :.+.u ; Q :.B <._ $ & % ! C V V V C < $ & % % = 0.s R fX;XH.G.P.<.@.J sX",
"-Xl./.:X=X-Xx.m.h.Z ^ 8 E ` c.V  ...N %XaXt.G m & & & O 9 S o.T * +.....| & % & ! C V V B { 9 $ & % % $ e e R D.H.P.P.D.3Xt.L fX",
"#Xz.z.T.=X@Xb.-.%.2.` E  .b.&.B ..N 2XgX_.1.^ & g < x x $ 9 C ..| +.@.+.+.* % & | C V V V W Q $ % % % % $ + 9.K.P.G.P.G.;XQ.D <X",
"-Xz.L.=XI.m.I.l.@.B.R C +.C.>.+.H y.nX@XfXM.= E >.) 4 , g & } V :...S.1.*.4 $ & | C V B =.U | & $ % % & + 0.eXZ.U.G.P.P.H.l.D {.",
",Xb.Z.P.Z.B.l.&.3.-., V V 3.) =.H 6X].rXrX8 * B.C.<.9 % ) 6 *.@. .:.` k.Y.% $ 5 =.V V B x.p U $ % % % & + &XrXb.rX;XH.P.I.Z.D N.",
"zXN.n.l.$XoXF x.C..., V z : 5 =.} b.b.*XZ.; & M.%.g 8 ) h.D.C.@...^ o d f.@ $ p C.[ V B x.y @ & % % & X d I.L z.I.U.G.P.P.x.D _.",
"SXJ.n.c.A.3.&.K.x.V z V : O 5 $.m c.b.n.h.* & & z , % : = ( c.V  .; o d.d @ $ / C.} B V A ; * % % % ; i d.j.K.z.H.P.P.K.b.@.@.`.",
"jX`.rXc.z.c.=.n.@.n C C x & 7 ;.u C.+.2.j.: V ; & Y & % $ $ !  .U $ & N.4 % $ *.@.B V C n ; * % & O < } d.y z.XX*XF.&.x.b.+.z.,X",
"MXN.A.n.-X/.l.`.] + c C V ; ; ! p / 8 4.-.* V U & v & $ ; : W 0 % X d ( @ $ a *.n B [ { m t i $ % ; V n ! ~ 1.(.`.@...x.C.+.m.fX",
"CXW.z.Z._.A.F.hXR.  : C v $ ; ! R p ; >.>.c , v ^ o.Y x v & $ $ % % t & % * h.u B V V { Q i ; * % x C v V .. .K P.MXvXA.b.3.m.pX",
"VX#Xz.z.p.A.!.Y.U < z V V $ & E <.R $ } +.2.r g  .,.,.,.! $ & & % % $ % % * p Q C V C v U ~ 6 _ 0 V Z ..@.Z V Z A.nXiXA.b.<.M.kX",
"LXMXF.iXeXz.@.3.S C x : { z & E >.` X U ..v./ $ , U T U 6 $ % % % % % % & $ R  .B n x ; 0 c / ` b C B h.z.&.n B 3.c.z.c.3.F .XLX",
"CXkXN.].@XB.@.C.+.B W ; C v $ z >.x.- w $.c.j.$ $ $ $ $ $ % % % % % % & X p b.V B * $ $ u R _ x C V B $.aXnXs h >.C.B.c.c.>.Q.kX",
"HXZX{.p.l.b.x.c.@.Z < & C < ( = ` U.T X U 4./ $ & & & & & % % % % % & $ : %.>.C , X d ( j._ c C V V C b |.PX1Xj  .c.c.c.Z.3.-.pX",
"HXKXqXF.B.b.b.&.x.C v $ ! 0 d.( a L.$.* $ ..Q $ $ & & & % % % % % % % 8 :.:...8 $ $ 8 ` k.* v C V V V ! = cXLXOXk =.C.B.b.I ^.HX",
"zXAXiXz.B.c.b.%.c...V = ` / p T.*.x.>.u X U ,._ y X $ $ % & % % & % ; | ~ U * $ & * 9 p j.x V V V B @.A ! r.OXy.N +.C.x.!.=.{.VX",
"LXKXwXz.C.B.Z.x.3.+.A x u r * P.n.@.:.) @ ; ..>.b.` p t $ X % & % $ % & $ $ % % $ & * j.1.C V V V V h.A 3.Z F Z Z @.B.L.gX(.^.LX",
"CXFXpXb.x.z.D.z.3.3.V o.a X @ f.&.+.@.C.d o U :...x.Z.Z.Y.( 5 $ * , : % & % O % d $ d.;.b V V V B +.@.@.&.$.+.B A c.l.b.L.D 1XFX",
"AXZXFX{.`.!.b.K.K.3.B V ;.* @ d b.V x.3.*Xw X ~ :.@.x._ d.d.5 O : , & O % t R ^ r d.f.+ n C V [ V c.A @.x.=.V V x.C.3X*XK.L pXFX",
"LXPXVX,X`.!.b.&.h.x.k | C.R $ % ( ! @.>.Z.N.9 ~ :.+.o.! i - ; ; * * 6 R / ) ) ; o d./ h C V V B +.&...B.3...V -.C.c.$X].p.'.SXLX",
"zXlXLXMXc.z.C.-.$.*X+.+.C.-.* % : x x  .S +.:.:.+.+.+.:.:.,.:.+.+.o.,.1.p X 4 * * w O z C B V V | A A x.S  .} c.z.z.z.J 6.mXCXzX",
"LXPXCXCX@Xz.C.D.h.K.>.2.b.L./ O ; B v z B ..-.@.o.:.:.+.+.! | h.x.&.U : X & ` r % 4 , V V ....1.J B V V ..V Z (.NX].x.>.1XFXPXLX",
"ZXZXZXJXtXb.B.b.D.D.@.$.c.I.U.: O * V x : V +.2.@.R | o...| ! ! Q 0 O % y ( p % : v C V C  .n t.~.B V V V V +.#.2X~.G ' CXHXZXZX",
"CXCXPXPXAX,Xm.B.n.I.b.D c.b.T.N.% O * * $ ; x B  .) / =.>.,.%.) 3.c.k.P.P.a $ , C C } V ! u > e.5X[ V V V +.:.+.F D ..8XKXHXCXCX",
"LXLXlXlXLXSXY.c.c.S.T.!.x.c.b.I.` - % % & % $ ; , 0 k.I.G.D.f.( f.J.Y.d.5 @ & $ < C S _ y 9 $.C l [ V V ..:.+.+.#.D OXKXlXCXLXLX",
"lXCXLXLXmXVXwXz.C.&.W.NX@Xz.C.c.b.F j & $ % & % $ $ * ) C._ r $ & 4 % X $ & $ : n C R 7 x @.D B [ k N ..:.D D #.G y.zXCXLXLXUXlX",
"HXHXAXAXHXHXCX&Xc.B.S %.c.b.Z.T.D.$Xr.b : & $ % & & % * t / ` / & $ % & % $ ,  ...V n | ..V B Z l 2X+XD ..XX(.G ^ xXKXHXAXAXHXHX",
"HXHXAXAXHXHXZXCX).m._.+.k ..z.;X;XvXaXS C n g & $ % % % t ( / r % $ % * 2 u &.@.|  .@.A B [ Z O.uXLXLX5.+.~.+.~.jXFXHXHXAXAXHXHX",
"lXCXLXLXlXlXPXLXtXF.$X!.x.| &.%XdXJ.&.c.3...o.U : ; - > v Y ) ^ c T ` j.*.h.>...+.3...B V N C t.5X4X9X5.G ' 1XFXLXHXlXCXLXLXBXlX",
"LXLXlXlXLXLXUXlXKXiXJ G 3.C.C.c.z.L.J.h.c.x.+. . .V } +.+.2...{ C C Z S ..>.3.x.x.c.A V C OX6.l l l F | }.zXLXHXzXCXLXLXlXCXLXLX",
"CXCXPXPXCXCXHXPXAXAXpX^.D D 1.C.B.x.S.rXoXK 2.....A } 2.C.C.C.c.J ^.aX7.@.+.D | b.+.V ....6.y.X.V ..%.8XKXHXUXAXLXHXCXAXPXHXCXCX",
"ZXZXHXZXZXZXZXHXZXZXJXZXsXXX7.z.n.C.b.L.!.=...:.K +.....@.3.Q.3X@XK.].Z.a.p.3.-.=.@.$.V B k r.6...D 7XKXSXZXZXZXHXSXZXZXHXIXZXZX",
"LXPXCXCXPXLXCXCXHXLXCXUXKXKXmX<XU.n.B.x.z.eXOXN u.#.:.:.:.D ..5.5.Q././.+XoX3.3.l.c.B.x.@.J l.3.F OXKXSXlXAXLXHXlXCXLXHXCXCXPXLX",
"zXCXLXLXlXlXLXLXCXzXPXLXCXzXHXLXcX).z.C.c.A.7.t.2X} D +.+.5X7.D D XXiXPXKXPXrXc.].A.c.c.A.$XV.F OXAXzXAXLXHXkXCXLXPXzXCXLXLXlXzX",
"LXPXCXCXLXLXCXlXPXLXCXlXHXLXAXlXJXHX#Xz.c.C.C.A.l.@.6. .[ y.| &.2.@.I @XnXPXnXx.!.A.c.c._.3X5.|.VXIXLXHXzXAXLXHXlXCXLXPXlXCXLXLX",
"AXZXHXHXZXAXHXHXZXAXHXHXZXAXZXHXZXZXGXaXW.L J <.c.b.@X!.3.@.3.B.C.C.A.z.c.]._.c.C.C.c.>.K ' 8XGXHXZXAXZXHXHXAXZXHXHXAXZXHXHXZXAX",
"CXCXHXHXCXCXHXPXAXCXHXPXAXCXHXPXZXCXZXKXAX<XOXt.6.+.K I <.1.1.3.1.<.x.x.x.1.3.3.<.J +.e.7XFXFXSXPXIXCXZXPXHXCXAXPXHXCXAXPXHXCXCX",
"LXLXzXlXLXLXlXzXPXLXCXzXHXLXAXkXHXLXZXkXZXLXKXzXzX9XOX.X.Xy.t.6.#.5.5.#.#.5.6.r.~.4XcXVXVXHXLXZXkXZXLXHXkXAXLXHXkXCXLXLXzXlXLXLX"
};
