/* XPM */
static char *be0810e8498e4089b5d307bb33560e28yVuG0xtS9qNGrd4I[] = {
/* columns rows colors chars-per-pixel */
"64 64 256 2 ",
"   c #278B0C",
".  c #2B930E",
"X  c #2D8D1A",
"o  c #2A8B16",
"O  c #328E1B",
"+  c #2D9214",
"@  c #2E911A",
"#  c #2A9C16",
"$  c #35941B",
"%  c #39961C",
"&  c #36991B",
"*  c #399B1C",
"=  c #339816",
"-  c #37A31B",
";  c #3BA31C",
":  c #3CAB1C",
">  c #36A716",
",  c #3CB31C",
"<  c #3BB919",
"1  c #36B00D",
"2  c #3D9A22",
"3  c #3A9324",
"4  c #419C1E",
"5  c #43A41E",
"6  c #42AB1E",
"7  c #4AAB1F",
"8  c #43B41D",
"9  c #43BC1D",
"0  c #48BB1D",
"q  c #53B31F",
"w  c #449D25",
"e  c #489C32",
"r  c #4CAB22",
"t  c #45A523",
"y  c #56AC23",
"u  c #4ABB21",
"i  c #48B621",
"p  c #53B322",
"a  c #58B924",
"s  c #53AF37",
"d  c #67BA27",
"f  c #71B01E",
"g  c #3CC419",
"h  c #3DD318",
"j  c #35CF0D",
"k  c #3DE314",
"l  c #3CE30D",
"z  c #42C41D",
"x  c #43CC1D",
"c  c #48C51C",
"v  c #45D31E",
"b  c #44DC1C",
"n  c #4ADC1D",
"m  c #4BD31C",
"M  c #52D81A",
"N  c #43E415",
"B  c #45E41C",
"V  c #4AE51D",
"C  c #4BE91D",
"Z  c #48E818",
"A  c #52E61E",
"S  c #54EA1C",
"D  c #5BED1B",
"F  c #57EB16",
"G  c #5AF219",
"H  c #49ED13",
"J  c #6CED1B",
"K  c #63ED1B",
"L  c #77EE1C",
"P  c #69F21D",
"I  c #76F21B",
"U  c #4BC321",
"Y  c #4CCA23",
"T  c #51CD22",
"R  c #59C524",
"E  c #4DDA21",
"W  c #4CD320",
"Q  c #53D422",
"!  c #55DC22",
"~  c #5ADC23",
"^  c #5CD626",
"/  c #65C926",
"(  c #78C829",
")  c #68D726",
"_  c #7CDD2B",
"`  c #74DA2A",
"'  c #69DD39",
"]  c #64C13A",
"[  c #4CE521",
"{  c #4DE922",
"}  c #54E421",
"|  c #5BE423",
" . c #55EA21",
".. c #5CEB23",
"X. c #59E62B",
"o. c #5CF123",
"O. c #58E830",
"+. c #62ED24",
"@. c #6BED24",
"#. c #65ED2C",
"$. c #6CEC29",
"%. c #67E428",
"&. c #73ED25",
"*. c #7CE32B",
"=. c #74ED29",
"-. c #7BEE2A",
";. c #79E827",
":. c #64F324",
">. c #6CF225",
",. c #69F528",
"<. c #74F224",
"1. c #7BF325",
"2. c #74F229",
"3. c #7CF22A",
"4. c #79FA2B",
"5. c #6BED33",
"6. c #66E736",
"7. c #76ED38",
"8. c #78F534",
"9. c #6AD61E",
"0. c #5AA843",
"q. c #6CB554",
"w. c #7BB864",
"e. c #74D24E",
"r. c #6CE646",
"t. c #77E848",
"y. c #7AE656",
"u. c #7CF345",
"i. c #5FCC41",
"p. c #86F41D",
"a. c #95F61A",
"s. c #A8FD1C",
"d. c #86D52B",
"f. c #95DD2D",
"g. c #80D731",
"h. c #84EC2C",
"j. c #86E92B",
"k. c #99EA2C",
"l. c #84F324",
"z. c #8BF425",
"x. c #84F22C",
"c. c #8CF42C",
"v. c #89F82C",
"b. c #92F52C",
"n. c #9CF92C",
"m. c #98F728",
"M. c #87ED36",
"N. c #9AE736",
"B. c #8DF431",
"V. c #87F337",
"C. c #93F532",
"Z. c #9BF532",
"A. c #95F637",
"S. c #A4FA2C",
"D. c #ABFC2C",
"F. c #A5F728",
"G. c #B3FE2D",
"H. c #B3FF27",
"J. c #A8ED38",
"K. c #A3FA31",
"L. c #A8F736",
"P. c #B4FD32",
"I. c #BCFE33",
"U. c #B9FB3B",
"Y. c #A3EE2E",
"T. c #CAFD37",
"R. c #88BE74",
"E. c #88D952",
"W. c #9AEB47",
"Q. c #89F243",
"!. c #99F345",
"~. c #86EB5A",
"^. c #98EC56",
"/. c #99F254",
"(. c #86EF4F",
"). c #A5E949",
"_. c #A5F649",
"`. c #B7F84A",
"'. c #B6EB54",
"]. c #A6F556",
"[. c #BCF557",
"{. c #A9E756",
"}. c #86D665",
"|. c #8FCF77",
" X c #A9DA70",
".X c #89E866",
"XX c #98EB69",
"oX c #99F269",
"OX c #97E876",
"+X c #97F170",
"@X c #B6F567",
"#X c #B5E677",
"$X c #B8F676",
"%X c #A9EC70",
"&X c #AADA5E",
"*X c #CCFA4E",
"=X c #F2FE4C",
"-X c #C8F878",
";X c #CDF86F",
":X c #E2F961",
">X c #838283",
",X c #BBDE84",
"<X c #BAD99C",
"1X c #A9D290",
"2X c #A8ED87",
"3X c #BAF585",
"4X c #ACEB98",
"5X c #B0F18E",
"6X c #B5D7A9",
"7X c #B7D3AE",
"8X c #BCE9AB",
"9X c #9DD987",
"0X c #C2DD98",
"qX c #C9E895",
"wX c #CBF899",
"eX c #D1F78D",
"rX c #C7DEA4",
"tX c #C6D0B9",
"yX c #C8F5A8",
"uX c #D7F6A9",
"iX c #D7E8B9",
"pX c #DAF6B8",
"aX c #C9E8AE",
"sX c #E2FBAA",
"dX c #EBFBB7",
"fX c #E4FF88",
"gX c #D3DBCA",
"hX c #D5D6D5",
"jX c #DCDCDC",
"kX c #D8D9D7",
"lX c #C9D3C2",
"zX c #DAE8CC",
"xX c #DDF5C7",
"cX c #D7E2D4",
"vX c #E5F9CA",
"bX c #E4E7DC",
"nX c #E6F3D9",
"mX c #F4FACD",
"MX c #DFDBE3",
"NX c #E3DCE8",
"BX c #E3E3E3",
"VX c #ECECEC",
"CX c #E7E7E9",
"ZX c #EDF2EA",
"AX c #F4F5ED",
"SX c #ECE9F3",
"DX c #F2EDF8",
"FX c #F4F4F4",
"GX c #F5F2FA",
"HX c #FBF4FE",
"JX c #FFFFFF",
"KX c #FDFDFD",
"LX c #FDFCFD",
"PX c #FBFBF5",
"IX c #EFF0F0",
"UX c #E0E0DD",
/* pixels */
"VXKXjXLXVXBXKXjXFXFXjXKXBXVXKXjXLXVXBXKXjXLXGXNXFX7XaXpX<X{.A._.`.,XpXiXkXKXgXiXFXNXKXSXSXKXjXHXVXBXKXjXFXFXjXKXBXVXKXjXKXVXBXKX",
"VXLXjXLXVXBXKXjXFXFXjXKXBXVXLXjXKXDXSXLXUXbXqX X).&.P L D D D D @.z.m.m.M..XQ.;.^.{.^.1XzXCXBXPXVXBXKXjXFXFXjXKXBXVXLXjXKXVXBXKX",
"VXBXKXBXVXFXBXLXVXVXLXbXFXIXCXLXgXrXqXW.M.M.p.D K x.@.t.Q.l.Z.x.@.#.%.3.<.F >.3.I =.(.D 1.'.bXSXIXFXbXLXVXVXLXBXFXVXBXKXBXFXFXjX",
"FXjXKXBXVXLXjXKXVXBXKXjXLXGXlX#X;.p.m.P :.<.M.C.n.Z.<.3X;XH.I.P.b.C.C.b.b.2.c.Z.c.!.dXL.K.p.6.1XBXLXjXKXVXVXKXjXLXFXBXKXjXFXLXjX",
"VXLXBXFXVXBXLXBXFXFXBXLXBX X$.F D $.x.K.K.c.K.P.b.Z.P.D.G.P.P.G.K.x.x.A.A.c.c.c.B.c.L.b.*X].J >.' 7XLXBXFXFXBXLXBXVXFXBXLXVXCXLX",
"VXKXjXKXVXBXKXjXFXFXjXLXXXK F /.@XF.K.S.G.K.K.G.G.G.G.P.P.P.H.G.P.=...xXuXz.B.b.b.C.B.l.3X$Xz.c.G ..OXkXLXFXjXKXBXVXKXjXKXVXBXKX",
"VXBXLXBXFXFXBXFXVXVXLX6XD :.I -XsXH.I.I.H.*X;Xs.wXsXH.P.G.G.;XP.P.F.@.nXvXc.C.c.=.+.@.c.C.c.z.].~.D D y.lXSXFXBXFXVXBXLXBXFXFXBX",
"FXjXKXjXVXKXjXKXBXVXCX%.:.+.m.sXeXm.C.Z.S.L.L.D.dXLX;XH.P.U.eXI.H.*X`.P.A.3.>. .l N B A x.C.l.mX2XF #.G ^ gXKXkXLXFXjXKXjXFXLXkX",
"VXFXBXFXVXVXFXBXFXVXt.D +.+.P.AX;Xl.B.C.l.c.z.].dXeXdXD.K.Z.b.c.z.XX(.K Z B h j OXy.N B V -.c.(.#.+.+.#.G ~.CXFXVXVXFXBXFXVXVXFX",
"VXKXkXKXVXjXKXCXBX~.5.xX7.<.P.*XZ.c.C.-.$X!.J oXKXuXR R 9.wXeXL K.m.1. .V n s 1XKXOXF +.V V V Z +.:.+.D (.+.1XKXUXVXKXkXKXVXBXKX",
"VXVXFXVXVXFXCX7Xe.H y.uXB.S.I.n.b.v.+.Z |.s N Y BX6X0.e + 0.&XG.j.y ~ ..B &.vXPXzXr.Z $.=... .V V +.:.G XX~.' kXFXVXVXFXVXFXFXVX",
"FXjXKXjXFXFX}.D S } &.l.c.S.S.x.) v B E . $ : * e + 0.e $ + + d d.d.! V $.l.pX|.= ! x.&.x.3.S ..V V +.:...+.G |.LXIXjXKXjXFXLXkX",
"VXFXVXIXDX-XI } V $.C.B.B.C.3.h 2 e * $ 3 2   q.R.. = $ & * * X i } n v ..h.$.b ! A A @.$.B.x.V V V V ..D 5.#.| 7XGXFXVXFXVXVXFX",
"VXKXkXKXiXF.} } >.x.C.l.$XwXM & w t $ 2 xXq.. 2 2 $ % % & & & & - < B C B k B C V @.x.$.A ..A V V V V N +XLX8XF %.6XHXjXKXVXBXKX",
"VXVXIXVX[.J B =.C.B.B.c.!.r.< z x & & & |.s + & $ & & & & & & & & O - x V C V V V B V +.c.&.A B B [ [ k 2XKX4Xl ..D OXCXIXVXVXVX",
"FXjXKXzXk.Z  .3.Z.c.C.c.].+XN v & & & & . = * & * & & & % & & & & & & % 0 b C V V V V B V +.| J ~.4Xl [ l yX5Xl V ..F OXNXFXLXkX",
"VXVXDXqXI [ ..3.L.c.z.p. X|.j * & * * * * $ $ & $ $ $ $ $ & $ * & & $ * *.` x V C V V V [ B V 1.t.e.C B B O.t.l X.6.3.S |.DXIXVX",
"VXKXhX'.D  .:.+.3.c.3X%X< + $ $ * $ $ O & 8 ; $ : , , 9 Q | Y @ * * i ; 6 ) _ c v V V V V V V ..M > %.D B B C 6.y.r.l.V.5.7XSXKX",
"VXGXiXS.-.} +...2.z.uXyXh 2 & $ $ t i T ..:.[ B C C C { W U i y ; ; t i ~ c R _ * x C V C V B .. .u 9 +.B [ N OX6.l J $X3X' SXFX",
"IXMXeXF.-.N V A 2.p.wX2X1 $ @ p ` ` 2.,.T * - 9 B V V B V =.x.c.A b m Q U 0 u j.k.j.3.b n C C V C ! y x ..B V C ..B @.A._.P 6XNX",
"FXjXW.m.} 6.B  .<.-._.W.% * *.;.i Q ..8 $ $ O & B V V V V B B B V C { { v ; = ( ` p j.;.+ h z B V A _ 7 | A B V ..V x.c.c.P e.NX",
"DXpXm.K [ 4XV V V N S * t B._ 0.Q :.; O * : z n C V V V V V V V B V [ B C x $ d 8 9 * d.f./ O , C | D R b @...A V >.C.c.c.c.+.zX",
"SX&Xp.B V [ V V V .Xi $ p / O OX,.+.Y : x C C V V C C C C V B [ | B B V V n * X $ * & $ d.d.w 4 v C C C V  .2.c.+.@.c.A.A.C.J 4X",
"CXJ.M.[ Z B V H 5.CXe + $ @ Q D +...>.v.+.....+...! ! ! | | =.C.C.@.n B C B B , $ * $ d r o * % : C < b ..| +.x.b.=.l.].!.c.<.~.",
"iXF.2XO.N ..+.4X(.r.2 w.* ~ :.+.+.+.c.C.x.+.:.~ * & % & & & 5 p / *.*.u Q  .V C 8 $ & % ^ ; * r $ , $ :  .$...x.| -.3.c.c.c.3.r.",
"#Xn.B Z ..K 7.ZX' 1 % s Q :.+.+.@.c.C.x.+.:.| ; $ * * & & = $ $ $ $ a j.p R b.>.+.* % O R ) 4 ` p $ * $ , &.>.3.D 3.3.eXvX/.3.6.",
"'.m.[ ..:.:.D .Xe.+ $ 9 +.+.:.+.x.b.x.>...8 & & * @ $ * * 4 % X X & $ * * O p %.:.U $ & t ) X = ( a @ * $ u h.>.+.l.oXPXLX].1.5.",
"U.z. .+.D +.F +XZX* ; +.: %.:.=.C.c.3...6 O * = $ d _ | +.*.Y.f.d 4 @ & & * O ; :.~ $ * % / p X y P.5 $ & 2 *...@.a.+XLXvXc.x.#.",
"U.z.C Z %Xt.5.| s X T T s :.} c.C.C.2.z O * @ 5 k.P.<...+.1.k.d d.f.( % & & * $ 8 | * & O R 3.; % P.d.@ & 4 j.A 7.Z./.PX@Xz.x.#.",
"U.l.B D .X4X2Xm o q.o.; u } 2.j.c.x. .8 & $ p P.D.B B ..@.S.` o o & d w = % & & & ; & : & 6 ,.Y O k.Y.& & % ` N pX]./.uXI A.x.5.",
"U.l.B ..F r.5.9 3 iXO.> $ ) *.* j...E % $ y P.I.@.V :.+.+...:.^ ; $ X & & & & & & $ $ , , * o.&.0 c.J.4 & $ T B ^.K.Q.XX@.C.<.5.",
"U.S.D Z 5.:.| * $ 9XO.= ; %.$ p _ c T O 8 m.P.-.| :.Q * | :. ...} U % & & & & & & & & * ; * +.c.Q 3.f.* & % U B J @X5.D 2.C.1.#.",
"`.D.3.[ nXoX< 3 w > b O Y U o ` R Q i * +.P.n.&.c...- T ..V @.@.V  .0 $ & & & & & & % $ O * +.h.! ) ( $ / r ^ { c.3X5.D &.B.3.6.",
"[.S.B...r.~ + w % g z O ~ 6 & h.i ..t z 5X;XJ 3.x.Y u o.C } *.C.c.! W $ & & & & & & & 4 5 * :.| ! %.f.r ` / ) ..C.Q...7.X.3.1.t.",
"[.S.B.x.H } 6 2 w.Y - ; | & t h.i ..; %.ZX-XF 3.<.Q +.A 9 & 6 D.( $ : & $ $ & & & * X ( f.- ,.! | ,.D.g./ ( Y 2.C.3.D 5Xy.@.1.y.",
"[.D.l.v.7.G | = gX|.  u | O a h.: Q < ~.LX@XF 3.@.:.:.9 $ g ) h.= $ ; v ! 6 $ & & & $ Y.d.i ,.+...>.G.b.t t h +.C.@.:.+.[ 3.<..X",
"[.S.XXQ.nXyX| - t i.< T | X R !.2 Q F +XKX-XJ x.@.:.~ O x , % ) : & $ x ,.U $ * * $ t Z._ ! :.+...=.I.) * & > +.2...:.+. .!.I .X",
"[.n.2X3.@XyX#., : H x m | O 8 OX3 ~ G %XxX@XD.x.@.:.T & x 4 9 8 % & & Y ,.T $ * * $ p Z.x.o.+.:.| / k.* & & - } } ..:.D 6.@XK OX",
"'.m.H /.ZX$XK - ; { < |.u.= 6 | $ ~ K u.7.A ( 1...:.Q & < ) <.g , x v o.,.U $ * * X ` x.@.+.+.:.R ) 0 $ & & : V A +.#.} @.b.+.8X",
"'.m.$.vXLXpXJ - * C < e.8.8 4 c.6 | :.D :.} r 3.#.2X+.& g >.C.%.z & * ^  ., $ * $ y b...:.:.+.o.%. ., $ * $ :  . .K u.2Xl.c.6.kX",
"-Xa.Q.AXLXwXL ; $ v Y ) ..T % B.a | :.+.| | * | ..pXQ.m & ! B.M.& ; z v g $ $ $ $ _ >.:.~ ~ :.@.2.B ; & & & U  ...:.N t.A.<.t.kX",
"-Xs.].LXLXyX).w $ < } a i | $ h./ ! :.+.6 T = ^ p.$X5XG ^ & * * & B B , r / j./ Q ,...U X 9 :.-.+.x $ * $ g o.+.2...OX7.C.J OXGX",
"#Xs.@XLXLXyX^.2 O < S - * ..& _ ) Q :.+.; * $ z -.f.sXt.1.g.8 ; * ; * c 2.c.c.4...Y - o w N.+...B - & & & n ..x.K =.wXA.C.L <XKX",
"aXs.@XHXLX@XF # e e.C z $ | ; / ) c :.:.R O & : B + E.pX_.dXeXZ.h.j.-.>.+...$.U $ X @ d *XZ.A B : $ & $ : C 3.c.oX!.z.c.c.W.CXVX",
"CXJ.`.GXLX/.c.y 0.6X, C $ Q U * 7 : :...` 5 $ $ x v 1 %XdX@XeX*Xn.2.4.>.} U w X * u ) b.3.>. .z x * & * b } c.h.eXL.c.B.z.pXHXhX",
"DXqXs.xXLX].J XXe + $ v - i ! $ $ & | ..) ` $ & , Z { N 2XvX].b.b.%.8 - = X - T %.>.:.@.x.@.x v B * % j r.pX&.J.S.m.B.z.#XDXVXVX",
"VXFXJ._.AX].J B.w ; % > , * ..; & $ U 9 Y ` ` X z C  . .N y.3Xb.B.C./ p R ` x.U.L.x.$.+.A ! x B * O - F 3XxXJ.L.x.C.n.).FXVXBXKX",
"VXGXiXF.!.B.-.U./ / & q.Y - Q T O & ; 8 ; ; ) ` ; , b  ...Z Z } m u p ^ <.>.>.` a *.n.&.b.( : ; O % _ b.D.;XsXc.B.m.U.zXGXVXVXFX",
"IXjXKX0XF.D.c.+.b.*.+ 0.t : & | 6 O O 6 * $ $ / B.` ^ V B +.=.=.$.;.! ! E E z = ( T.P.f.d & $ O : N.I.c.T.;X%Xc.C.z.<XKXjXFXLXkX",
"VXVXFXDXrXD.F.v.U.C.) / $ & & 9 } : i * : $ % $ r *.C.c.$.>.) 6 5 6 ; ; * * $ ( d.p * $ @ $ * / U.T.b.C.Z.x.&.C.3.=.bXFXVXVXFXVX",
"VXKXkXLXDXtX%Xz.C.c.C.C.t $ : Q %.:.:.~ ~ U $ $ $ = 5 ` b.C.3.: O & * $ $ z n 9 0 / r X * R -.L.I.c.c.z.b...| C.D XXLXkXKXVXBXKX",
"VXFXBXFXVXDXCX%.1.C.B.!./ o     r *.:.:.:.:.| 0 & O $ E  .+.V x : x B v B { C C ! ` u a ;.C.C.b.c.c.M.@Xc.k x.3.D aXHXBXFXVXVXFX",
"FXjXKXjXVXLXMX8X%.I B.C.<.s <X9X3 >  .| >.-.>.:.W 9 : 8 E C Z V V C C C B ; ; & $ = x o.A | +.2.$.D !.mX%.%.!.G ^.VXUXKXjXFXLXkX",
"VXBXLXBXVXFXBXLXcX}.+.C.<.u.vX2XQ c =.R ;.A.b.x...C b ^ ` R < , z C c : z x W , v B A V B k %.>.$.m.T.W.S _.$XJ iXGXBXLXBXFXFXBX",
"VXKXjXKXVXBXKXjXHXHX}.I V...S D D A K A.{.I -.G.K.$.B Z 2.B.-...C b +   < C B Z C ..+.3.3.c.*XK.D.I.S.&.B.m.F.uXCXVXKXjXKXVXBXKX",
"VXLXBXFXVXBXLXBXIXFXMX}.@.#.3.c.Z.-.D V.mX$X&.+.c.c.m.h.%.$.3.C.M.$.] R.U A +.$.x.c.3.3.K.-.$.h.D.n.c.C.c.).rXHXBXVXFXBXPXVXVXLX",
"FXjXKXBXVXLXjXKXVXBXKXkX}.P x.Z.C.A.x.z.;XmX[.&.Z ~.;Xm.3.x.&.x.K.n.`.fXY.3.C.c.&.%.x.z.K.&.-.K.b.B.c.m.&XBXKXjXLXFXBXKXjXFXLXjX",
"VXBXKXBXVXFXBXLXVXVXLXCXMXr V.!.B.c.].].a.-XmXJ.N r.!.c.b.I.x.D &.=.l.F.!.@.$.x.b.b.Z.D.b.b.C.B.B.m.Y.qXBXVXPXBXFXVXBXKXBXFXFXjX",
"VXKXjXLXVXBXKXjXFXFXjXKXVX>Xf m.z.c._.L.c.l.$XdX_.J m.;X@Xm.B.oX3.z./.A.A.c.B.b.b.c.B.c.!.!.z.z.b.,XnXNXFXFXjXKXBXVXLXjXKXVXBXKX",
"VXLXjXLXVXBXKXBXFXFXjXKXBXIXlX1X#Xj.z.c.C.C.p.eXsXS.T.=X=XI.Z.$XA.c.-X_.p.wX@Xl.B.B.C.x.`.`.z.@XrXCXKXbXFXFXjXKXBXVXLXjXLXVXBXKX",
"VXBXKXBXVXFXjXKXVXVXKXjXFXIXVXKXCXrXW.b.c.C.C.z.L.B.fX:XT.=XP.l.c.c.n.Z.c.uX].p.F.z.z.b.{.,XnXBXGXPXjXKXVXVXKXjXLXVXBXKXBXFXFXjX",
"FXBXKXBXVXLXjXKXVXBXKXjXLXFXjXKXbXGXVX6X).b.z.n.c.c.3X/.c.L.Z.n.n.eXA.z.z.F.N.{.0XuXqXiXSXNXKXBXVXLXjXKXVXVXKXjXLXFXBXKXBXFXFXjX",
"VXLXBXLXVXBXKXBXFXFXBXKXBXVXLXBXLXVXVXKXhXxXqXL.F.L I l.z.z.b.N.J.`.N.W.#XnXkXVXHXCXLXSXVXLXjXLXVXBXKXBXFXFXBXKXBXVXLXBXLXVXBXKX",
"VXKXjXLXVXBXKXjXFXFXjXKXBXVXKXjXKXVXBXKXjXHXGX7X@X%X%X-X#X-X,XkXZXgXnXBXNXKXBXFXFXjXKXBXVXKXjXKXVXBXKXjXFXFXjXKXBXVXKXjXKXVXBXKX"
};
