/* XPM */
static char *a6a12b72f8994fafb1837f5259ed10937JINQ4mtaz5NPfTd[] = {
/* columns rows colors chars-per-pixel */
"64 64 256 2 ",
"   c #278B0C",
".  c #2B930E",
"X  c #2D8D1A",
"o  c #2A8B16",
"O  c #328E1B",
"+  c #2D9214",
"@  c #2E911A",
"#  c #2A9C16",
"$  c #35941B",
"%  c #39961C",
"&  c #36991B",
"*  c #399B1C",
"=  c #339816",
"-  c #37A31B",
";  c #3BA31C",
":  c #3CAB1C",
">  c #36A716",
",  c #3CB31C",
"<  c #3BB919",
"1  c #36B00D",
"2  c #3D9A22",
"3  c #3A9324",
"4  c #419C1E",
"5  c #43A41E",
"6  c #42AB1E",
"7  c #4AAB1F",
"8  c #43B41D",
"9  c #43BC1D",
"0  c #48BB1D",
"q  c #53B31F",
"w  c #449D25",
"e  c #489C32",
"r  c #4CAB22",
"t  c #45A523",
"y  c #56AC23",
"u  c #4ABB21",
"i  c #48B621",
"p  c #53B322",
"a  c #58B924",
"s  c #53AF37",
"d  c #67BA27",
"f  c #71B01E",
"g  c #3CC419",
"h  c #3DD318",
"j  c #35CF0D",
"k  c #3DE314",
"l  c #3CE30D",
"z  c #42C41D",
"x  c #43CC1D",
"c  c #48C51C",
"v  c #45D31E",
"b  c #44DC1C",
"n  c #4ADC1D",
"m  c #4BD31C",
"M  c #52D81A",
"N  c #43E415",
"B  c #45E41C",
"V  c #4AE51D",
"C  c #4BE91D",
"Z  c #48E818",
"A  c #52E61E",
"S  c #54EA1C",
"D  c #5BED1B",
"F  c #57EB16",
"G  c #5AF219",
"H  c #49ED13",
"J  c #6CED1B",
"K  c #63ED1B",
"L  c #77EE1C",
"P  c #69F21D",
"I  c #76F21B",
"U  c #4BC321",
"Y  c #4CCA23",
"T  c #51CD22",
"R  c #59C524",
"E  c #4DDA21",
"W  c #4CD320",
"Q  c #53D422",
"!  c #55DC22",
"~  c #5ADC23",
"^  c #5CD626",
"/  c #65C926",
"(  c #78C829",
")  c #68D726",
"_  c #7CDD2B",
"`  c #74DA2A",
"'  c #69DD39",
"]  c #64C13A",
"[  c #4CE521",
"{  c #4DE922",
"}  c #54E421",
"|  c #5BE423",
" . c #55EA21",
".. c #5CEB23",
"X. c #59E62B",
"o. c #5CF123",
"O. c #58E830",
"+. c #62ED24",
"@. c #6BED24",
"#. c #65ED2C",
"$. c #6CEC29",
"%. c #67E428",
"&. c #73ED25",
"*. c #7CE32B",
"=. c #74ED29",
"-. c #7BEE2A",
";. c #79E827",
":. c #64F324",
">. c #6CF225",
",. c #69F528",
"<. c #74F224",
"1. c #7BF325",
"2. c #74F229",
"3. c #7CF22A",
"4. c #79FA2B",
"5. c #6BED33",
"6. c #66E736",
"7. c #76ED38",
"8. c #78F534",
"9. c #6AD61E",
"0. c #5AA843",
"q. c #6CB554",
"w. c #7BB864",
"e. c #74D24E",
"r. c #6CE646",
"t. c #77E848",
"y. c #7AE656",
"u. c #7CF345",
"i. c #5FCC41",
"p. c #86F41D",
"a. c #95F61A",
"s. c #A8FD1C",
"d. c #86D52B",
"f. c #95DD2D",
"g. c #80D731",
"h. c #84EC2C",
"j. c #86E92B",
"k. c #99EA2C",
"l. c #84F324",
"z. c #8BF425",
"x. c #84F22C",
"c. c #8CF42C",
"v. c #89F82C",
"b. c #92F52C",
"n. c #9CF92C",
"m. c #98F728",
"M. c #87ED36",
"N. c #9AE736",
"B. c #8DF431",
"V. c #87F337",
"C. c #93F532",
"Z. c #9BF532",
"A. c #95F637",
"S. c #A4FA2C",
"D. c #ABFC2C",
"F. c #A5F728",
"G. c #B3FE2D",
"H. c #B3FF27",
"J. c #A8ED38",
"K. c #A3FA31",
"L. c #A8F736",
"P. c #B4FD32",
"I. c #BCFE33",
"U. c #B9FB3B",
"Y. c #A3EE2E",
"T. c #CAFD37",
"R. c #88BE74",
"E. c #88D952",
"W. c #9AEB47",
"Q. c #89F243",
"!. c #99F345",
"~. c #86EB5A",
"^. c #98EC56",
"/. c #99F254",
"(. c #86EF4F",
"). c #A5E949",
"_. c #A5F649",
"`. c #B7F84A",
"'. c #B6EB54",
"]. c #A6F556",
"[. c #BCF557",
"{. c #A9E756",
"}. c #86D665",
"|. c #8FCF77",
" X c #A9DA70",
".X c #89E866",
"XX c #98EB69",
"oX c #99F269",
"OX c #97E876",
"+X c #97F170",
"@X c #B6F567",
"#X c #B5E677",
"$X c #B8F676",
"%X c #A9EC70",
"&X c #AADA5E",
"*X c #CCFA4E",
"=X c #F2FE4C",
"-X c #C8F878",
";X c #CDF86F",
":X c #E2F961",
">X c #838283",
",X c #BBDE84",
"<X c #BAD99C",
"1X c #A9D290",
"2X c #A8ED87",
"3X c #BAF585",
"4X c #ACEB98",
"5X c #B0F18E",
"6X c #B5D7A9",
"7X c #B7D3AE",
"8X c #BCE9AB",
"9X c #9DD987",
"0X c #C2DD98",
"qX c #C9E895",
"wX c #CBF899",
"eX c #D1F78D",
"rX c #C7DEA4",
"tX c #C6D0B9",
"yX c #C8F5A8",
"uX c #D7F6A9",
"iX c #D7E8B9",
"pX c #DAF6B8",
"aX c #C9E8AE",
"sX c #E2FBAA",
"dX c #EBFBB7",
"fX c #E4FF88",
"gX c #D3DBCA",
"hX c #D5D6D5",
"jX c #DCDCDC",
"kX c #D8D9D7",
"lX c #C9D3C2",
"zX c #DAE8CC",
"xX c #DDF5C7",
"cX c #D7E2D4",
"vX c #E5F9CA",
"bX c #E4E7DC",
"nX c #E6F3D9",
"mX c #F4FACD",
"MX c #DFDBE3",
"NX c #E3DCE8",
"BX c #E3E3E3",
"VX c #ECECEC",
"CX c #E7E7E9",
"ZX c #EDF2EA",
"AX c #F4F5ED",
"SX c #ECE9F3",
"DX c #F2EDF8",
"FX c #F4F4F4",
"GX c #F5F2FA",
"HX c #FBF4FE",
"JX c #FFFFFF",
"KX c #FDFDFD",
"LX c #FDFCFD",
"PX c #FBFBF5",
"IX c #EFF0F0",
"UX c #E0E0DD",
/* pixels */
"JXJXjXkXPXJXBXhXFXJXVXhXFXJXVXhXVXJXFXNXNXzX4X}.r.6.5.#.#.5.5.#.6.t.~..X.XOX8XkXkXHXJXVXhXVXJXFXhXVXJXFXhXBXJXPXkXMXJXJXjXkXJXJX",
"BXBXFXPXVXBXFXPXVXBXFXPXVXBXVXPXIXSXSX6Xe.+.J <.3.1.1.x.x.x.2.2.3.1.1.<.I K +.6.t.OX<XCXLXVXBXVXPXFXBXVXPXFXBXVXPXFXBXBXFXFXCXBX",
"VXVXFXFXVXVXFXFXVXVXFXFXVXVXVXFXDX7X' K >.c.C.C.c._.].c.z.A.C.C.B.3.@.3.!.@Xb.c.<.J L W.pXDXVXVXFXVXVXVXFXFXVXVXFXFXVXVXFXFXVXVX",
"JXJXBXjXPXJXBXjXFXJXVXkXFXJXIXNX|.5.3X_.c.B.A.!.c.vXPXvX@XI @.2.&.X.y.[  .6.@.l.A.C.C.c.z.#XFXGXkXVXJXFXjXBXJXPXjXBXJXPXBXBXPXJX",
"jXjXJXJXBXkXPXJXBXhXFXJXVXkXCXOXF V.$XA.c.c.A.].c.eXPXLXPXuXXXD D 7.5X+.+.D } 2Xt.7.A.c.C.z.).zXJXFXkXBXJXPXkXBXJXJXjXjXJXJXjXkX",
"JXPXBXBXFXJXBXjXFXJXVXjXFXLXOXF 3.l.J @.x.C.b.l.3.3.oX+X^./.V.5.5...D :.:.:.#.u.N OXwXz.c.B.n.U.<XbXLXHXUXBXJXFXBXBXPXPXBXBXPXPX",
"VXVXVXFXVXVXVXFXVXVXVXZXHX6XD ..6.r.l B V >.@.=.-.1.p.a.Z.].K.@X3XQ.1.@.....+.K :...=.!.L.b.C.m.z.=.XXaXVXGXVXVXFXVXVXVXVXFXVXVX",
"BXBXPXPXCXBXFXPXVXjXFXLX7X%...B X.y.6. ...V +.b.| D +.@.7.pX^.J c.C.C.C.2.} A  ...2.K oXeXS.x.B.C.3.D D ^.iXCXCXPXPXBXBXPXPXBXBX",
"JXJXBXkXLXJXBXkXFXJXkX}.| F l l l 6.OXC V A c.x.x.3.>...S Z B B { ..2.+.+.} V  . .+.x.c.h.J.L.c.c.C.C.3.G J uXHXjXBXJXJXjXjXJXJX",
"jXjXPXJXBXjXFXJXSX1X' G 5.8X4X5Xt.C N V B  .3.+...@.h.*.j.` T U ^ ) Y h > - : : U o...3.c.=.J.sX%X&.| x.!.$XF.rXJXPXjXjXJXJXBXjX",
"FXFXVXBXFXFXSXgX}.+.~.+.5.LXJXyXO.B [ B A @. .| @.&.u 2 4 % $ % r / ( t & % & $ & g n C S pXxX;X;Xc...k +._.m.).BXVXFXFXVXVXFXFX",
"FXFXVXVXFXLXlX) G (.XX..D +X2Xl B B B ..| b V .. ., $ & & $ $ & / ` / t * & * * & $ & : b r.$XD.T.Z.b.c.%.S B.c.&XBXFXFXVXVXFXFX",
"jXjXPXJXBXkXy.G #.D G :...N k [ B D @.x 7 R C b : $ * $ X & 5 * $ r g.b.) * $ $ & * & $ * j F C.c.C.z.@XmXW.=.C.z.qXNXbXJXJXBXjX",
"JXJXBXjXLXOXD #.+.+.:...V V [ l C $.9 y _ S C 9 $ * @ 5 d.Y.J.f.( f.D.G.I.k.0 , ; $ & & & % - ` I.b.c.x.!.T.S.c.c.Y.nXJXjXjXJXJX",
"BXBXFXLX7X..D F +.:.+.V V V [ 4Xe.> u Q V } C C , $ a P.P.k.c.3.) %.,.>.=./ )  .B x ; O * * O % N.T.c.c.D b.I.n.B.m.,XCXPXPXBXBX",
"VXVXFXBX' G ~.2X#.:.V V V V B ~.t.M  .C V C v : $ p ( y % O 0 Q ! ! | ..o.| R %.2.+.B : x B * O : U.I.c.$.@.D.D.b.B.b.rXGXVXVXVX",
"LXPXSX1X>.c.].mX(.Z V  .V V B J 1... .V B , 4 % r ` & O ; U =.c.h.| ! +.+.:.:.o.@.-...B z v B ; O / L.b.2.>.K.h.D.B.z.@XBXBXPXJX",
"kXBXbX6.J z.c.l.c.V  .S x.A A | V V B C z O w * * 4 X p 3.,.o.+.+.:.,.,.:.+.+.+.:.:.+.S  .x x : & * -.C.+.+.*X$.-.C.c.c.nXJXjXkX",
"JXZX'.p.].$Xc.C.-.V  .3.B. .&.+.B V V C h / d.o ; ) ) / R 6 * * ; ; - i ! o.+.:.~ 9 N.Z.>.@.E ( & $ a C.| k c.-.=.b.!.`.,XNXPXJX",
"DXzXL S.*X3XC.x.V V =.x.@.A c.V [ V C n + f.d.r ^ R t % O & , : O 5 d.d._ x.@.:.~ X w *X3.x.V b.d @ * ;.A B 3.S.K.c.!.`.{.SXVXVX",
"SX1XD L.b.l.c.A B +.$.&.+.@.+.B V V V b ;.d.$ d & X $ * & : , * $ 5 ( Y.Z.n.x...:.U o d b.@.+.<.f.$ X a o.V 3.3.c.D.c.x.b.iXSXBX",
"JX^.(.dXL.B.@.B Z F Z x.A h.V V V V C 4.j.* * $ & % $ $ * & $ & * & X $ w p ` b.>...; @ ) :.@.n.P.* r u x A +.3.x.Z.B.C.z.qXLXJX",
"NX{.=.!.c.C.+.N y.OXr.~ A @.B V V V x j.i 9 * % $ * U ~ | ; & & & & * & $ $ X y _ ,.U O u >.x.*.T.y / ` & B  .c.%.b.c.B.z.uXCXkX",
"FX^.I c.B.C.=.l OXJXzX= ! V V V C v * k.` 8 $ $ 8 ..:.:.8 & & & & & & & & & * $ $ Q ..$ * $.L.a ( d.0 ! $ v C x.&.b.b.B.F.0XHXFX",
"iX;.1.Z.c.b.c. .j 1XPX|.b C V V V c _ j.( d X , C >.%.: $ & & & & & & & * * * * $ / 4.U X U U.` & ( < C & , Z @.c.x.b.l.p.{.VXFX",
"gXQ.>.c.c.B.C.$.h s vXsX$.B V C x _ R u $ $ * B V v.p O * & & & & & & $ O $ $ $ $ j.c.=.w - x.>.z $ n C ; W B +.C.@.B.@X].N.hXBX",
"JX.XF 3.c.z.c.3.B n &.l.h.B C b ` / c 0 ; x n B  .R $ * & % & & & & $ 6 u T U , $ / c. .U X ` >.E * z { : x C S 3.@.c.wXuXF.nXJX",
"kXM.2.b.A.uXvXA.V V B @...B V 0 _ 6 ~ U v C V C Q p * & & $ & & & & $ ! ,.,.,. .g r 2.+.} $ R 2.E * $ B B z < U Y.!.A.p.c.z.#XNX",
"iXm.3.b.A.xXnXU.K  ...V n C x % * ; i Q { B B B u j.* & % w & & $ $ * v x Y o.^ v , c >.>.; p R ! ; $ v C :   R.fXF.B._.Z.z.W.BX",
"pXm.+.C.x...@.`.(.1.~ ! n B ; & $ i t m { [ B n _ a $ X ( d X % 0 W : ; $ & v * z B * -.4.8 / p ! ; ; B C c + ] `.l./.-Xn.A.N.nX",
",Xz.#.C.x.&.F.*XXXz.y d.} < O & & * ; b C V B @.*.$ & 4 N.* $ U  .! $ $ & & x & ; B : j.2.+.C.u ;.6 & x C C b @.n.=.c.c.c.eX`.gX",
"`.@.@.b.K.P.P.H.z.K.j.d.i ; & & & * ; A V B | C./ $ @ d d.o ;  .V c.( & : % , z * & * h.n.b.c.m $.5 O : V z V x.K.=.3.A.c.n.J.ZX",
"_.D x.P.P.G.P.I.c.L I.d X * & & * @ y c.B V [ C.p $ @ f.d o ^ ..@.C.D.h.) 8 g %.M.* ; Z.*Xb.b.} =.5 : z V , ..C.x.D oX$Xl.n.N.kX",
"A.D Z.I.P.H.;XeXb.eX&X+ * & & & $ Y i h.B V V =.5 $ % Y.k.` :. .@.*.6 ) % 9 2.C.B.* 8 eXeX].3XZ =.) 3.V V , -.3.&.x.B.Z.P.Z.b.,X",
"{.D l.H.P.G.P.U.Z.wX0.+ * & & & & | U =.B V C | * $ 4 *.1.S...:.V } & g , 4 ) >.E & g.dX@XvXy.Z :.>.C.+.C R B.@.x.I.z.I.=XL.z.-X",
"<XD Q.;XG.P.G.P.K.9.+ $ & & & % $ Q W V V V C | * & * +.+.@.+.| ..C 9 $ x x < g & ^ 1._.dX2XN ..B @.C. .E ` 2.%.-.b.@X=XT.c.z.#X",
"pXL t.3XD.P.P.H.D.R e e $ % & & $ 9 { B V V C ! * & * | ....+.* T o.S 9 O * & * m G t.pX%XN  . .V c.` E 8 ^ Z h.m.c.;X=X:X/.l.-X",
"aXK @.<.P.G.H.;XdXR 0.0.= % & & $ , C V V V C ! % * $ _ 2.B ,.Q ; u +.:.~ T Q +.Q.5XsXE.1 {  .b ^ C.7 $ : b B b.;X!.m.T.fX3XI %X",
"7X&.x.Z.n.G.sXLXeXuX6X+ + $ & & $ , C V V V C ! & * @ d P.B V ,...Y Q :.:.,.:.2XpX$Xf.+ v C C , ` *.$ O 9 C $.c.~.r.J S.B.c.J %X",
"FX).K n.b.G.wXdXdXJXBXe R.2 $ * $ : C B B C V ..* $ * $ k.D.@.| c.l.<.@.@.@...#...p.h.B x , z ; B.r $ * W ..K.c.Z N _.sXL.b.F.@X",
"NX XD C.P.G.s.D.].oXY * q.2 & & & $ B 9 & n V +.~ ; & $ 5 P.I.;.&.3.3.3.x.x.1.3.| Q z : $ & X ` / $ $ 0 :.x.G.+.&.J.dXeXz.n.L.7X",
"GXqXp.M.K.K.;XL.z.J N :   . = & $ ; [ : O z C ..,.| & * @ p P.P.n.J F F J D.( r * $ $ & $ $ ` ) $ % $ | >.b.-.&.[.mX$Xp.C.z.qXGX",
"PXbXM.<.c.K.*XL.c.!.s $ 2 q.s $ $ 8 :.* $ : C ..+.:.8 O * $ y b.P.;X-X@X-X@XA } | T * O 5 ` ` : $ $ U :.-.A.I $XmX-Xl.C.C.b.zXHX",
"jXUXM.:.K.G.H.S.l.$X|.. 3 xX|.. % & | T $ * x @.x.+...6 O & $ 8 +.5XZXLXJXxX7.:.| 6 ; R ` / U ; * : ~ :.>.;.{.mX;Xa.c.C.c.).hXjX",
"JXPXW.P K.S.I.Z.C.-.Z E $ 2 & $ * $ T ,.8 O : x.C.x.>. .z 8 % O * z %.~.+X%Xu.D +.+.+.:.....0 8 6 * ~ :.| R A.V.z.].L.c.b.<XJXJX",
"BXSXqXm.x.K.I.C.B.C.+.B * $ & & * $ i 2...; Y >.c.C.x.3.2. .E T u 5 ; < F G K :.:.:.,.,.,.| U ; O i ,.:. .=.K D x.]._.z.W.VXVXBX",
"VXDXrXp.@.F.H.m.l.c.x.v e t & & * $ t ` Q ,.+.+.+.c.b.c.C.x...c Q ....Q Q ~ ~ ~ | ! Q c : * $ & O : :.*.> c S -.A.c.c.j.rXGXVXVX",
"KXJXgX;.D @XsXeX;XZ.b.) w w x $ & * $ ` i Q ,.+.+.@.x.C.b.c.j._ R i i : * 3 $ 6 a / ) ) 7 & & O 6 ! %.r 3 Q D Z.C.B.z.#XCXbXPXJX",
"kXjXLX#XF /.-XsXAX*Xn.x.h & z v * % $ i ;.0.OXD +.+.+.=.c.j.* i ` h.h.h.!.OX| c.B.h._ / * $ ; T | 0 Q   9X2XD x.A.!.m.1XJXJXNXkX",
"JXPXCXlX$.F I m.P.P.I.S.3.M < N j $ * @ *._ O Q ,.+.:.:.} 2.*.$ o & t a R 8 6 4 % $ & : U ! ..Q * * :   <XxXS 3.x.V.f lXVXjXPXJX",
"VXVXIXGX XK o.+.+.<.S.n.C.wXr.+X|.+ 2 $ * B./ $ ~ ,.+.| :.} ) %.U 6 $ O X O = 8 T | ..| Q u * - : & $ o s u...#.P r >XIXIXFXVXVX",
"BXBXFXPXBXXXD :.+.7.B.c.B.$X!.]. X< h 1 % t p $ * Q +.: s u $ ; T ~ | | | | u.8...i * $ $ - , Y t $ t / -.<.V.@.}.MXVXBXFXPXBXBX",
"JXJXBXkXJXLX6X%.D xXuXl.B.l.c.c.p.%XyX2XW.* X . w.s 9 +.T : > - O O ; u T m |.e.) a - z C v > q.0./ C.!.C.C.I }.kXCXJXJXjXjXJXJX",
"jXjXPXJXBXjXLXCXt.5.y.=.C.C.B.C.z.3XuXwX_.S i e 2 % $ * T o.#.O.b z -   < x < < Y } S C , % % * + ) C.B.B.+.}.MXJXPXjXjXJXJXBXjX",
"FXFXVXBXFXFXCXVXVX~.H } @.x.B.c.c.c.z.p.-.N .XCXr.1 X 2 X q.iX9X> g Y |.i.H { C v < < e.6X+ ; / *.C.c.C.I }.HXFXBXVXFXFXVXBXFXFX",
"FXFXVXVXFXFXVXBXFXBXe.S V >.C.Z.L.3.3.=.&.A V 5.(.' e.ZXs o 3 $ w % w.gXt : ; * O O O e 0.e w / v.U.C.1.%.cXHXIXVXVXFXFXVXVXFXFX",
"jXjXPXJXBXjXPXJXBXCX7XD } } 2.3.3.+...S  .[ V H 4XZX.X+X| m 8 * 3 w 2 = - , - - ; w 2 # y XXB.U.+.x.c.%.8XLXjXBXJXLXMXBXJXJXBXjX",
"JXJXBXkXPXJXBXkXFXJXCX}.I } B  ...:.:.V B V V V +.7.D F 5.2X5.| < = 6 | | 5.K J L ).^.F c.J J -.c.F.%XCXMXBXJXPXjXBXJXJXjXjXJXJX",
"BXBXFXPXBXBXFXJXVXjXFXFX-XF.J V V  . .N 6.4X[ B  .:.:.+.t.4X7.:.oX~ } G yXyX$XpXwXyXyX@X/.].].B.D.D.tXDXPXFXBXBXPXFXBXBXPXPXBXBX",
"VXVXVXVXVXVXVXVXVXVXVXFXDXiX[.k.L D -.-.[ [ V V Z ..:.D %X.XF 5.nXr.H 7.nX@XZXLXLXLXLXLXPXLXAX!.F.rXDXVXVXVXVXVXVXVXVXVXVXVXVXVX",
"LXPXBXBXFXJXBXjXFXJXVXjXIXJXVXzXqX'.S.F.m.K B [ O.V  .+.C D +.V [ ..x.x.Q.3.^.vXAXPXLXLXPXxX_.F.0XDXKXFXjXBXJXPXBXBXPXPXBXBXPXPX",
"jXjXJXJXBXkXPXJXBXhXFXJXVXhXIXJXDXhXiXeXW.m.p.M.2XB V  .V B B  .3.B.C.l.XX2XH @.Q.].@X@X`.s.J.aXJXFXhXBXJXPXkXBXJXJXjXjXJXJXBXkX",
"JXLXBXjXPXJXBXjXFXJXVXjXFXJXVXjXVXJXGXMXjXpX&XJ.D.n.z.z.z.l.l.S.D.S.S.D.S.n.m.m.a.s.s.H.J.qXFXGXjXVXJXFXjXBXJXPXjXBXJXLXBXBXPXJX",
"VXVXIXFXVXVXVXFXVXVXVXFXVXVXVXFXVXVXVXIXFXDXSXZXiX#X'.U.U.U.U.U.`.[.[.[.*X[.'.'.-X-X#XaXCXDXVXVXIXVXVXVXFXVXVXVXFXVXVXVXVXFXVXVX"
};
