/* XPM */
static char *_070a1b7cfca4d70e5a9e5765d68b754qRmLq25R7bwomyfA[] = {
/* columns rows colors chars-per-pixel */
"64 64 99 2 ",
"   c #679E32",
".  c #68A033",
"X  c #71AE37",
"o  c #72AE37",
"O  c #74B239",
"+  c #7ABB3C",
"@  c #7BBC3C",
"#  c #7BBD3C",
"$  c #79B93B",
"%  c #69A133",
"&  c #679D32",
"*  c #79B83B",
"=  c #7CBD3C",
"-  c #83C840",
";  c #84C940",
":  c #7CBE3D",
">  c #74B138",
",  c #73B038",
"<  c #679F32",
"1  c #6AA233",
"2  c #6CA534",
"3  c #6BA334",
"4  c #69A233",
"5  c #6AA334",
"6  c #71AC37",
"7  c #72AF38",
"8  c #78B73A",
"9  c #77B63A",
"0  c #6DA735",
"q  c #6BA434",
"w  c #6BA534",
"e  c #7DBF3D",
"r  c #82C63F",
"t  c #7ABA3B",
"y  c #70AC37",
"u  c #6AA333",
"i  c #7EC03D",
"p  c #81C53F",
"a  c #85CA40",
"s  c #86CC41",
"d  c #77B53A",
"f  c #7BBB3C",
"g  c #82C73F",
"h  c #7EBF3D",
"j  c #81C43E",
"k  c #80C23E",
"l  c #79BA3B",
"z  c #78B83B",
"x  c #76B53A",
"c  c #76B439",
"v  c #87CE41",
"b  c #88CF42",
"n  c #75B339",
"m  c #7CBE3C",
"M  c #6DA635",
"N  c #80C33E",
"B  c #7EC13D",
"V  c #6EA835",
"C  c #83C73F",
"Z  c #83C740",
"A  c #81C43F",
"S  c #6CA635",
"D  c #73AF38",
"F  c #8AD243",
"G  c #89D042",
"H  c #7FC23E",
"J  c #7FC13E",
"K  c #689F32",
"L  c #89D142",
"P  c #7FC13D",
"I  c #73B138",
"U  c #69A033",
"Y  c #6DA835",
"T  c #7DBE3D",
"R  c #87CD41",
"E  c #8BD443",
"W  c #6EA935",
"Q  c #80C43E",
"!  c #71AD37",
"~  c #8BD343",
"^  c #6CA634",
"/  c #85CB40",
"(  c #84C840",
")  c #7ABB3B",
"_  c #75B239",
"`  c #84CA40",
"'  c #77B73A",
"]  c #75B439",
"[  c #87CC41",
"{  c #689F33",
"}  c #8DD644",
"|  c #6AA234",
" . c #8CD544",
".. c #74B238",
"X. c #8CD443",
"o. c #89CF42",
"O. c #86CB41",
"+. c #7DC03D",
"@. c white",
/* pixels */
"          . X X .     . o o .         . o O + @ # $ % &   . o o . % * @ @ = - ; ; - : @ @ @ @ + > , , o .                       ",
"      < 1 2 > > 2 1   . o o 3 % 4 4 % 5 6 7 8 $ $ 9 0 q % 1 6 6 5 w $ @ = e r - - r t * * * * 8 > , o y .   u 5 5 5 1 4 4 %     ",
"      u i p r r p i 1 . X > 8 * * * $ 9 5 . % % % 0 a s O y 4 5 d $ f = r g e = : t 2 % % % % 5 o o 1 .   1 h j j k l z $ x %   ",
"4 %   u i p ; ; p i 0 2 > c @ : : = f 8 %   % % % 0 v b n y % 3 t : m e p p e = $ d 5 . % % % 3 , 7 .   % M N - ; - B e = $ 2 % ",
"$ x %   1 V p p 0 0 i p r r C Z - p c 7 . % d $ * $ e f q % y > A - - p x x p N S 5 6 D 8 $ $ $ + 8 % % d $ = e - a F G e f $ $ ",
"@ $ S u . q H J 1 1 i p ; ; ; ; - p c D 3 q 9 $ @ @ @ $ q 5 D c p - - p x d g j 5 K y D 8 $ $ $ $ 9 5 5 9 $ f = r ; F L i = $ $ ",
"@ = N P , o n I U   1 Y p ; ; - e = + t $ 9 q q $ @ @ f $ $ t + = m = e p g ; j 5   . . % % % % % 5 6 6 5 w $ # = : e i C N S % ",
"@ m - r n , o y 5 % % S N - - r = @ e T l 9 q q z + = m : m @ @ @ @ @ = r - - N S % % % % % % 1 q S 7 o 4 5 d $ t t * t p J u & ",
"@ = - r n X 4 5 d * * $ = m m = @ e L R 0 q 9 z O c p - - r = @ @ @ @ @ = = = = $ * * * * * z f R s c D o 6 5 3 , , 3 3 > I U   ",
"e i N H d > 3 w t : : m @ @ @ @ @ e L R V S + # n c p - - r e = m m m m = = = = : : @ @ @ @ @ e L b 9 > 7 6 4 % y y % 4 o o .   ",
"E v W 0 H p t t r - - r = @ @ @ @ # e i Q p C r @ + = = = e g - - - - - - - C C - r = @ @ @ @ @ e e f 8 5 % y y % % 6 o , o .   ",
"G a 2 q N g m m r - ; - e = m = $ $ = T N p ; - e m = = = T N j j j C - - - a a ; - e = @ @ @ @ @ @ @ $ w 3 > > 2 q ! o o y 1 . ",
"2 S ! , @ = @ @ = e - ; - - - N S S N Q 0 0 p ; - Z C Z - N 0 u 5 S t : = i F ~ a ; - r = @ @ @ @ @ @ f $ t A r A i q . . 4 6 o ",
"& . o O @ m m = @ = r - - C p i 2 2 i i 2 ^ N - ; ; / a p i 0 u 5 S t : = i F ~ a ( p N @ + @ @ = m m = @ m r - - N S % . 4 6 o ",
"  . X n p - - r = @ = = : t S 2 9 9 2 2 9 $ = e - / E b W M i j j A C - Z - a a a p 0 q D n + = r - - r = @ = m m = $ 8 7 y 4 . ",
". 1 o n N g ; - e = = = : t q q ) + S S $ @ @ = r ; F R 0 S p ; - C j p ( ; ; ( p i 0 q > c + = r - - r = @ @ @ @ @ $ z > o 5 % ",
"o o , , _ 9 r ; - - - - - r t t r Z A N = @ @ @ = : e T $ t C - e t S 0 p ; ; p 0 M i j r p = @ = m m = @ @ @ @ @ $ w 5 o > 8 * ",
"o o o o D n r ; r r j p ; - e T N A Z r = @ @ @ @ @ @ @ @ m r r t d q 2 H r - N 0 0 p ` ; - e = @ @ @ f $ * * $ + 8 % . 7 n m e ",
". . . 1 X n r C 9 > q 0 p ; - N 0 S ) : @ @ @ @ @ @ @ @ @ @ = t q q 9 z n c @ T N p ( ; ; ; - r m @ @ $ w % % 3 , 7 . % ' m G ~ ",
"% % % q _ ' H H ] , ^ V N C p i q 1 d $ * $ t t $ $ = m m m : t S S $ + _ _ + = r - Z Z Z Z - r t $ + 8 5 K   . 7 , 3 2 @ H L ~ ",
"$ $ z f b [ W S z = R v i t M q ! 6 5 % % q , , 5 S N - - - - C p N = @ + + @ @ m : : : : : : t 2 3 , > o y K % 8 + * f G L J e ",
"$ $ @ e v a 3 U x f R R f x % . o o 1 .   . y y K 1 J r j j r r A Q i T $ $ t t $ * * $ t t $ x % K y o , o 5 w $ # e H E ~ e @ ",
"% 2 $ l Y q K   % 1 q q 1 %   . o , o y {   . .   U , > w 2 > > w W v v 0 5 , , 3 % % 3 D D 3 %     . 1 o > 8 $ f e G E } ~ e @ ",
"  % d d % &                   U 7 O O , M q 1 % % q _ _ 3 5 6 y % 2 a a 0 | 6 y 4 .   U O _ q % 4 4 % 3 D n + @ @ e G E } ~ e @ ",
"    % %                       % 8 + + = R R f z z f b b @ d 5 % y ! 2 0 9 9 5 % y y K q s b f z * * * $ t + @ @ @ @ e H E ~ e @ ",
"    . U 5 5 5 5 1 4 4 4 4 %   4 $ @ $ @ G L e @ = B E ~ @ 9 2 2 > > q S + + S 2 > > . q s G e @ : : : m @ @ @ @ @ @ @ T b b f z ",
"  . y I J j j k l z * * $ x % % * $ q w @ e @ = r ;  .G 0 2 i j r r j p C C j j r J 1 . ..d + = r - - r = @ @ @ @ @ @ f 9 _ q % ",
". 1 o n Q C ; - e : : : : t 2 w t ) S S $ @ @ = r ; F R 0 S p ; - C p p ; ; ; ; p i 0 2 > c + = r - - r = @ @ @ @ @ $ 8 > o 5 % ",
"o o , , _ 9 r ; - - - - - r t t r Z A N = @ @ @ = : e T $ t C - e t S 0 p ; ; p 0 M i j r p = @ = m m = @ @ @ @ @ $ w 5 o > 8 * ",
"o o o o D n r ; r r j p ; - e T N A Z r = @ @ @ @ @ @ @ @ m r r t d q 2 H r - N 0 0 p ` ; - e = @ @ @ f $ * * $ + 8 % . 7 n m e ",
". . . 1 X n r C 9 > q 0 p ; - N 0 S ) : @ @ @ @ @ @ @ @ @ @ = t q q 9 z n c @ T N p ( ; ; ; - r m @ @ $ w % % 3 , 7 . % ' m G ~ ",
"% % % q _ ' H H ] , ^ V N C p i q 1 d $ * $ t t $ $ = m m m : t S S $ + _ _ + = r - Z Z Z Z - r t $ + 8 5 K   . 7 , 3 2 @ H L ~ ",
"$ $ z f b [ W S z = R v i t M q ! 6 5 % % q , , 5 S N - - - - C p N = @ + + @ @ m : : : : : : t 2 3 , > o y K % 8 + * f G L J e ",
"$ $ @ e v a 3 U x f R R f x % . o o 1 .   . y y K 1 J r j j r r A Q i T $ $ t t $ * * $ t t $ x % K y o , o 5 w $ # e H E ~ e @ ",
"% 2 $ l Y q K   % 1 q q 1 %   . o , o y {   . .   U , > w 2 > > w W v v 0 5 , , 3 % % 3 D D 3 %     . 1 o > 8 $ f e G E } ~ e @ ",
"  % d d % &                   U 7 O O , M q 1 % % q _ _ 3 5 6 y % 2 a a 0 | 6 y 4 .   U O _ q % 4 4 % 3 D n + @ @ e G E } ~ e @ ",
"    % %                       % 8 + + = R R f z z f b b @ d 5 4 6 ! 2 0 9 9 5 % y y K q s b f z * * * $ + + @ @ @ # e H X.~ e @ ",
"            . .         . .   % d $ * @ b o.e @ @ e R R @ 9 5 4 6 ! | q $ $ S 2 > > 3 0 R L e @ + + + + $ * * * * * z + R R + z ",
"          . y y .     . y y .   % % % q _ 9 f @ @ $ 0 q 4 5 ! 6 % 5 d $ f = N j r p t $ e e # + n > O , q % % % % % % 1 q q 1 4 ",
"      < 1 2 > > 2 1   . o 7 3 % % % % 5 y 7 8 * $ 9 0 q U 4 6 ! 5 w $ # = e g - - r t * z z * 8 > , o y .   1 5 5 5 4 % % %     ",
"      u i p r r p i 1 . X > 8 * * * $ 9 5 . % % % 0 a s O y 4 5 d $ f = r g e = : t 2 % % % % 5 o o 1 .   1 h j j k l z $ x %   ",
"4 %   u i p ; ; p i 0 2 > c @ : : = f 8 %   % % % 0 v b n y % 3 t : m e p p e = $ d 5 . % % % 3 , 7 .   % M N - ; - B e = $ 2 % ",
"$ x %   1 V p p 0 0 i p r r C Z - p c 7 . % d $ * $ e f q % y > A - - p x x p N S 5 6 D 8 $ $ $ + 8 % % d $ = e - a F G e f $ $ ",
"@ $ S u . q H J 1 1 i p ; ; ; ; - p c D 3 q 9 $ @ @ @ $ q 5 D c p - - p x d g j 5 K y D 8 $ $ $ $ 9 5 5 9 $ f = r ; F L i = $ $ ",
"@ = N P , o n I U   1 Y p ; ; - e = + t $ 9 q q $ @ @ f $ $ t + = m = e p g ; j 5   . . % % % % % 5 6 6 5 w $ # = : e i C N S % ",
"@ m - r n , o y 5 % % S N - - r = @ e T l 9 q q z + = m : m @ @ @ @ @ = r - - N S % % % % % % 1 q S 7 o 4 5 d $ t t * t p J u & ",
"@ = - r n X 4 5 d * * $ = m m = @ e L R 0 q 9 z O c p - - r = @ @ @ @ @ = = = = $ * * * * * z f R s c D o 6 5 3 , , 3 3 > I U   ",
"e i N H d > 3 w t : : m @ @ @ @ @ e L R V S + # n c p - - r e = m m m m = = = = : : @ @ @ @ @ e L b 9 > 7 6 4 % y y % 4 o o .   ",
"E v W 0 H p t t r - - r = @ @ @ @ # e i Q p C r @ + = = = e g - - - - - - - C C - r = @ @ @ @ @ e e f 8 5 % y y % % 6 o , o .   ",
"G a 2 q N g m m r - ; - e = m = $ $ = T N p ; - e m = = = T N j j j C - - - a a ; - e = @ @ @ @ @ @ @ $ w 3 > > 2 q ! o o y 1 . ",
"2 S ! , @ = @ @ = e - ; - - - N S S N Q 0 0 p ; - Z C Z - N 0 u 5 S t : = i F ~ a ; - r = @ @ @ @ @ @ f $ t A r A i q . . 4 6 o ",
"& . o O @ m m = @ = r - - C p i 2 2 i i 2 ^ N - ; ; / a p i 0 u 5 S t : = i F ~ a ( p N @ + @ @ = m m = @ m r - - N S % . 4 6 o ",
"  . X n p - - r = @ = = : t S 2 9 9 2 2 9 $ = e - / E b W M i j j A C - Z - a a a p 0 q D n + = r - - r = @ = m m = $ 8 7 y 4 . ",
". 1 o n N g ; - e = = = : t q q ) + S S $ @ @ = r ; F R 0 S p ; - C j p ( ; ; ( p i 0 q > c + = r - - r = @ @ @ @ @ $ z > o 5 % ",
"o o , , _ 9 r ; - - - - - r t t r Z A N = @ @ @ = : e T $ t C - e t S 0 p ; ; p 0 M i j r p = @ = m m = @ @ @ @ @ $ w 5 o > 8 * ",
"o o o o D n r ; r r j p ; - e T N A Z r = @ @ @ @ @ @ @ @ m r r t d q 2 H r - N 0 0 p ` ; - e = @ @ @ f $ * * $ + 8 % . 7 n m e ",
". . . 1 X n r C 9 > q 0 p ; - N 0 S ) : @ @ @ @ @ @ @ @ @ @ = t q q 9 z n c @ T N p ( ; ; ; - r m @ @ $ w % % 3 , 7 . % ' m G ~ ",
"% % % q _ ' H H ] , ^ V N C p i q 1 d $ * $ t t $ $ = m m m : t S S $ + _ _ + = r - Z Z Z Z - r t $ + 8 5 K   . 7 , 3 2 @ H L ~ ",
"$ $ z f b [ W S z = R v i t M q ! 6 5 % % q , , 5 S N - - - - C p N = @ + + @ @ m : : : : : : t 2 3 , > o y K % 8 + * f G L J e ",
"$ $ @ e v a 3 U x f R R f x % . o o 1 .   . y y K 1 J r j j r r A Q i T $ $ t t $ * * $ t t $ x % K y o , o 5 w $ # e H E ~ e @ ",
"% 2 $ l Y q K   % 1 q q 1 %   . o , o y {   . .   U , > w 2 > > w W v v 0 5 , , 3 % % 3 D D 3 %     . 1 o > 8 $ f e G E } ~ e @ ",
"  % d d % &                   U 7 O O , M q 1 % % q _ _ 3 5 6 y % 2 a a 0 | 6 y 4 .   U O _ q % 4 4 % 3 D n + @ @ e G E } ~ e @ ",
"    % %                       % 8 + t = R R f z z f b b @ d 5 4 6 ! ^ 0 9 9 5 4 6 y . q O.b f z * * * $ t + @ @ @ @ e H ~ ~ e @ ",
"                              4 * @ @ e E E e @ @ e ~ ~ +.* % . o o . % $ $ % . o o . w G E e @ @ @ @ @ @ @ @ @ @ @ @ e ~ ~ e @ "
};
