/* XPM */
static char *dc6293318a284698c8a3ad5b18e68d54islggA2K4M6SrXgA[] = {
/* columns rows colors chars-per-pixel */
"64 64 172 2 ",
"   c None",
".  c #010100",
"X  c #090704",
"o  c #0B0B03",
"O  c #0C0C0C",
"+  c #120E06",
"@  c #110D09",
"#  c #151405",
"$  c #1B1A06",
"%  c #15110A",
"&  c #1B150C",
"*  c #1E1A0B",
"=  c #171615",
"-  c #1C1611",
";  c #1A1A1A",
":  c #231D0B",
">  c #291F0D",
",  c #221A12",
"<  c #281E15",
"1  c #232209",
"2  c #2B230D",
"3  c #2B2A0B",
"4  c #31270F",
"5  c #34330D",
"6  c #3D3C0F",
"7  c #38370D",
"8  c #2A2213",
"9  c #2E2319",
"0  c #352911",
"q  c #3A2B12",
"w  c #32261B",
"e  c #36291C",
"r  c #3A2C1F",
"t  c #3E3810",
"y  c #242322",
"u  c #2C2C2C",
"i  c #3D2E20",
"p  c #3F3021",
"a  c #333332",
"s  c #393939",
"d  c #413114",
"f  c #4C3819",
"g  c #4A3917",
"h  c #523D1B",
"j  c #433224",
"k  c #4B3929",
"l  c #493727",
"z  c #513D2C",
"x  c #454310",
"c  c #494711",
"v  c #4C4A12",
"b  c #504F13",
"n  c #56421B",
"m  c #554918",
"M  c #555314",
"N  c #5C5A16",
"B  c #585615",
"V  c #61571A",
"C  c #646218",
"Z  c #6B651B",
"A  c #6D6B1A",
"S  c #706D1B",
"D  c #71641E",
"F  c #75721C",
"G  c #7E7B1E",
"H  c #57412E",
"J  c #59432F",
"K  c #5E4632",
"L  c #664C22",
"P  c #6D5124",
"I  c #745627",
"U  c #7C5C29",
"Y  c #775827",
"T  c #624A35",
"R  c #694F38",
"E  c #6C5139",
"W  c #75583E",
"Q  c #776323",
"!  c #414141",
"~  c #5D5D5D",
"^  c #545454",
"/  c #7C5E43",
"(  c #7F6044",
")  c #7D7D7D",
"_  c gray44",
"`  c gray42",
"'  c #817E1F",
"]  c #805F2A",
"[  c #82622A",
"{  c #896C2A",
"}  c #8D722B",
"|  c #93772D",
" . c #816145",
".. c #8B684A",
"X. c #936F4F",
"o. c #9C7553",
"O. c #A77D59",
"+. c #A87F5A",
"@. c #A27A57",
"#. c #83811F",
"$. c #898621",
"%. c #8D8A22",
"&. c #858220",
"*. c #908B23",
"=. c #9A832D",
"-. c #969224",
";. c #999525",
":. c #9C9925",
">. c #A38C2F",
",. c #A19E27",
"<. c #A9932F",
"1. c #A39A29",
"2. c #AC9730",
"3. c #B19E30",
"4. c #A6A228",
"5. c #A8A428",
"6. c #ADA929",
"7. c #B1AC2B",
"8. c #B2A22F",
"9. c #B6B22B",
"0. c #BBB72D",
"q. c #BAA932",
"w. c #B6A431",
"e. c #C2BE2F",
"r. c #C3B433",
"t. c #C4BD30",
"y. c #C6C22F",
"u. c #CAC531",
"i. c #CDC931",
"p. c #C7C330",
"a. c #D1C634",
"s. c #D2CD33",
"d. c #D6D133",
"f. c #DAD534",
"g. c #DDD835",
"h. c #E2DD36",
"j. c #E6E137",
"k. c #AD825C",
"l. c #B2865F",
"z. c #B48760",
"x. c #B68961",
"c. c #B98B63",
"v. c #C19267",
"b. c #C59469",
"n. c #CC996D",
"m. c #D39F70",
"M. c #D6A172",
"N. c #DBA575",
"B. c #E3AB79",
"V. c #E8AF7C",
"C. c #EDB27F",
"Z. c #8A8A8A",
"A. c gray52",
"S. c #979797",
"D. c #9D9D9D",
"F. c #A7A7A7",
"G. c #B4B4B4",
"H. c gray73",
"J. c #EFB480",
"K. c #F1B681",
"L. c #F6B984",
"P. c #FBBD86",
"I. c #FEBF88",
"U. c #FFC088",
"Y. c #CECECE",
"T. c gray77",
"R. c #DBDBDB",
"E. c #D2D2D2",
"W. c #E4E4E4",
"Q. c gray92",
"!. c #F2F2F2",
"~. c #FFFFFF",
/* pixels */
"                                                                                                                                ",
"                                                                                                                                ",
"                                                      . . . .                                                                   ",
"                                                    . . X X . .                                                                 ",
"                                                  . . > q q : . .                                                               ",
"                                                . . 2 d d d d > .                                                               ",
"                                                . . m d m V d 4 .                                                               ",
"                                                  . N D 7.h.1.M .                                                               ",
"                                                  . 5 j.j.j.h.3 .                                                               ",
"                                                  . o j.j.j.s.# .                                                               ",
"                                                  . . j.j.j.u.X .                                                               ",
"                                                . . X j.j.j.s.# . .                                                             ",
"                                              . X c ;.j.j.j.j.:.6 . .                                                           ",
"                                            . X G g.F g.j.j.g.;.h.A . .                                                         ",
"                                          . X F h.u.# h.j.j.d.1 6.h.V . .                                                       ",
"                                        . . b h.j.S v j.j.j.j.:.6 j.f.6 . .                                                     ",
"                                        . # d.j.h.$ 7.j.j.j.j.f.# s.j.0.# .                                                     ",
"                                      . . *.j.a.Z 3 g.j.j.j.j.j.A s.j.j.F . .                                                   ",
"                                    . . 3 g.a.{ & n w.j.j.j.j.j.s.5.j.j.g.$ .                                                   ",
"                                    . . ;.j.2.U > U =.j.j.j.j.j.9.* j.j.j.G . .                                                 ",
"                                    . 1 h.j.| P n ] >.j.j.j.j.j.f.$ e.j.j.d.$ .                                                 ",
"                                  . . $.j.g.[ f : ] q.j.j.j.j.j.j.6 $.j.j.j.A . .                                               ",
"                                  . $ i.h.>.U 2 g ] q.j.j.j.j.j.j.S C j.j.j.u.. .                                               ",
"                                . . N h.r.[ Y & L ] =.7.,.,.7.s.j.-.v j.j.j.j.6 .                                               ",
"                                . X ;.j.<.] I f g : + & w w * $ x N 5 j.j.j.j.$.. .                                             ",
"                                . 1 d.j.2.U q X i k.B.U.U.U.I.B.o.e # -.h.j.j.e.o .                                             ",
"                                . v j.j.8.> < x.P.U.U.U.U.U.U.U.U.P.O., B h.j.h.x .                                             ",
"                              . . $.j.d.5 k K.U.U.U.U.U.U.U.U.U.U.U.U.B.j v f.j.F . .                                           ",
"                              . . u.g.b z K.U.U.U.U.U.U.U.U.U.U.U.U.U.U.J.r C j.,.X .                                           ",
"                              . # j.%., C.U.U.U.U.U.U.U.U.U.U.U.U.U.U.U.U.N.& 5.p.# .                                           ",
"                              . 7 s.3 l.U.P.n.T & B.U.U.U.U.U.U.i l n.K.I.U.o.5 g.3 .                                           ",
"                              . B -.j K.k.r X . J N.U.U.U.U.U.U.X.X X - j X.n.& ,.v .                                           ",
"                            . . #.x R , = Z.Y.T.) = E U.U.U.P.J u G.Q.R.F.u X  .N C .                                           ",
"                            . . :.% / = R.~.~.~.~.R.; n.U.U.k.y !.~.~.~.~.W.; ..5 Z .                                           ",
"                            . . -., H A.~.!.Y.~.~.~._ W U.U.z A.~.!.T.Q.~.~.~ T : F .                                           ",
"                            . . ;., j H.~.D.O F.~.~.Z.R U.U.j G.~.S.. ) ~.~.` T 8 F .                                           ",
"                            . . ;., j G.~.F.; D.~.~.) E U.U.l S.~.E.s H.~.~.~ R 8 F .                                           ",
"                            . . -.& K ^ ~.~.~.~.~.!.u k.U.U.o.a ~.~.~.~.~.W.= O.1 Z .                                           ",
"                              . %.1 o.9 ~ R.~.~.Q.^ j n.V.U.L.r ~ R.~.~.W.! K O.x Z .                                           ",
"                              . A Z W C.T , y a - K K.w k. .V.L.T & u a - E L.H G M .                                           ",
"                              . c 6.8 B.U.B.x.l.m.U.U.9 l < K.U.U.B.x.k.M.U.B.# 0.7 .                                           ",
"                              . 1 g.c  .U.U.U.U.U.U.U.k.R n.U.U.U.U.U.U.U.P.T M d.: .                                           ",
"                              . . d.9.# v.U.U.U.U.U.U.U.U.U.U.U.U.U.U.U.U.+.# s.7.X .                                           ",
"                              . . ;.j.$.& m.U.U.U.B.z.( E E  .@.N.U.U.U.b.% :.j.G .                                             ",
"                                . M j.j.' & z.P.b.- j E  . .E z l P.L.o.* %.j.h.c .                                             ",
"                                . 1 d.j.h.-.: T v.B.U.U.U.U.U.U.P.v.z 3 ,.j.j.y.# .                                             ",
"                                . X ;.j.j.j.#.o % j  .c.M.N.x. .i % X :.h.<.8.%..                                               ",
"                                  . v h.j.j.&.0 Y h 0 3 $ $ 3 M :.4.3 g.>.] | 3 .                                               ",
"                                  . X 9.j.j.;.> U [ r.j.g.g.j.j.j.G B s.{ ] Q . .                                               ",
"                                    . v j.j.9.# { u.j.j.j.j.j.j.j.b G r.] } 3 .                                                 ",
"                                    . . 9.j.s.C s.j.j.j.j.j.j.j.h.3 ,.a.3.*.X .                                                 ",
"                                    . . 5 g.j.h.j.j.j.j.j.j.j.j.f.$ u.j.f.$ .                                                   ",
"                                    . . . Z j.g.,.j.j.j.j.j.j.j.e.$ j.h.M . .                                                   ",
"                                      . . X -.i.$ s.j.j.j.j.j.j.G v h.' X .                                                     ",
"                                        . . o -.5.4.h.j.j.j.j.j.e.u.G . .                                                       ",
"                                          . . + F o 7.t.h.d.j.e.M Z . .                                                         ",
"                                          . X  .e . 4 g V m Z t . p @ .                                                         ",
"                                          . w P.P...X q d d q X k.P./ .                                                         ",
"                                          . @ +.P.B.& + 2 2 + e I.m.9 .                                                         ",
"                                            . . - X . . . . . . , . . .                                                         ",
"                                              . . . .         . . .                                                             ",
"                                                                                                                                ",
"                                                                                                                                ",
"                                                                                                                                "
};
