/* XPM */
static char *c4d3fafc035c401db865f0b57eead194x7ZepQfQ3b7v0vFC[] = {
/* columns rows colors chars-per-pixel */
"64 64 216 2 ",
"   c #141515",
".  c #1C1C1D",
"X  c #17191A",
"o  c #201F1E",
"O  c #22211F",
"+  c #1C1E20",
"@  c #1A2428",
"#  c #1A2C34",
"$  c #192D36",
"%  c #1B333E",
"&  c #232323",
"*  c #2C2B2A",
"=  c #272829",
"-  c #39332E",
";  c #252E34",
":  c #282F35",
">  c #2A3136",
",  c #2C343A",
"<  c #243139",
"1  c #343535",
"2  c #32373A",
"3  c #373839",
"4  c #3A3C3D",
"5  c #3B3834",
"6  c #473F37",
"7  c #544436",
"8  c #47433C",
"9  c #6B523E",
"0  c #6D533E",
"q  c #1A3541",
"w  c #1A3946",
"e  c #193C4B",
"r  c #173B4A",
"t  c #2A3C45",
"y  c #333D42",
"u  c #3C3E40",
"i  c #194353",
"p  c #1B495B",
"a  c #184455",
"s  c #18404F",
"d  c #29424D",
"f  c #3B4144",
"g  c #3B454C",
"h  c #344349",
"j  c #224655",
"k  c #2A4A57",
"l  c #344954",
"z  c #3A535D",
"x  c #1A4E62",
"c  c #1A5166",
"v  c #1A556B",
"b  c #1B586F",
"n  c #1B5F78",
"m  c #1E5D74",
"M  c #2B5263",
"N  c #26566A",
"B  c #285E74",
"V  c #345664",
"C  c #1C627D",
"Z  c #28667D",
"A  c #3A6677",
"S  c #424243",
"D  c #45494C",
"F  c #4A4B4B",
"G  c #474648",
"H  c #524E4D",
"J  c #57534C",
"K  c #424C54",
"L  c #4B4D51",
"P  c #434F58",
"I  c #4B535A",
"U  c #495659",
"Y  c #575758",
"T  c #7A5C44",
"R  c #635D5C",
"E  c #7C624B",
"W  c #62625C",
"Q  c #796857",
"!  c #425B68",
"~  c #595E65",
"^  c #4A606D",
"/  c #5A636C",
"(  c #5D6D78",
")  c #586873",
"_  c #48697B",
"`  c #656263",
"'  c #696364",
"]  c #6C6C6E",
"[  c #66676C",
"{  c #656D74",
"}  c #65727C",
"|  c #687576",
" . c #7A7B7D",
".. c #737779",
"X. c #746F6F",
"o. c #86654A",
"O. c #957357",
"+. c #8B6F57",
"@. c #A37B5B",
"#. c #AA815F",
"$. c #1C6986",
"%. c #1E7798",
"&. c #1D708F",
"*. c #276984",
"=. c #2A7997",
"-. c #357690",
";. c #257FA0",
":. c #4E6F82",
">. c #497486",
",. c #5C7483",
"<. c #567988",
"1. c #467B94",
"2. c #587D91",
"3. c #627C8C",
"4. c #677783",
"5. c #717E88",
"6. c #627E91",
"7. c #36839F",
"8. c #1F84A8",
"9. c #2288AD",
"0. c #2584A7",
"q. c #3586A6",
"w. c #298EB3",
"e. c #3295BB",
"r. c #45839B",
"t. c #5A849B",
"y. c #79838A",
"u. c #628195",
"i. c #698697",
"p. c #738B99",
"a. c #578AA5",
"s. c #5999B9",
"d. c #4994B4",
"f. c #698FA3",
"g. c #669DB9",
"h. c #749BAC",
"j. c #6AA1BD",
"k. c #299BC5",
"l. c #389DC7",
"z. c #26A8D6",
"x. c #37ABD6",
"c. c #57A3C4",
"v. c #45AAD7",
"b. c #52B3DE",
"n. c #48A2C8",
"m. c #6DABCA",
"M. c #75B6D4",
"N. c #5AB6E4",
"B. c #46B8E7",
"V. c #66BAE9",
"C. c #56C1ED",
"Z. c #66C3E9",
"A. c #6CC5F3",
"S. c #69C9F6",
"D. c #78CDF6",
"F. c #78D6FB",
"G. c #84868A",
"H. c #8C8B8C",
"J. c #818283",
"K. c #878E94",
"L. c #86939C",
"P. c #979798",
"I. c #99928E",
"U. c #939AA0",
"Y. c #8096A3",
"T. c #9EA1A4",
"R. c #97ABB4",
"E. c #ACACAC",
"W. c #A4A5A6",
"Q. c #B5B1AD",
"!. c #ACB1B3",
"~. c #B7B7B8",
"^. c #ACBDC4",
"/. c #BCBFC1",
"(. c #B5BEC1",
"). c #ABC1CA",
"_. c #BEC4C7",
"`. c #B8CCD6",
"'. c #85D7F8",
"]. c #97DBFA",
"[. c #A0DBF7",
"{. c #87E5FF",
"}. c #C5C4C4",
"|. c #C2C6C9",
" X c #CACBCA",
".X c #C5C9CB",
"XX c #C6CDD1",
"oX c #CCD6DB",
"OX c #CDD1D2",
"+X c #D4D5D5",
"@X c #D4DADD",
"#X c #DBDBDC",
"$X c #D5D7D8",
"%X c #DADFE1",
"&X c #DCE3E6",
"*X c #E4E5E5",
"=X c #EEEEEE",
"-X c gray94",
";X c #F1F1F1",
":X c #F1F1F0",
">X c gray95",
",X c #F3F3F3",
"<X c #F2F1F1",
"1X c #F4F4F4",
"2X c gray96",
"3X c #F6F6F6",
"4X c gray97",
"5X c #F6F5F5",
"6X c #F3F3F3",
"7X c #F8F8F8",
"8X c #F9F9F9",
"9X c #F9F8F8",
"0X c #FAFAFA",
"qX c #F9F9F9",
"wX c #F9F8F7",
"eX c #EFF0F0",
/* pixels */
"0X=X7X=X7X=X1X=X1X;X1X;X;X;X;X1X;X1X=X7X=X7X=X7X=X7X=X7X=X7X=X1X=X1X;X;X;X;X1X;X1X=X7X=X7X=X7X=X7X=X7X=X7X=X1X=X1X;X1X;X;X1X;X7X",
"1X;X1X;X1X;X;X;X;X;X;X;X;X;X;X1X;X1X;X1X;X1X;X1X;X1X;X1X;X;X;X;X;X;X;X;X;X;X1X;X;X;X;X;X1X;X1X;X1X;X1X;X1X;X;X;X;X;X;X;X;X;X;X1X",
"=X7X=X7X=X1X=X1X;X1X;X;X;X;X1X;X1X=X1X=X7X=X7X=X7X=X7X=X7X=X1X=X1X;X1X;X;X1X;X1X=X1X=X7X=X7X=X7X=X7X=X7X=X1X=X1X;X1X;X;X;X;X1X=X",
"7X=X1X=X1X;X1X;X1X;X;X;X;X;X;X1X;X1X;X1X=X1X=X1X=X1X=X1X=X1X;X1X;X1X;X;X;X;X1X;X1X;X1X=X1X=X1X=X1X=X1X=X1X;X1X;X1X;X;X;X;X;X;X1X",
"7X=X1X=X1X;X1X;X1X;X;X;X;X;X;X1X;X1X;X1X=X1X=X1X;X1X;X1X=X1X;X1X;X1X;X1X;X;X1X;X1X;X1X;X1X;X1X=X1X=X1X=X1X;X1X;X1X;X;X;X;X;X;X1X",
"=X7X=X7X=X1X=X1X;X1X;X;X;X;X1X;X1X=X1X=X7X=X7X=X7X=X7X=X7X=X1X=X1X;X1X;X;X1X;X1X=X1X=X7X=X7X=X7X=X7X=X7X=X1X=X1X;X1X;X;X;X;X1X=X",
"1X;X1X;X1X;X;X;X;X;X;X;X;X;X;X;X;X;X;X1X;X1X;X1X;X1X;X1X;X;X;X;X;X;X;X;X;X;X;X;X;X;X;X;X1X;X1X;X1X;X1X;X1X;X;X;X;X;X;X;X;X;X;X1X",
"7X=X7X=X1X=X1X=X1X;X1X;X;X1X;X1X=X1X=X1X=X7X=X7X=X7X=X1X=X1X=X1X;X1X;X;X;X;X1X;X1X=X1X=X7X=X7X=X7X=X7X=X1X=X1X=X1X;X1X;X;X1X;X1X",
"=X7X=X1X=X7X=X1X;X1X;X;X;X;X1X;X1X=X1X=X1X=X7X=X7X=X7X=X1X=X1X=X1X;X1X;X;X1X;X1X=X1X=X1X=X7X=X7X=X7X=X1X=X7X=X1X;X1X;X;X;X;X1X=X",
";X1X;X1X;X1X;X;X;X;X;X;X;X;X;X;X;X;X;X;X1X;X1X;X1X;X1X;X1X=X_.T.|.=X;X;X;X;X;X;X;X;X;X1X;X1X;X1X;X1X;X1X;X1X;X;X;X;X;X;X;X;X;X;X",
"7X=X7X=X7X=X1X=X1X;X1X;X;X1X;X1X=X1X=X7X=X7X=X7X=X7X=X7X=X/.5.4.y./.=X6X;X;X1X;X1X=X1X=X7X=X7X=X7X=X7X=X7X=X1X=X1X;X1X;X;X1X;X7X",
"=X1X=X1X;X1X;X1X;X1X;X;X;X;X1X;X1X;X1X=X1X=X1X=X1X=X1X=X.Xp.4.5.i.i..X;X;X;X;X1X;X1X;X1X=X1X=X1X=X1X=X1X;X1X;X1X;X1X;X;X;X;X1X;X",
"=X1X=X1X=X1X;X1X;X1X;X;X;X;X1X;X1X;X1X;X1X=X1X=X1X=X1XOXp.( H.P.H.,.p. X;X1X;X1X;X1X;X1X=X1X=X1X=X1X=X1X=X1X;X1X;X1X;X;X;X;X1X;X",
"7X=X7X=X7X=X1X=X1X;X1X;X;X1X;X1X=X1X=X7X=X7X=X7X=X7X+XY.2.{ E. X~.y.t.L.+X;X1X;X1X=X1X=X7X=X7X=X7X=X7X=X7X=X1X=X1X;X1X;X;X1X;X7X",
";X1X;X1X;X;X;X;X;X;X;X;X;X;X;X;X;X;X1X;X1X;X1X;X1X#XL.t.:.{ ~.$X}.P.f.u.L.#X;X;X;X;X;X1X;X1X;X1X;X1X;X1X;X;X;X;X;X;X;X;X;X;X;X;X",
"=X7X=X1X=X1X=X1X;X1X;X;X;X;X1X;X1X=X7X=X1X=X7X=X=XU.4.t.! { T.~.Q.I.3.u.} P.*X1X=X1X=X1X=X7X=X7X=X7X=X1X=X1X=X1X;X1X;X;X;X;X1X=X",
"7X=X7X=X1X=X1X=X1X;X1X;X;X1X;X1X=X1X=X1X=X7X=X7X!./ ( t.A ..U.E.Q.H.2.u.}  .~.;X1X-X1X=X1X=X7X=X7X=X7X=X1X=X1X;X1X;X1X;X;X1X;X1X",
"1X;X1X;X1X;X;X;X;X;X1X;X;X;X;X;X;X;X;X1X;X1X;X*X,.P ~ 2.1./ y.P.H.{ a.3.4.J.5.%X1X;X;X;X1X;X1X;X1X;X1X;X1X;X;X;X1X;X1X;X;X;X;X1X",
"=X7X=X7X=X1X=X1X;X1X;X;X;X;X1X;X1X=X1X=X7X=X7X^.M y I / t.:.^ / / 2.t.4.G.Y z ^.;X1X=X7X=X7X=X7X=X7X=X7X=X1X=X1X;X1X;X;X;X;X1X=X",
"7X=X1X=X1X;X1X;X1X;X;X;X;X;X;X1X;X1X;X1X=X1X=Xh.d : y I ) a.a.2.a.t.4.G.` 3 h h.-X;X1X=X1X=X1X=X1X=X1X=X1X;X1X;X1X;X;X;X;X;X;X1X",
"7X=X1X=X1X;X1X;X1X;X;X;X;X;X;X1X;X1X;X1X=X1X&X1.< : : f I ) 6.u.3.4.G.] 4 3 4 <.&X;X1X=X1X=X1X=X1X=X1X=X1X;X1X;X1X;X;X;X;X;X;X1X",
"=X7X=X7X=X7X=X1X;X1X;X;X;X;X1X;X1X=X1X=X7X=X&XA : : : : g I / } } G.X.f 3 3 4 ! oX7X=X7X=X7X=X7X=X7X=X7X=X1X=X1X;X1X;X;X;X;X1X=X",
"1X;X1X;X1X;X;X;X;X;X;X;X;X;X;X;X;X;X;X1X;X1X@Xz : : : : > D I / y. .S 3 3 3 4 P XX1X;X;X1X;X1X;X1X;X1X;X1X;X;X;X;X;X;X;X;X;X;X1X",
"7X=X7X=X1X=X1X=X1X;X1X;X;X1X;X1X;X1X=X1X=X7XoXP > : : : : , K /  .G 3 3 3 3 4 L .X;X1X=X1X=X7X=X7X=X7X=X1X=X1X=X1X;X1X;X;X1X;X1X",
"=X7X=X1X=X1X=X1X;X1X;X;X;X;X1X;X1X=X1X=X1X=X%XK : : : : > > 2 K K 3 4 3 4 4 4 F .X7X=X1X=X7X=X7X=X7X=X1X=X1X=X1X;X1X;X;X;X;X1X=X",
";X1X;X1X;X;X;X;X;X;X;X;X;X;X1X;X;X;X6X;X1X;X$XD : : : : > > : d h 4 4 4 4 4 4 F }.1X;X1X;X1X;X1X;X1X;X1X;X;X;X;X;X;X;X;X;X;X1X;X",
"7X=X7X=X7X=X1X=X1X;X1X;X;X1X;X1X=X1X=X7X=X7XOXg ; : : > > , > M l 4 u 4 4 u u D }.;X1X=X7X=X7X=X7X=X7X=X7X=X1X=X1X;X1X;X;X1X;X7X",
"=X1X=X1X;X1X;X1X;X1X;X;X;X;X1X;X1X;X1XeX1X;X@Xg # : : > , , t Z k 4 S u u 4 u f _.1X;X1X=X1X=X1X=X1X=X1X;X1X;X1X;X1X;X;X;X;X1X;X",
"=X1X;X1X=X1X;X1X;X1X;X1X;X;X1X;X1X;X1X;X1X;X@Xl $ ; : > , , t *.k u S u 4 u y t _.1X;X1X=X1X=X1X;X1X;X1X;X1X;X1X;X1X;X;X;X;X1X;X",
"0X=X7X=X7X=X1X=X1X;X1X;X;X1X;X1X=X1X=X7X=X7XOXV s q ; : , , k *.M f S u u g j M _.;X1X=X7X=X7X=X7X=X7X=X7X=X1X=X1X;X1X;X;X1X;X7X",
";X1X;X1X;X;X;X;X;X;X;X;X;X;X;X;X;X;X1X;X1X;X@X*.$.b % ; > 2 M *.N h f u g N *.Z `.1X;X1X;X1X;X1X;X1X;X1X;X;X;X;X;X;X;X;X;X;X1X;X",
"=X7X=X1X=X1X=X1X;X1X;X;X;X;X1X;X1X=X7X=X1X=X&X7.9.=.c < : , B B B y 4 f N q.w.=.`.9X=X1X=X7X=X7X=X7X=X1X=X1X=X1X;X1X;X;X;X;X1X=X",
"7X=X7X=X1X=X1X=X1X;X1X;X;X1X;X1X=X1X=X1X=X7XoX>.U W Z e ; , B M N d 4 d =...| <.XX;X1X=X1X=X7X=X7X=X7X=X1X=X1X=X1X;X1X;X;X1X;X1X",
"1X;X1X;X1X;X;X;X;X;X;X;X;X;X;X;X;X;X;X1X;X1X$XJ 6 9 A v # < N e p t , N r.E T E  X6X;X;X1X;X1X;X1X;X1X;X1X;X;X;X;X;X1X;X;X;X;X1X",
"=X7X=X7X=X1X=X1X;X1X;X;X;X;X1X;X1X=X1X=X7X=X%XY 9 9 U *.$ @ v w i % % &.,.o.O.E }.7X=X7X=X7X=X7X=X7X=X7X=X1X=X1X;X1X;X;X;X;X1X=X",
"7X=X1X=X1X;X1X;X1X;X1X;X;X;X;X1X;X1X;X1X=X7XXXY o.T 7 Z i # c % a q i q.Q o.#.Q (.;X1X-X1X=X1X=X1X=X1X=X1X;X1X;X1X;X1X;X;X;X;X1X",
"7X=X1X=X1X;X1X;X1X;X;X;X;X;X;X1X;X1X;X1X=X7X).Y O.o.7 z c $ c q i q b r.T o.@.+.R.;X1X;X1X=X1X=X1X=X1X=X1X;X1X;X1X;X;X;X;X;X;X1X",
"=X7X=X7X=X1X=X1X;X1X;X;X;X;X1X;X1X=X7X=X7XoXm.W o.0 7 F v $ c e i q B | 0 T +.O.g.`.*X7X=X7X=X7X=X7X=X7X=X7X=X1X;X1X;X;X;X;X1X=X",
"1X;X1X;X1X;X;X;X;X;X;X;X;X;X;X;X;X;X;X1X+Xi.e.M y 5 f A n $ v e p w B >.H - 8 U s.f.W.=X1X;X1X;X1X;X1X;X1X;X;X;X;X;X;X;X;X;X;X1X",
"7X=X7X=X1X=X1X=X1X;X1X;X;X1X;X1X-X1X=X1XU.A k.n e j C &.v $ b w p w c &.Z d d B k.t. . X7X=X7X=X7X=X7X=X7X=X1X=X1X;X1X;X;X1X;X1X",
"=X7X=X7X=X1X=X1X;X1X;X;X;X;X1X;X1X=X7X#X( =.z.%.p i x v i $ b e p e a v x j M ;.z.r.[ !.=X7X=X7X=X7X=X1X=X1X;X1X;X1X;X;X;X;X1X=X",
";X1X;X1X;X;X;X;X;X1X;X;X;X;X;X;X;X;X1X.XA e.C.k.C i e e q % b i x e w i i k *.l.B.e.^ T.;X1X;X6X;X1X;X1X;X;X;X;X;X;X;X;X;X;X;X;X",
"7X=X7X=X7X=X7X;X1X;X1X;X;X1X;X1X=X1X=X).q.Z.{.Z.9.n a r % q b a x i q e j B w.Z.F.Z.d.R.1X=X7X=X7X=X7X=X7X=X1X=X1X;X1X;X;X1X;X7X",
"=X1X=X1X=X1X;X1X;X1X;X;X;X;X1X;X1X;X;Xy.-.Z.{.F.v.0.b s q w n x c i t j N 0.N.F.{.'.s.K.*X1X=X1X=X1X=X1X=X1X;X1X;X1X;X;X;X;X1X;X",
"=X1X=X1X=X1X;X1X;X1X;X;X;X;X1X;X1X;X#XI l 1.Z.F.A.v.%.v e i $.C n x d N =.v.A.'.'.j.{ X.$X1X=X1X=X1X=X1X=X1X;X1X;X1X;X;X;X;X1X;X",
"7X=X7X=X7X=X1X=X1X;X1X;X;X1X;X1X=X7XW.> t l 1.b.S.A.v.&.c b 9.w.8.C M =.n.V.'.'.j.} ` Y  X=X7X=X7X=X7X=X7X=X1X;X1X;X1X;X;X1X;X7X",
";X1X;X1X;X;X;X;X;X1X;X;X;X;X;X;X;X;XI.X : t l -.N.S.A.l.&.%.z.x.x.9.=.l.V.D.].j.} ` H 6  X1X;X1X;X1X;X1X;X;X;X;X;X;X;X;X;X;X1X;X",
"=X7X=X1X=X1X=X1X;X1X;X;X;X;X1X;X1XeXP.  X : y z r.N.F.S.l.k.x.h.n.z.l.N.D.[.m.4.` Y * ' *X7X=X7X=X7X=X1X=X1X=X1X;X1X;X;X;X;X1X=X",
"7X=X7X=X1X=X1X=X1X;X1X;X;X1X;X1X;X7X!.=   X > h ! a.A.F.Z.B.e.Y.s.v.N.D.].M.3.' Y - * E.7X=X7X=X7X=X7X=X1X=X1X=X1X;X1X;X;X1X;X1X",
"1X;X1X;X1X;X;X;X;X;X;X;X;X;X;X;X;X1X*XJ.+   + , g ^ s.D.F.F.c.) t.A.F.].M.3.[ R 5 & ] &X1X;X1X;X1X;X1X;X1X;X;X;X;X;X;X;X;X;X;X1X",
"=X7X=X7X=X1X=X1X;X1X;X;X;X;X1X;X1X=X7X#XY     @ y K ) g.F.{.m.I t.].].M.u.[ R 4 O * ~.7X=X7X=X7X=X7X=X7X=X1X=X1X;X1X;X;X;X;X1X=X",
"7X=X1X=X1X;X1X;X1X;X;X;X;X;X;X1X;X1X;X1XW.= 1 = = f P ,.g.M.c.z a.M.m.i.[ ` S = * Y *X;X1X=X1X=X1X=X1X=X1X;X1X;X1X;X;X;X;X;X;X1X",
"7X=X1X=X1X;X1X;X1X;X;X;X;X;X;X1X;X1X;X1X*XP. .G   = g I ( ,.<._ <.,.( [ ` F & F E. X1X;X1X=X1X=X1X=X1X=X1X;X1X;X1X;X;X;X;X;X;X1X",
"=X7X=X7X=X1X=X1X;X1X;X;X;X;X1X;X1X=X1X=X7X=X#X]     : D Y ~ ~ ) / ~ ~ ` H = O H.eX7X=X7X=X7X=X7X=X7X=X7X=X1X=X1X;X1X;X;X;X;X1X=X",
"1X;X1X;X1X;X;X;X;X;X;X;X;X;X;X;X;X;X;X1X;X1X;X~.3   X 2 L F L L L G G S * . F $X1X;X;X;X1X;X1X;X1X;X1X;X1X;X;X;X;X;X;X;X;X;X;X1X",
"7X=X7X=X7X=X1X=X1X;X1X;X;X1X;X1X=X1X=X1X=X7X=X1XP..   . & . . . . . . . o = W.;X1X=X1X=X1X=X7X=X7X=X7X=X7X=X1X=X1X;X1X;X;X1X;X1X",
"=X7X=X1X=X7X=X1X;X1X;X;X;X;X1X;X1X=X1X=X1X=X7X=X*X] Y &       X       X * J.*X1X=X1X=X1X=X7X=X7X=X7X=X1X=X7X=X1X;X1X;X;X;X;X1X=X",
";X1X;X1X;X;X;X;X;X;X;X;X;X;X;X;X;X;X1X;X1X;X1X;X;X*X$X[ . * .   > G * 1 H.=X;X;X;X;X;X1X;X1X;X1X;X1X;X1X;X1X;X;X;X;X;X;X;X;X;X;X",
"7X=X7X=X7X=X1X=X1X;X1X;X;X1X;X1X;X7X=X7X=X7X=X7X=X7X=X$XH.~.J.H W.#X/.}.*X;X1X;X1X=X1X=X7X=X7X=X7X=X7X=X7X=X1X=X1X;X1X;X;X1X;X7X",
"=X1X=X1X=X1X;X1X;X1X;X;X;X;X1X;X1X;X1X=X1X=X1X=X1X=X1X;X1X;X=X#X;X;X1X1X;X;X;X1X;X1X;X1X=X1X=X1X=X1X=X1X=X1X;X1X;X1X;X;X;X;X1X;X",
"=X1X=X1X=X1X;X1X;X1X;X;X;X;X1X;X1X;X1X-X1X=X1X=X1X-X1X=X1X;X1X;X1X;X;X;X;X;X;X1X;X1X;X1X=X1X=X1X=X1X=X1X=X1X;X1X;X1X;X;X;X;X1X;X",
"7X=X7X=X7X=X1X=X1X;X1X;X;X1X;X1X=X1X=X7X=X7X=X7X=X7X=X7X=X1X=X1X;X1X;X;X;X;X1X;X1X=X1X=X7X=X7X=X7X=X7X=X7X=X1X=X1X;X1X;X;X1X;X7X",
";X1X;X1X;X;X;X;X;X;X;X;X;X;X;X;X;X;X;X;X1X;X1X;X1X;X1X;X1X;X;X;X;X;X;X;X;X;X;X6X;X;X;X1X;X1X;X1X;X1X;X1X;X;X;X;X;X;X;X;X1X;X;X;X",
"=X7X=X7X=X7X=X1X;X1X;X;X;X1X1X;X1X=X7X=X7X=X7X=X7X=X7X=X7X=X1X=X1X;X1X;X;X1X;X1X;X1X=X7X=X7X=X7X=X7X=X7X=X7X=X1X=X1X;X;X1X;X1X=X"
};
